<svg xmlns="http://www.w3.org/2000/svg" width="148" height="148" viewBox="0 0 148 148">
  <g id="Grupo_16750" data-name="Grupo 16750" transform="translate(-11408 9272.249)">
    <circle id="Elipse_66" data-name="Elipse 66" cx="74" cy="74" r="74" transform="translate(11408 -9272.249)" fill="#fff"/>
    <g id="Grupo_16730" data-name="Grupo 16730" transform="translate(11446.387 -9255.755)">
      <g id="Grupo_16700" data-name="Grupo 16700" transform="translate(0)">
        <g id="Grupo_16693" data-name="Grupo 16693" transform="translate(48.151 46.513)">
          <path id="Trazado_6139" data-name="Trazado 6139" d="M1897.2,5322.578a17.123,17.123,0,1,0,17.124,17.124A17.123,17.123,0,0,0,1897.2,5322.578Zm0,26.162a9.038,9.038,0,1,1,9.038-9.038A9.038,9.038,0,0,1,1897.2,5348.739Z" transform="translate(-1878.927 -5321.428)" fill="#fff"/>
          <path id="Trazado_6140" data-name="Trazado 6140" d="M1897.351,5358.124a18.273,18.273,0,1,1,18.274-18.272A18.294,18.294,0,0,1,1897.351,5358.124Zm0-34.247a15.973,15.973,0,1,0,15.974,15.974A15.992,15.992,0,0,0,1897.351,5323.877Zm0,26.162a10.189,10.189,0,1,1,10.188-10.188A10.2,10.2,0,0,1,1897.351,5350.039Zm0-18.078a7.889,7.889,0,1,0,7.888,7.89A7.9,7.9,0,0,0,1897.351,5331.961Z" transform="translate(-1879.077 -5321.577)" fill="#33c"/>
        </g>
        <g id="Grupo_16694" data-name="Grupo 16694" transform="translate(11.985 85.059)">
          <path id="Trazado_6141" data-name="Trazado 6141" d="M1891.124,5356.1h-40.28l-2.219,13.171c0,2.495,10.011,6.42,22.359,6.42s22.359-3.926,22.359-6.42Z" transform="translate(-1847.475 -5354.95)" fill="#fff"/>
          <path id="Trazado_6142" data-name="Trazado 6142" d="M1871.134,5376.99c-11.864,0-23.509-3.75-23.509-7.568a1.165,1.165,0,0,1,.016-.19l2.218-13.173a1.149,1.149,0,0,1,1.135-.959h40.28a1.149,1.149,0,0,1,1.134.959l2.219,13.173a1.126,1.126,0,0,1,.016.19C1894.643,5373.241,1883,5376.99,1871.134,5376.99Zm-21.2-7.533c.5,1.521,9.312,5.234,21.2,5.234,11.849,0,20.644-3.689,21.2-5.25l-2.03-12.042h-38.335Z" transform="translate(-1847.625 -5355.099)" fill="#33c"/>
        </g>
        <g id="Grupo_16695" data-name="Grupo 16695" transform="translate(0.001 37.653)">
          <path id="Trazado_6143" data-name="Trazado 6143" d="M1872.546,5373.231h0a30.4,30.4,0,0,1-30.135-26.391l-4.206-31.616a.311.311,0,0,1,.307-.353h68.068a.311.311,0,0,1,.307.353l-4.206,31.616A30.4,30.4,0,0,1,1872.546,5373.231Z" transform="translate(-1837.053 -5313.722)" fill="#fff"/>
          <path id="Trazado_6144" data-name="Trazado 6144" d="M1872.7,5374.531a31.646,31.646,0,0,1-31.274-27.388l-4.206-31.618a1.461,1.461,0,0,1,1.448-1.653h68.067a1.461,1.461,0,0,1,1.448,1.653l-4.208,31.618A31.645,31.645,0,0,1,1872.7,5374.531Zm-33.074-58.359,4.079,30.668a29.25,29.25,0,0,0,57.989,0l4.081-30.668Z" transform="translate(-1837.203 -5313.872)" fill="#33c"/>
        </g>
        <g id="Grupo_16696" data-name="Grupo 16696" transform="translate(0 29.442)">
          <ellipse id="Elipse_184" data-name="Elipse 184" cx="34.344" cy="8.21" rx="34.344" ry="8.21" transform="translate(1.15 1.15)" fill="#fff"/>
          <path id="Trazado_6145" data-name="Trazado 6145" d="M1872.7,5325.454c-17.639,0-35.494-3.215-35.494-9.361s17.855-9.36,35.494-9.36,35.495,3.215,35.495,9.36S1890.334,5325.454,1872.7,5325.454Zm0-16.422c-20.565,0-33.194,4.114-33.194,7.061s12.629,7.061,33.194,7.061,33.195-4.112,33.195-7.061S1893.262,5309.031,1872.7,5309.031Z" transform="translate(-1837.202 -5306.732)" fill="#33c"/>
        </g>
        <g id="Grupo_16697" data-name="Grupo 16697" transform="translate(5.436 39.174)">
          <path id="Trazado_6146" data-name="Trazado 6146" d="M1900.747,5319.109s-23.209-6.6-57.818,0c0,0,9.508,3.778,28.909,3.778S1900.747,5319.109,1900.747,5319.109Z" transform="translate(-1841.779 -5315.048)" fill="#30ceb3"/>
          <path id="Trazado_6147" data-name="Trazado 6147" d="M1871.988,5324.185c-19.4,0-28.937-3.7-29.333-3.862a1.15,1.15,0,0,1,.208-2.2c34.479-6.573,58.114-.044,58.348.024a1.149,1.149,0,0,1,.11,2.174C1900.924,5320.481,1891.385,5324.185,1871.988,5324.185Zm-23.779-4.662a106.659,106.659,0,0,0,23.779,2.362,105.23,105.23,0,0,0,24.25-2.469C1888.541,5318,1871.151,5315.853,1848.208,5319.523Z" transform="translate(-1841.929 -5315.195)" fill="#33c"/>
        </g>
        <g id="Grupo_16699" data-name="Grupo 16699" transform="translate(14.462)">
          <g id="Grupo_16698" data-name="Grupo 16698">
            <path id="Trazado_6148" data-name="Trazado 6148" d="M1872.78,5305.435v11.416m0-28.564v12.063m-11.37-1.618v5.455m0-22.06v12.215m-10.631,4.483v-4.161m0,17.287v-9.612" transform="translate(-1849.629 -5280.977)" fill="#fff"/>
            <path id="Trazado_6149" data-name="Trazado 6149" d="M1872.93,5318.151a1.149,1.149,0,0,1-1.15-1.15v-11.417a1.15,1.15,0,1,1,2.3,0V5317A1.149,1.149,0,0,1,1872.93,5318.151Zm-22-4.9a1.15,1.15,0,0,1-1.15-1.15v-9.612a1.15,1.15,0,1,1,2.3,0v9.612A1.149,1.149,0,0,1,1850.929,5313.251Zm10.631-7.764a1.15,1.15,0,0,1-1.15-1.15v-5.455a1.15,1.15,0,1,1,2.3,0v5.455A1.15,1.15,0,0,1,1861.56,5305.487Zm11.37-3.836a1.15,1.15,0,0,1-1.15-1.149v-12.065a1.15,1.15,0,1,1,2.3,0V5300.5A1.15,1.15,0,0,1,1872.93,5301.651Zm-22-1.527a1.149,1.149,0,0,1-1.15-1.149v-4.16a1.15,1.15,0,0,1,2.3,0v4.16A1.148,1.148,0,0,1,1850.929,5300.124Zm10.631-4.482a1.149,1.149,0,0,1-1.15-1.15v-12.215a1.15,1.15,0,1,1,2.3,0v12.215A1.149,1.149,0,0,1,1861.56,5295.642Z" transform="translate(-1849.779 -5281.126)" fill="#33c"/>
          </g>
        </g>
      </g>
      <g id="Grupo_16702" data-name="Grupo 16702" transform="translate(23.36 61.454)">
        <g id="Grupo_16701" data-name="Grupo 16701">
          <path id="Trazado_6150" data-name="Trazado 6150" d="M1869.7,5337.188c.486-.416.968-.889,1.51-1.278a6.552,6.552,0,0,1,10.512,4.68,9.311,9.311,0,0,1-2.063,6.977,34.3,34.3,0,0,1-9.682,8.59.615.615,0,0,1-.516.042,31.549,31.549,0,0,1-10.586-9.894,8.165,8.165,0,0,1-.769-7.573,6.452,6.452,0,0,1,9.721-3.031A23.08,23.08,0,0,1,1869.7,5337.188Z" transform="translate(-1857.517 -5334.571)" fill="#30ceb3"/>
        </g>
      </g>
    </g>
  </g>
</svg>
