<svg xmlns="http://www.w3.org/2000/svg" width="148" height="148" viewBox="0 0 148 148">
  <g id="Grupo_16745" data-name="Grupo 16745" transform="translate(-8142 7537.249)">
    <circle id="Elipse_65" data-name="Elipse 65" cx="74" cy="74" r="74" transform="translate(8142 -7537.249)" fill="#fff"/>
    <g id="Grupo_16729" data-name="Grupo 16729" transform="translate(8176.006 -7509.756)">
      <g id="Grupo_16677" data-name="Grupo 16677" transform="translate(0 60.298)">
        <path id="Trazado_6124" data-name="Trazado 6124" d="M1826.253,5513.711a2.631,2.631,0,0,1-1.292-2.574,14.735,14.735,0,0,1,4.827-11.779,41.6,41.6,0,0,1,3.546-2.589,9.025,9.025,0,0,1-2.839-7.639,8.614,8.614,0,0,1,2.968-5.754,8.928,8.928,0,0,1,12.41.256c3.016,2.967,4.291,8.547-.221,13.253a15.051,15.051,0,0,1,6.556,6.123,15.642,15.642,0,0,1,6.66-6.114,9.147,9.147,0,0,1,.894-14.235,9.024,9.024,0,0,1,11.569,1,8.857,8.857,0,0,1,2.7,6.621,9.155,9.155,0,0,1-3,6.59,15.139,15.139,0,0,1,6.627,6.138,15.636,15.636,0,0,1,6.653-6.113,9.1,9.1,0,1,1,12.238-.06c.2.133.371.274.567.383,5.742,3.211,8.074,8.237,7.816,14.65a2.316,2.316,0,0,1-1.269,1.848Zm24.19-3.671c-.244-4.364-2.115-7.661-5.936-9.615a10.353,10.353,0,0,0-11.53.976,10.512,10.512,0,0,0-4.351,8.64Zm25.419-.009a10.584,10.584,0,0,0-5.075-9.13,10.367,10.367,0,0,0-11.573-.046,10.636,10.636,0,0,0-5.168,9.176Zm25.454.013c-.214-4.285-2.051-7.543-5.75-9.532a10.347,10.347,0,0,0-11.331.608,10.582,10.582,0,0,0-4.738,8.923Zm-56.354-19.979a5.444,5.444,0,1,0-5.4,5.469A5.49,5.49,0,0,0,1844.961,5490.065Zm25.439.065a5.444,5.444,0,1,0-5.462,5.4A5.494,5.494,0,0,0,1870.4,5490.13Zm19.976-5.484a5.444,5.444,0,1,0,5.462,5.4A5.49,5.49,0,0,0,1890.376,5484.646Z" transform="translate(-1824.958 -5480.996)" fill="#33c"/>
      </g>
      <g id="Grupo_16678" data-name="Grupo 16678" transform="translate(17.446)">
        <path id="Trazado_6125" data-name="Trazado 6125" d="M1846.311,5476.166c.324-1.894.689-4.039,1.058-6.186.373-2.174.777-4.345,1.1-6.528a1.47,1.47,0,0,0-.438-1.062c-2.927-2.9-5.885-5.759-8.829-8.637-.856-.837-1.041-1.528-.667-2.34a1.942,1.942,0,0,1,1.653-1.1c4.1-.6,8.2-1.216,12.3-1.777a1.276,1.276,0,0,0,1.128-.84c1.8-3.862,3.639-7.707,5.449-11.567a2.032,2.032,0,0,1,1.717-1.419,1.947,1.947,0,0,1,1.931,1.368c1.8,3.829,3.629,7.645,5.41,11.485a1.479,1.479,0,0,0,1.313.991c3.986.54,7.96,1.165,11.943,1.726.9.128,1.664.4,1.97,1.332a2.07,2.07,0,0,1-.83,2.233c-2.892,2.8-5.763,5.624-8.664,8.416a1.451,1.451,0,0,0-.5,1.495c.724,3.954,1.381,7.923,2.058,11.887a2.1,2.1,0,0,1-.684,2.369,2.14,2.14,0,0,1-2.386-.141c-3.555-1.88-7.124-3.731-10.668-5.632a1.472,1.472,0,0,0-1.58.017q-5.44,2.9-10.918,5.741A1.845,1.845,0,0,1,1846.311,5476.166Zm14.6-35.371c-.245.486-.4.777-.538,1.073-1.355,2.871-2.718,5.735-4.053,8.614a2.259,2.259,0,0,1-1.823,1.441q-2.65.371-5.3.757c-1.65.241-3.3.486-5.185.764.4.359.636.547.849.756,2.213,2.152,4.416,4.314,6.64,6.455a2.373,2.373,0,0,1,.749,2.367c-.426,2.164-.768,4.344-1.137,6.52-.2,1.167-.381,2.333-.6,3.653,3.137-1.647,6.118-3.183,9.066-4.778a2.518,2.518,0,0,1,2.641.01c2.71,1.471,5.452,2.88,8.182,4.312.248.129.507.238.874.409-.585-3.452-1.11-6.762-1.725-10.054a2.515,2.515,0,0,1,.813-2.516c2.21-2.11,4.38-4.264,6.585-6.38a3.249,3.249,0,0,1,.879-.438l-.318-.37c-2.931-.421-5.853-.949-8.8-1.23a4,4,0,0,1-3.786-2.742C1863.768,5446.545,1862.328,5443.784,1860.916,5440.795Z" transform="translate(-1838.35 -5434.708)" fill="#33c"/>
      </g>
      <g id="Grupo_16679" data-name="Grupo 16679" transform="translate(6.716 4.739)">
        <path id="Trazado_6126" data-name="Trazado 6126" d="M1840,5443.384c-.02,1.63-1.167,2.462-2.327,2.054a8.54,8.54,0,0,1-1.368-.687c-1.7-.973-3.409-1.939-5.091-2.946a1.816,1.816,0,1,1,1.8-3.129c2,1.123,4,2.247,5.943,3.461A4.45,4.45,0,0,1,1840,5443.384Z" transform="translate(-1830.114 -5438.346)" fill="#33c"/>
      </g>
      <g id="Grupo_16680" data-name="Grupo 16680" transform="translate(63.222 4.736)">
        <path id="Trazado_6127" data-name="Trazado 6127" d="M1873.489,5443.532a5.821,5.821,0,0,1,1.156-1.366c2-1.233,4.049-2.4,6.1-3.54a1.8,1.8,0,0,1,2.53.587,1.774,1.774,0,0,1-.7,2.5c-2.04,1.229-4.1,2.435-6.192,3.57A1.95,1.95,0,0,1,1873.489,5443.532Z" transform="translate(-1873.489 -5438.345)" fill="#33c"/>
      </g>
      <g id="Grupo_16681" data-name="Grupo 16681" transform="translate(6.718 37.454)">
        <path id="Trazado_6128" data-name="Trazado 6128" d="M1840.164,5465.509a6.092,6.092,0,0,1-1.182,1.344c-1.978,1.217-4,2.363-6.027,3.5a1.817,1.817,0,0,1-2.6-.6,1.785,1.785,0,0,1,.748-2.493c2.018-1.21,4.05-2.4,6.115-3.526A1.95,1.95,0,0,1,1840.164,5465.509Z" transform="translate(-1830.115 -5463.459)" fill="#33c"/>
      </g>
      <g id="Grupo_16682" data-name="Grupo 16682" transform="translate(63.379 37.408)">
        <path id="Trazado_6129" data-name="Trazado 6129" d="M1875.511,5463.424a5.746,5.746,0,0,1,.967.36q2.994,1.695,5.961,3.431a1.817,1.817,0,0,1,1.037,1.856,1.568,1.568,0,0,1-1.253,1.487,2.5,2.5,0,0,1-1.541-.212c-2.04-1.107-4.046-2.281-6.045-3.463a1.779,1.779,0,0,1-.94-2.141A1.865,1.865,0,0,1,1875.511,5463.424Z" transform="translate(-1873.61 -5463.424)" fill="#33c"/>
      </g>
      <g id="Grupo_16683" data-name="Grupo 16683" transform="translate(1.854 22.867)">
        <path id="Trazado_6130" data-name="Trazado 6130" d="M1831.768,5455.9c-1.12,0-2.241.02-3.361,0a1.823,1.823,0,1,1,.013-3.623q3.405-.03,6.812,0a1.823,1.823,0,1,1-.013,3.623C1834.068,5455.922,1832.918,5455.9,1831.768,5455.9Z" transform="translate(-1826.381 -5452.263)" fill="#33c"/>
      </g>
      <g id="Grupo_16684" data-name="Grupo 16684" transform="translate(67.267 22.87)">
        <path id="Trazado_6131" data-name="Trazado 6131" d="M1882.066,5452.271c1.119,0,2.239-.017,3.36.006a1.823,1.823,0,1,1,.021,3.621q-3.4.034-6.811,0a1.822,1.822,0,1,1-.022-3.621C1879.765,5452.253,1880.915,5452.271,1882.066,5452.271Z" transform="translate(-1876.595 -5452.265)" fill="#33c"/>
      </g>
      <g id="Grupo_16685" data-name="Grupo 16685" transform="translate(3.667 78.418)">
        <path id="Trazado_6132" data-name="Trazado 6132" d="M1849.591,5505.829h-21.818a10.511,10.511,0,0,1,4.351-8.639,10.356,10.356,0,0,1,11.53-.977C1847.475,5498.168,1849.347,5501.465,1849.591,5505.829Z" transform="translate(-1827.773 -5494.905)" fill="#fff"/>
      </g>
      <g id="Grupo_16686" data-name="Grupo 16686" transform="translate(29.087 78.415)">
        <path id="Trazado_6133" data-name="Trazado 6133" d="M1869.1,5505.821h-21.816a10.636,10.636,0,0,1,5.168-9.176,10.365,10.365,0,0,1,11.573.046A10.583,10.583,0,0,1,1869.1,5505.821Z" transform="translate(-1847.286 -5494.902)" fill="#fff"/>
      </g>
      <g id="Grupo_16687" data-name="Grupo 16687" transform="translate(54.538 78.412)">
        <path id="Trazado_6134" data-name="Trazado 6134" d="M1888.642,5505.835h-21.819a10.582,10.582,0,0,1,4.738-8.924,10.347,10.347,0,0,1,11.331-.608C1886.591,5498.292,1888.428,5501.55,1888.642,5505.835Z" transform="translate(-1866.823 -5494.9)" fill="#fff"/>
      </g>
      <g id="Grupo_16688" data-name="Grupo 16688" transform="translate(9.115 63.949)">
        <path id="Trazado_6135" data-name="Trazado 6135" d="M1842.843,5489.216a5.444,5.444,0,1,1-5.445-5.418A5.492,5.492,0,0,1,1842.843,5489.216Z" transform="translate(-1831.955 -5483.797)" fill="#fff"/>
      </g>
      <g id="Grupo_16689" data-name="Grupo 16689" transform="translate(34.553 63.948)">
        <path id="Trazado_6136" data-name="Trazado 6136" d="M1862.371,5489.282a5.444,5.444,0,1,1-5.381-5.484A5.492,5.492,0,0,1,1862.371,5489.282Z" transform="translate(-1851.482 -5483.797)" fill="#fff"/>
      </g>
      <g id="Grupo_16690" data-name="Grupo 16690" transform="translate(59.992 63.949)">
        <path id="Trazado_6137" data-name="Trazado 6137" d="M1876.436,5483.8a5.444,5.444,0,1,1-5.426,5.439A5.493,5.493,0,0,1,1876.436,5483.8Z" transform="translate(-1871.01 -5483.797)" fill="#fff"/>
      </g>
      <g id="Grupo_16691" data-name="Grupo 16691" transform="translate(23.115 6.086)">
        <path id="Trazado_6138" data-name="Trazado 6138" d="M1859.6,5439.38c1.412,2.99,2.853,5.752,4.023,8.623a4,4,0,0,0,3.786,2.742c2.944.281,5.866.81,8.8,1.231l.318.37a3.3,3.3,0,0,0-.879.438c-2.206,2.116-4.376,4.269-6.585,6.381a2.512,2.512,0,0,0-.813,2.514c.615,3.292,1.14,6.6,1.725,10.054-.367-.17-.627-.279-.874-.408-2.731-1.432-5.473-2.842-8.182-4.313a2.519,2.519,0,0,0-2.641-.009c-2.948,1.6-5.929,3.13-9.066,4.777.215-1.319.4-2.487.6-3.652.369-2.176.711-4.356,1.137-6.521a2.37,2.37,0,0,0-.749-2.366c-2.224-2.141-4.427-4.3-6.64-6.456-.214-.208-.446-.4-.849-.755,1.884-.278,3.534-.524,5.185-.764q2.648-.385,5.3-.757a2.259,2.259,0,0,0,1.824-1.441c1.335-2.879,2.7-5.743,4.053-8.613C1859.2,5440.158,1859.353,5439.868,1859.6,5439.38Z" transform="translate(-1842.702 -5439.38)" fill="#30ceb3"/>
      </g>
    </g>
  </g>
</svg>
