<svg xmlns="http://www.w3.org/2000/svg" width="148" height="148" viewBox="0 0 148 148">
  <g id="Grupo_16749" data-name="Grupo 16749" transform="translate(-11408 8257.249)">
    <circle id="Elipse_67" data-name="Elipse 67" cx="74" cy="74" r="74" transform="translate(11408 -8257.249)" fill="#fff"/>
    <g id="Grupo_16731" data-name="Grupo 16731" transform="translate(11435.511 -8220.389)">
      <path id="Uni贸n_3" data-name="Uni贸n 3" d="M-7690.167-474.754a4.594,4.594,0,0,1-1.343-3.3,4.635,4.635,0,0,1,4.605-4.556,4.585,4.585,0,0,1,3.284,1.369,4.576,4.576,0,0,1,1.339,3.3,4.631,4.631,0,0,1-4.6,4.561A4.587,4.587,0,0,1-7690.167-474.754Zm5.06.484a4.18,4.18,0,0,0,1.915-1.891A4.188,4.188,0,0,1-7685.107-474.27Zm-4.378-1.157a3.622,3.622,0,0,0,2.592,1.089,3.673,3.673,0,0,0,3.654-3.614c0-.015,0-.031,0-.046,0,.015,0,.031,0,.046a3.67,3.67,0,0,1-3.654,3.612,3.627,3.627,0,0,1-2.592-1.087,3.647,3.647,0,0,1-1.068-2.614A3.631,3.631,0,0,0-7689.486-475.428Zm6.725-2.572a4.1,4.1,0,0,0-.859-2.514A4.106,4.106,0,0,1-7682.761-478Zm-7.754-1.99a4.155,4.155,0,0,1,3.591-2.142A4.15,4.15,0,0,0-7690.515-479.989Zm6.553-.915a4.1,4.1,0,0,0-2.936-1.228A4.108,4.108,0,0,1-7683.961-480.9Z" transform="translate(7733.371 537.784)" fill="#30ceb3" stroke="rgba(0,0,0,0)" stroke-miterlimit="10" stroke-width="1"/>
      <path id="Uni贸n_2" data-name="Uni贸n 2" d="M-7691.315-472.1a10.591,10.591,0,0,1,2.828-9.48,2.609,2.609,0,0,1,3.759-.423,12.484,12.484,0,0,1,5.214,8.874,29.375,29.375,0,0,1,.214,3.457l.016.618c.021.876.017,1.753.013,2.65l-.007,2.658-1.292.131q-.406.041-.817.041A10.61,10.61,0,0,1-7691.315-472.1Zm.471-.085a10.148,10.148,0,0,0,9.457,8.131h0a10.148,10.148,0,0,1-9.458-8.133,11.264,11.264,0,0,1-.187-2.026A11.242,11.242,0,0,0-7690.844-472.183Zm11.092,5.9,0,2.106-.863.087c-.251.025-.5.036-.755.037a7.248,7.248,0,0,0,.755-.037l.863-.087,0-2.106Zm-1.608,1.754h0Zm.693-.038-.131.012Zm.437-1.84c0-.388,0-.773,0-1.155C-7680.227-467.178-7680.229-466.793-7680.23-466.4Zm-5.048-14.81a11.56,11.56,0,0,1,4.816,8.224,28.838,28.838,0,0,1,.2,3.365l.016.6-.014-.6a29.308,29.308,0,0,0-.207-3.367,11.565,11.565,0,0,0-4.814-8.224,1.649,1.649,0,0,0-2.454.231,1.8,1.8,0,0,1,1.289-.67A2.063,2.063,0,0,1-7685.278-481.215Zm-5.272,7.012a9.676,9.676,0,0,1,2.607-6.55A9.672,9.672,0,0,0-7690.551-474.2Zm5.415-7.5-.066-.042Zm-.208-.124a2.292,2.292,0,0,0-1.052-.312A2.293,2.293,0,0,1-7685.344-481.822Zm-1.206-.309c.037,0,.074,0,.111,0h0C-7686.476-482.135-7686.513-482.133-7686.55-482.131Z" transform="translate(7742.363 487.53)" fill="#30ceb3" stroke="rgba(0,0,0,0)" stroke-miterlimit="10" stroke-width="1"/>
      <g id="Grupo_16706" data-name="Grupo 16706" transform="translate(0 0)">
        <path id="Trazado_6153" data-name="Trazado 6153" d="M1850.591,5323.376a27.812,27.812,0,0,0-13.94-12.933,3.387,3.387,0,0,1-1.888-2.024,10.324,10.324,0,0,0-15.016-5.15,2.9,2.9,0,0,1-2.7.239,28.149,28.149,0,0,0-19.851.018,2.825,2.825,0,0,1-2.605-.231,10.624,10.624,0,0,0-5.464-1.526,10.263,10.263,0,0,0-3.313.547,10.483,10.483,0,0,0-6.35,6.152,3.4,3.4,0,0,1-1.716,1.769c-8.822,3.963-14.345,10.639-16.417,19.845-.2.871-.337,1.784-.472,2.667l-.027.171c-.054.35-.107.7-.165,1.044l.006,4.628c.075.427.153.933.229,1.437.163,1.089.333,2.216.57,3.3,1.466,6.688,4.687,12.952,9.843,19.147,5.958,7.155,13.547,13.452,23.2,19.253,2.568,1.543,5.3,2.96,7.939,4.333l.15.078c1.2.625,2.407,1.251,3.6,1.891a1.746,1.746,0,0,0,1.751.06c13.244-6.25,23.8-13.616,32.271-22.517,5.939-6.243,9.809-12.568,11.828-19.341C1854.584,5337.758,1854.1,5330.284,1850.591,5323.376Zm-27.4-18.59a7.6,7.6,0,0,1,6.557,1.26,7.141,7.141,0,0,1,2.918,5.65,16.947,16.947,0,0,0,4,10.694,24.184,24.184,0,0,1,2.483,3.586,8.057,8.057,0,0,1,.308,7.375,7.635,7.635,0,0,1-5.6,4.2,7.214,7.214,0,0,1-.948.094l-1.871.133-.064-1.482c-.14-3.258-1.6-6.156-3.005-8.958a14.452,14.452,0,0,1-1.478-7.214,19.058,19.058,0,0,0-2.106-10.095,23.586,23.586,0,0,0-1.292-2.018c-.241-.35-.48-.7-.717-1.055l-1.081-1.646Zm-4.888,2.452a12.481,12.481,0,0,1,5.213,8.875,29.64,29.64,0,0,1,.216,3.457l.014.617c.022.876.017,1.754.013,2.652l-.006,2.658-1.291.13a7.858,7.858,0,0,1-.816.041,10.6,10.6,0,0,1-7.1-18.006A2.61,2.61,0,0,1,1818.3,5307.238Zm-19.147-1.557a25.591,25.591,0,0,1,11.113-1.023l2.01.193-.842,1.835c-.232.507-.479,1.005-.725,1.5a20.471,20.471,0,0,0-1.282,2.927,13.237,13.237,0,0,0,2.37,12.44,13.4,13.4,0,0,0,11.88,4.794,2.283,2.283,0,0,1,2.18,1.012,16.923,16.923,0,0,1,2.38,7.068,14.189,14.189,0,0,1-3.786,10.425,20.435,20.435,0,0,1-13.076,6.959,32.072,32.072,0,0,1-4.592.347h-.009a23.082,23.082,0,0,1-11.45-2.86c-5.051-2.787-8.12-6.773-9.12-11.849a12.829,12.829,0,0,1,1.373-8.436l.331-.657a20.186,20.186,0,0,0,2.324-6.188c.111-.813.153-1.657.194-2.474.033-.643.063-1.189.11-1.732.04-.461.07-.923.1-1.387a26.441,26.441,0,0,1,.488-4.079A11.7,11.7,0,0,1,1799.157,5305.681Zm12.6,55.869a4.631,4.631,0,0,1-4.6,4.561,4.637,4.637,0,0,1-4.629-4.672,4.635,4.635,0,0,1,4.606-4.557,4.625,4.625,0,0,1,4.623,4.668Zm-30.168-49.519a7.6,7.6,0,0,1,3.167-6.122,7.223,7.223,0,0,1,6.451-1.069l1.94.613-1.627,2.142c-.276.354-.517.666-.741.992a17.885,17.885,0,0,0-2.976,11.111,16.723,16.723,0,0,1-1.953,8.631,18.691,18.691,0,0,0-2.517,7.905l-.056,1.292-1.294.078c-.155.009-.305.014-.455.014a7.332,7.332,0,0,1-5.8-2.866,7.727,7.727,0,0,1-1.26-7.094,14.584,14.584,0,0,1,1.752-3.378c.464-.728.984-1.4,1.488-2.049.271-.349.507-.655.74-.964A15.354,15.354,0,0,0,1781.591,5312.032Zm-2.589,55.3-1.732-2.113c-.674-.823-1.344-1.62-2-2.4-1.46-1.739-2.819-3.359-4.1-5.089a37.3,37.3,0,0,1-7.253-16.258c-1.743-10.566,1.345-19.1,9.18-25.365.643-.512,1.332-.957,1.941-1.35l.119-.077c.235-.151.471-.305.7-.462l.872-.59,2.011,1.6-.581,1.062c-.143.263-.283.533-.423.8a18.511,18.511,0,0,1-1.11,1.946c-.523.773-1.084,1.524-1.642,2.274-.517.7-.989,1.328-1.434,1.975a10.916,10.916,0,0,0-1.794,9.627,10.228,10.228,0,0,0,9.863,7.481,2.356,2.356,0,0,1,2.456,1.8,18.567,18.567,0,0,0,3.446,6.181l1.455,1.827-.976.905a28.993,28.993,0,0,0-8.244,13.6Zm52.478,2.709a111.792,111.792,0,0,1-23.141,14.818,2.868,2.868,0,0,1-2.363,0,111.6,111.6,0,0,1-23.076-14.741,2.584,2.584,0,0,1-.954-2.212,24.964,24.964,0,0,1,8.194-15.029l.7-.626L1801,5356.8l-.414,1.235c-1.392,4.166-.623,7.341,2.284,9.441a7.353,7.353,0,0,0,8.613-.041c2.911-2.157,3.644-5.359,2.183-9.517l-.466-1.326,1.317-.495c.36-.136.724-.267,1.087-.4l.188-.068c.909-.328,1.848-.663,2.717-1.053s1.728-.853,2.63-1.342c.455-.246.851-.46,1.256-.671l.866-.456.741.642a23.966,23.966,0,0,1,6.68,9.278,35.4,35.4,0,0,1,1.374,4.584l.241.956A2.621,2.621,0,0,1,1831.48,5370.038Zm18.05-24.981c-2.054,6.948-5.953,13.13-12.64,20.044l-1.722,1.78-.691-2.376a28.709,28.709,0,0,0-8.2-13.4l-1.013-.939.9-1.047a20.1,20.1,0,0,0,4.2-7.337l.235-.8.815-.194c.654-.152,1.3-.276,1.923-.4a17.193,17.193,0,0,0,3.34-.868,10.123,10.123,0,0,0,5.687-6.014,10.714,10.714,0,0,0-.709-8.612,27.223,27.223,0,0,0-2.092-3.146c-.471-.642-.926-1.264-1.353-1.9-.5-.754-.972-1.529-1.439-2.307l-1.3-2.13,2.164-1.483.787.469a24.5,24.5,0,0,1,11.243,13.9A27.763,27.763,0,0,1,1849.53,5345.057Z" transform="translate(-1760.669 -5301.708)" fill="#33c"/>
      </g>
      <g id="Grupo_16711" data-name="Grupo 16711" transform="translate(34.695 28.519)">
        <path id="Trazado_6158" data-name="Trazado 6158" d="M1798.809,5339.117a1.33,1.33,0,0,1,1.63,0,6.888,6.888,0,0,0,7.285.044,6.972,6.972,0,0,0,3.664-6.22,2.768,2.768,0,0,0-3.957-2.626,2.877,2.877,0,0,0-1.659,2.616,1.668,1.668,0,0,1-3.335-.043c-.042-1.055-.009-2.11-.009-3.146.377-.083.683-.126.977-.218a2.786,2.786,0,0,0,2-2.911,2.757,2.757,0,0,0-2.571-2.532q-3.223-.1-6.448,0a2.764,2.764,0,0,0-2.562,2.543,2.8,2.8,0,0,0,2.015,2.9c.291.091.595.14.968.224,0,1.033.017,2-.005,2.962a1.7,1.7,0,0,1-1.622,1.811,1.716,1.716,0,0,1-1.74-1.7,2.833,2.833,0,0,0-3.01-2.772,2.88,2.88,0,0,0-2.589,3.276A7.282,7.282,0,0,0,1798.809,5339.117Z" transform="translate(-1787.834 -5324.038)" fill="#30ceb3"/>
      </g>
    </g>
  </g>
</svg>
