<svg xmlns="http://www.w3.org/2000/svg" width="148" height="148" viewBox="0 0 148 148">
  <g id="Grupo_16760" data-name="Grupo 16760" transform="translate(-466 -569)">
    <g id="Elipse_81" data-name="Elipse 81" transform="translate(466 569)" stroke="#707070" stroke-width="1" opacity="0.08">
      <circle cx="74" cy="74" r="74" stroke="none"/>
      <circle cx="74" cy="74" r="73.5" fill="none"/>
    </g>
    <g id="Grupo_16636" data-name="Grupo 16636" transform="translate(475.771 578.815)">
      <g id="Grupo_16632" data-name="Grupo 16632" transform="translate(0 49.766)">
        <path id="Trazado_6083" data-name="Trazado 6083" d="M4209.287,2762.3l-1.688,1.688-12.33,12.329a2.972,2.972,0,0,1-4.2-4.2l14.089-14.088A20.078,20.078,0,0,0,4209.287,2762.3Z" transform="translate(-4190.197 -2725.788)"/>
        <path id="Trazado_6084" data-name="Trazado 6084" d="M4249.683,2724.162a20.366,20.366,0,0,1-32.8,16.145,20.377,20.377,0,0,1-7.947-16.145,20.371,20.371,0,0,1,40.743,0Z" transform="translate(-4197.798 -2703.791)"/>
        <path id="Trazado_6085" data-name="Trazado 6085" d="M4243.59,2741.256a14.418,14.418,0,1,1-20.39-20.39Z" transform="translate(-4201.853 -2710.716)" fill="#adccfa"/>
        <path id="Trazado_6086" data-name="Trazado 6086" d="M4250.7,2728.222a14.364,14.364,0,0,1-4.2,10.166L4226.108,2718a14.417,14.417,0,0,1,24.592,10.224Z" transform="translate(-4204.761 -2707.848)" fill="#fff"/>
        <path id="Trazado_6087" data-name="Trazado 6087" d="M4214.2,2758.035l-1.693,1.694a23.045,23.045,0,0,0,4.138,4.268l1.688-1.688A20.281,20.281,0,0,1,4214.2,2758.035Z" transform="translate(-4199.246 -2725.79)" fill="#262626"/>
      </g>
      <g id="Grupo_16633" data-name="Grupo 16633" transform="translate(0.104 0)">
        <path id="Trazado_6088" data-name="Trazado 6088" d="M4257.53,2620.1a64.088,64.088,0,0,0-63.917,48.307,1.635,1.635,0,1,0,3.17.8,60.819,60.819,0,0,1,60.655-45.838,60.795,60.795,0,1,1-41.971,106.322l2.162-2.28a.832.832,0,0,0-.55-1.4l-7.25-.471a.832.832,0,0,0-.881.929l.854,7.215a.833.833,0,0,0,1.432.475l1.983-2.09a63.733,63.733,0,0,0,40.714,16.115q.914.025,1.824.025a64.065,64.065,0,0,0,1.775-128.1Z" transform="translate(-4191.666 -2620.074)" fill="#262626"/>
        <path id="Trazado_6089" data-name="Trazado 6089" d="M4193.665,2720.832c.04-1.416.129-2.854.268-4.273a1.635,1.635,0,1,0-3.254-.317c-.146,1.494-.241,3.008-.282,4.5a64.711,64.711,0,0,0,.451,9.667,1.635,1.635,0,0,0,3.245-.4A61.419,61.419,0,0,1,4193.665,2720.832Z" transform="translate(-4190.371 -2658.476)" fill="#262626"/>
      </g>
      <g id="Grupo_16635" data-name="Grupo 16635" transform="translate(45.138 17.172)">
        <g id="Grupo_16634" data-name="Grupo 16634">
          <path id="Rect치ngulo_2179" data-name="Rect치ngulo 2179" d="M3.1,0H21.948a3.1,3.1,0,0,1,3.1,3.1V37.636a3.1,3.1,0,0,1-3.1,3.1H3.1a3.1,3.1,0,0,1-3.1-3.1V3.1A3.1,3.1,0,0,1,3.1,0Z" transform="translate(15.791 54.088)" fill="#30ceb3"/>
          <path id="Trazado_6090" data-name="Trazado 6090" d="M4325.226,2746.229v7.134h-3.667a2.349,2.349,0,0,1-2.348-2.348v-5.564h5.237A.778.778,0,0,1,4325.226,2746.229Z" transform="translate(-4287.656 -2688.092)" fill="#fff"/>
          <path id="Trazado_6091" data-name="Trazado 6091" d="M4313.033,2756.632h3.668V2775.6a.779.779,0,0,1-.779.784h-16.948a.784.784,0,0,1-.785-.784v-29.366a.783.783,0,0,1,.785-.779h8.441v5.564A5.624,5.624,0,0,0,4313.033,2756.632Z" transform="translate(-4279.131 -2688.092)" fill="#fff"/>
          <path id="Trazado_6092" data-name="Trazado 6092" d="M4314.136,2803.354a1.169,1.169,0,1,1-1.169-1.169A1.17,1.17,0,0,1,4314.136,2803.354Z" transform="translate(-4284.65 -2711.101)" fill="#fff"/>
          <path id="Trazado_6093" data-name="Trazado 6093" d="M4304.347,2650.445V2673.8a1.275,1.275,0,0,1-1.278,1.273h-35.661a1.275,1.275,0,0,1-1.278-1.273v-23.356a1.268,1.268,0,0,1,.452-.975l16.965,15.432a2.514,2.514,0,0,0,3.382,0l16.965-15.432A1.269,1.269,0,0,1,4304.347,2650.445Z" transform="translate(-4266.13 -2649.167)" fill="#30ceb3"/>
          <path id="Trazado_6094" data-name="Trazado 6094" d="M4304.353,2650.445v1.825l-.006.006v1.2l-11.937,10.86,4.333,3.941,2.551,2.324,4.6,4.185a1.221,1.221,0,0,1-.826.3h-35.661a1.23,1.23,0,0,1-.826-.3l11.491-10.445-11.943-10.866v-3.032a1.236,1.236,0,0,1,.024-.22,1.28,1.28,0,0,1,.422-.749l.006-.006,13.921,12.662,3.044,2.77a2.509,2.509,0,0,0,3.382,0l3.049-2.77,13.916-12.662a1.256,1.256,0,0,1,.2.226A1.211,1.211,0,0,1,4304.353,2650.445Z" transform="translate(-4266.13 -2649.167)" fill="#29a58d"/>
          <path id="Trazado_6095" data-name="Trazado 6095" d="M4304.2,2649.264l-13.916,12.661-3.05,2.771a2.51,2.51,0,0,1-3.382,0l-3.044-2.771-13.922-12.661a1.215,1.215,0,0,1,.826-.3h35.661A1.229,1.229,0,0,1,4304.2,2649.264Z" transform="translate(-4266.438 -2648.961)" fill="#30ceb3"/>
          <path id="Rect치ngulo_2180" data-name="Rect치ngulo 2180" d="M3.948,0H28.754A3.949,3.949,0,0,1,32.7,3.949V40.012a3.949,3.949,0,0,1-3.949,3.949H3.949A3.949,3.949,0,0,1,0,40.012V3.948A3.948,3.948,0,0,1,3.948,0Z" transform="translate(31.553 21.308)" fill="#30ceb3"/>
          <path id="Trazado_6096" data-name="Trazado 6096" d="M4349,2716.737h-19.821a1.189,1.189,0,0,1,0-2.378H4349a1.189,1.189,0,1,1,0,2.378Z" transform="translate(-4291.217 -2675.483)" fill="#fff"/>
          <path id="Trazado_6097" data-name="Trazado 6097" d="M4349,2726.351h-19.821a1.189,1.189,0,0,1,0-2.378H4349a1.189,1.189,0,1,1,0,2.378Z" transform="translate(-4291.217 -2679.382)" fill="#fff"/>
        </g>
        <path id="Trazado_6098" data-name="Trazado 6098" d="M4323,2751.131v3.27h3.269v-3.27Zm-9.286-7.912h3.269v-3.27h-3.269Z" transform="translate(-4285.426 -2685.862)" fill="#29a58d"/>
        <path id="Trazado_6099" data-name="Trazado 6099" d="M4323,2753.362v3.269h-3.668a5.624,5.624,0,0,1-5.618-5.617v-5.564h3.269v5.564a2.349,2.349,0,0,0,2.349,2.348Z" transform="translate(-4285.426 -2688.092)" fill="#ffcaac"/>
        <path id="Trazado_6100" data-name="Trazado 6100" d="M4325.233,2679.31v3.27h-4.316a2.176,2.176,0,0,0-.737.125l-2.55-2.324a5.559,5.559,0,0,1,3.287-1.07Z" transform="translate(-4287.016 -2661.269)" fill="#29a58d"/>
        <path id="Trazado_6101" data-name="Trazado 6101" d="M4318.59,2683.434a2.323,2.323,0,0,0-1.611,2.218v2.253h-3.269v-2.253a5.581,5.581,0,0,1,2.33-4.542Z" transform="translate(-4285.426 -2661.999)" fill="#30ceb3"/>
      </g>
    </g>
  </g>
</svg>
