<svg xmlns="http://www.w3.org/2000/svg" width="148" height="148" viewBox="0 0 148 148">
  <g id="Grupo_16761" data-name="Grupo 16761" transform="translate(-735 -569)">
    <g id="Elipse_82" data-name="Elipse 82" transform="translate(735 569)" stroke="#707070" stroke-width="1" opacity="0.08">
      <circle cx="74" cy="74" r="74" stroke="none"/>
      <circle cx="74" cy="74" r="73.5" fill="none"/>
    </g>
    <g id="Grupo_16629" data-name="Grupo 16629" transform="translate(751.901 578.815)">
      <g id="Grupo_16624" data-name="Grupo 16624" transform="translate(67.902 30.196)">
        <path id="Trazado_6057" data-name="Trazado 6057" d="M4342.339,3137.335l-2.051,15.373a1.277,1.277,0,0,0,1.26,1.444h1.712a1.278,1.278,0,0,0,1.129-1.438Z" transform="translate(-4336.185 -3055.984)" fill="#33c"/>
        <path id="Trazado_6058" data-name="Trazado 6058" d="M4382.9,3051.214l.013-.018-5.522-5.522a21.043,21.043,0,0,0-14.868-6.158h-5.654a20.984,20.984,0,0,0-13.137,4.619,18.509,18.509,0,0,1,1.742,1.545L4351,3051.2l-.012.018a10.182,10.182,0,0,1,0,14.392l-7.24,6.6,3.02,2.758-3.026,22.69,2.051,15.378a1.278,1.278,0,0,1-1.129,1.438h6.046a1.275,1.275,0,0,0,1.26-1.1l4.2-30.5a3.883,3.883,0,0,1,.494-1.427,3.56,3.56,0,0,1,6.063,0,4,4,0,0,1,.5,1.427l4.2,30.5a1.274,1.274,0,0,0,1.26,1.1h7.757a1.277,1.277,0,0,0,1.26-1.444l-5.076-38.063,10.271-9.369A10.181,10.181,0,0,0,4382.9,3051.214Zm-8.756,8.75-3.245,3.252-1.4-10.23a.315.315,0,0,1,.535-.267l4.107,4.107A2.216,2.216,0,0,1,4374.147,3059.964Z" transform="translate(-4337.587 -3016.314)" fill="#33c"/>
        <path id="Trazado_6059" data-name="Trazado 6059" d="M4363.9,3020.079h0a9.8,9.8,0,0,0,9.8-9.8h0a9.8,9.8,0,0,0-9.8-9.8h0a9.8,9.8,0,0,0-9.8,9.8h0A9.8,9.8,0,0,0,4363.9,3020.079Z" transform="translate(-4341.792 -3000.485)" fill="#33c"/>
        <path id="Trazado_6060" data-name="Trazado 6060" d="M4353.457,3069.767l-.053.054-.055.054-7.026,6.4-2.42-2.211,7.24-6.6a10.188,10.188,0,0,0,0-14.4l.012-.012-5.522-5.522a18.345,18.345,0,0,0-1.741-1.546,19.022,19.022,0,0,1,2.829-1.908c.421.363.826.743,1.225,1.142l5.522,5.522,1.729,2.152A13.476,13.476,0,0,1,4353.457,3069.767Z" transform="translate(-4337.65 -3018.163)" fill="#2a378f"/>
        <path id="Trazado_6061" data-name="Trazado 6061" d="M4348.886,3145.716h-4.221a1.283,1.283,0,0,0,1.128-1.444l-2.051-15.373,1.647-12.364,3.645,27.309A4.441,4.441,0,0,1,4348.886,3145.716Z" transform="translate(-4337.59 -3047.55)" fill="#2a378f"/>
        <path id="Trazado_6062" data-name="Trazado 6062" d="M4338.038,3068.913l-3.246,3.252-1.4-10.231a.315.315,0,0,1,.535-.267l4.107,4.108A2.218,2.218,0,0,1,4338.038,3068.913Z" transform="translate(-4333.392 -3025.259)" fill="#2a378f"/>
      </g>
      <g id="Grupo_16625" data-name="Grupo 16625" transform="translate(0 30.196)">
        <path id="Trazado_6063" data-name="Trazado 6063" d="M4288.65,3137.335l-2.05,15.378a1.278,1.278,0,0,0,1.128,1.438h1.712a1.277,1.277,0,0,0,1.26-1.444Z" transform="translate(-4246.509 -3055.984)" fill="#33c"/>
        <path id="Trazado_6064" data-name="Trazado 6064" d="M4261.307,3097.664l-3.025-22.69,3.02-2.758-7.24-6.6a10.183,10.183,0,0,1,0-14.392l-.012-.018,5.522-5.523a19.486,19.486,0,0,1,1.742-1.552,21.011,21.011,0,0,0-13.137-4.613h-5.653a21.03,21.03,0,0,0-14.867,6.158l-5.523,5.522.012.018a10.182,10.182,0,0,0,0,14.391l10.272,9.369-5.076,38.063a1.277,1.277,0,0,0,1.26,1.444h7.757a1.275,1.275,0,0,0,1.26-1.1l4.2-30.5a3.9,3.9,0,0,1,.494-1.427,3.559,3.559,0,0,1,6.063,0,3.779,3.779,0,0,1,.5,1.427l4.2,30.5a1.274,1.274,0,0,0,1.26,1.1h6.046a1.278,1.278,0,0,1-1.129-1.438Zm-27.161-34.448-3.246-3.252a2.218,2.218,0,0,1,0-3.139l4.108-4.107a.315.315,0,0,1,.535.267Z" transform="translate(-4219.166 -3016.314)" fill="#33c"/>
        <path id="Trazado_6065" data-name="Trazado 6065" d="M4256.527,3020.079h0a9.8,9.8,0,0,1-9.8-9.8h0a9.8,9.8,0,0,1,9.8-9.8h0a9.8,9.8,0,0,1,9.8,9.8h0A9.8,9.8,0,0,1,4256.527,3020.079Z" transform="translate(-4230.345 -3000.485)" fill="#33c"/>
        <path id="Trazado_6066" data-name="Trazado 6066" d="M4285.505,3145.728h-4.221a4.509,4.509,0,0,1-.148-1.873l3.644-27.3,1.646,12.353-2.052,15.372A1.286,1.286,0,0,0,4285.505,3145.728Z" transform="translate(-4244.283 -3047.559)" fill="#2a378f"/>
        <path id="Trazado_6067" data-name="Trazado 6067" d="M4273.765,3067.461l7.24,6.6-2.419,2.211-7.021-6.4-.059-.054-.054-.054a13.475,13.475,0,0,1-1.736-16.876l1.724-2.152,5.523-5.522c.4-.4.8-.779,1.224-1.142a19.479,19.479,0,0,1,2.83,1.9,19.484,19.484,0,0,0-1.742,1.552l-5.522,5.522.012.012A10.189,10.189,0,0,0,4273.765,3067.461Z" transform="translate(-4238.778 -3018.163)" fill="#2a378f"/>
        <path id="Trazado_6068" data-name="Trazado 6068" d="M4296.8,3061.934l-1.4,10.231-3.245-3.252a2.216,2.216,0,0,1,0-3.138l4.107-4.108A.314.314,0,0,1,4296.8,3061.934Z" transform="translate(-4248.502 -3025.259)" fill="#2a378f"/>
      </g>
      <g id="Grupo_16627" data-name="Grupo 16627" transform="translate(24.663 0)">
        <g id="Grupo_16626" data-name="Grupo 16626" transform="translate(21.011)">
          <path id="Trazado_6069" data-name="Trazado 6069" d="M4320.851,2963.389v-1.966a.673.673,0,0,0-.529-.657l-1.374-.3a.669.669,0,0,1-.513-.518,10.164,10.164,0,0,0-1.087-2.878.674.674,0,0,1,.019-.693l.838-1.308a.671.671,0,0,0-.092-.838l-1.39-1.39a.672.672,0,0,0-.838-.091l-1.169.749a.672.672,0,0,1-.729,0,10.167,10.167,0,0,0-2.82-1.266.672.672,0,0,1-.477-.5l-.331-1.509a.672.672,0,0,0-.657-.528h-1.966a.672.672,0,0,0-.657.528l-.3,1.366a.671.671,0,0,1-.514.513,10.118,10.118,0,0,0-2.869,1.1.672.672,0,0,1-.695-.017l-1.32-.846a.673.673,0,0,0-.839.091l-1.39,1.39a.671.671,0,0,0-.091.838l.773,1.208a.673.673,0,0,1,0,.725,10.148,10.148,0,0,0-1.234,2.771.67.67,0,0,1-.5.478l-1.568.344a.672.672,0,0,0-.529.657v1.967a.674.674,0,0,0,.529.657l1.436.314a.672.672,0,0,1,.511.512,10.114,10.114,0,0,0,1.073,2.8.673.673,0,0,1-.019.693l-.885,1.381a.673.673,0,0,0,.091.839l1.389,1.39a.676.676,0,0,0,.84.091l1.254-.8a.671.671,0,0,1,.726,0,10.164,10.164,0,0,0,2.719,1.223.672.672,0,0,1,.474.5l.353,1.609a.673.673,0,0,0,.658.528h1.966a.671.671,0,0,0,.657-.528l.317-1.443a.672.672,0,0,1,.517-.513,10.154,10.154,0,0,0,2.806-1.058.672.672,0,0,1,.689.02l1.369.876a.673.673,0,0,0,.839-.091l1.39-1.39a.673.673,0,0,0,.091-.839l-.778-1.216a.673.673,0,0,1,0-.73,10.186,10.186,0,0,0,1.255-2.768.672.672,0,0,1,.5-.472l1.548-.339A.672.672,0,0,0,4320.851,2963.389Z" transform="translate(-4296.001 -2949.688)" fill="#262626"/>
          <ellipse id="Elipse_172" data-name="Elipse 172" cx="5.832" cy="5.832" rx="5.832" ry="5.832" transform="translate(5.408 16.761) rotate(-76.717)" fill="#fff"/>
        </g>
        <path id="Trazado_6070" data-name="Trazado 6070" d="M4262.292,2981.826a1.681,1.681,0,0,1-.225-.015,1.635,1.635,0,0,1-1.4-1.843,14.106,14.106,0,0,1,13.927-12.129,1.635,1.635,0,0,1,0,3.27,10.823,10.823,0,0,0-10.688,9.305A1.635,1.635,0,0,1,4262.292,2981.826Z" transform="translate(-4260.655 -2957.049)" fill="#262626"/>
        <path id="Trazado_6071" data-name="Trazado 6071" d="M4359.718,2981.854a1.635,1.635,0,0,1-1.618-1.416,10.819,10.819,0,0,0-10.692-9.329,1.635,1.635,0,0,1,0-3.27A14.1,14.1,0,0,1,4361.34,2980a1.635,1.635,0,0,1-1.4,1.839A1.756,1.756,0,0,1,4359.718,2981.854Z" transform="translate(-4295.174 -2957.049)" fill="#262626"/>
      </g>
      <g id="Grupo_16628" data-name="Grupo 16628" transform="translate(31.916 30.196)">
        <path id="Trazado_6072" data-name="Trazado 6072" d="M4322.244,3065.615a10.183,10.183,0,0,0,0-14.392l.011-.018-5.522-5.523a18.509,18.509,0,0,0-1.742-1.545,20.955,20.955,0,0,0-13.125-4.613h-5.653a20.987,20.987,0,0,0-13.125,4.607,19.413,19.413,0,0,0-1.741,1.552l-5.523,5.523.012.018a10.182,10.182,0,0,0,0,14.392l7.24,6.6,3.032,2.764-3.026,22.684-2.05,15.378a1.278,1.278,0,0,0,1.129,1.439.978.978,0,0,0,.131.006h7.757a1.273,1.273,0,0,0,1.26-1.1l4.2-30.5a3.921,3.921,0,0,1,.494-1.433,3.564,3.564,0,0,1,6.063,0,3.814,3.814,0,0,1,.5,1.433l4.2,30.5a1.275,1.275,0,0,0,1.261,1.1h7.758a.978.978,0,0,0,.131-.006,1.278,1.278,0,0,0,1.129-1.439L4315,3097.668l-3.026-22.684,3.032-2.764Zm-34.407-2.389-3.246-3.252a2.217,2.217,0,0,1,0-3.138l4.107-4.108a.314.314,0,0,1,.536.261Zm21.542-10.5,4.108,4.108a2.217,2.217,0,0,1,0,3.138l-3.246,3.252-1.4-10.237A.314.314,0,0,1,4309.379,3052.728Z" transform="translate(-4272.856 -3016.318)" fill="#30ceb3"/>
        <path id="Trazado_6073" data-name="Trazado 6073" d="M4310.217,3020.079h0a9.8,9.8,0,0,1-9.8-9.8h0a9.8,9.8,0,0,1,9.8-9.8h0a9.8,9.8,0,0,1,9.8,9.8h0A9.8,9.8,0,0,1,4310.217,3020.079Z" transform="translate(-4284.036 -3000.485)" fill="#30ceb3"/>
        <path id="Trazado_6074" data-name="Trazado 6074" d="M4340.374,3086.533l-1.76-11.974-2.866,2.875,1.73,11.758Z" transform="translate(-4298.362 -3030.526)" fill="#29a58d"/>
        <path id="Trazado_6075" data-name="Trazado 6075" d="M4293.169,3089.192l1.73-11.758-2.867-2.875-1.761,11.986Z" transform="translate(-4279.919 -3030.526)" fill="#29a58d"/>
      </g>
    </g>
  </g>
</svg>
