<svg xmlns="http://www.w3.org/2000/svg" width="148" height="148" viewBox="0 0 148 148">
  <g id="Grupo_16759" data-name="Grupo 16759" transform="translate(-200 -569)">
    <g id="Elipse_80" data-name="Elipse 80" transform="translate(200 569)" stroke="#707070" stroke-width="1" opacity="0.08">
      <circle cx="74" cy="74" r="74" stroke="none"/>
      <circle cx="74" cy="74" r="73.5" fill="none"/>
    </g>
    <g id="Grupo_16631" data-name="Grupo 16631" transform="translate(212.546 578.815)">
      <rect id="Rectángulo_2176" data-name="Rectángulo 2176" width="35.399" height="74.003" rx="3" transform="translate(84.979 54.345)" fill="#30ceb3"/>
      <rect id="Rectángulo_2177" data-name="Rectángulo 2177" width="35.395" height="37" rx="3" transform="translate(42.529 91.345)" fill="#33c"/>
      <rect id="Rectángulo_2178" data-name="Rectángulo 2178" width="35.395" height="18.501" rx="3" transform="translate(0 109.845)" fill="#adccfa"/>
      <path id="Trazado_6076" data-name="Trazado 6076" d="M4294.745,3335.388l-4.917-5.146a1.391,1.391,0,0,0-2.4.961v3.511h-.161a26.263,26.263,0,0,0-26.233,26.233v9.321h-9.153a24.957,24.957,0,0,0-24.929,24.929v8.125a1.635,1.635,0,1,0,3.27,0V3395.2a21.683,21.683,0,0,1,21.66-21.659h10.789a1.635,1.635,0,0,0,1.635-1.635v-10.956a22.989,22.989,0,0,1,22.962-22.963h.161v3.512a1.385,1.385,0,0,0,.874,1.291,1.4,1.4,0,0,0,.52.1,1.386,1.386,0,0,0,1-.431l4.917-5.146A1.387,1.387,0,0,0,4294.745,3335.388Z" transform="translate(-4218.969 -3303.89)" fill="#262626"/>
      <g id="Grupo_16630" data-name="Grupo 16630" transform="translate(82.45 0)">
        <path id="Trazado_6077" data-name="Trazado 6077" d="M4388.054,3312.6h-3.272l.231-3.751a1.752,1.752,0,0,0-1.749-1.86H4361.1a1.751,1.751,0,0,0-1.748,1.86l.231,3.751h-2.735a4.627,4.627,0,0,0-2.991,8.162l4.06,3.436,2.627,2.223.007.006a11.868,11.868,0,0,0,8.178,9.011,2.078,2.078,0,0,1,1.443,1.855l.608,8.672a.594.594,0,0,1-.593.636h-5.246a.594.594,0,0,0-.594.594v1.189a.6.6,0,0,0,.594.594h14.476a.6.6,0,0,0,.595-.594V3347.2a.6.6,0,0,0-.595-.594h-5.245a.6.6,0,0,1-.593-.636l.607-8.672a2.078,2.078,0,0,1,1.443-1.855,11.872,11.872,0,0,0,8.049-8.447l.007-.006,2.728-2.312,4.626-3.912a4.631,4.631,0,0,0-2.991-8.162Zm-30.334,8.316-2.325-1.968a2.252,2.252,0,0,1,1.458-3.97h2.881l.5,8.057Zm31.785-1.968-2.882,2.437-2.512,2.119.525-8.527h3.419a2.252,2.252,0,0,1,1.45,3.97Z" transform="translate(-4352.22 -3294.634)" fill="#30ceb3"/>
        <path id="Trazado_6078" data-name="Trazado 6078" d="M4384.576,3293.445a1.635,1.635,0,0,1-1.635-1.635v-3.969a1.635,1.635,0,0,1,3.27,0v3.969A1.635,1.635,0,0,1,4384.576,3293.445Z" transform="translate(-4364.679 -3286.206)" fill="#f2a933"/>
        <path id="Trazado_6079" data-name="Trazado 6079" d="M4398.642,3296.719a1.636,1.636,0,0,1-1.453-2.381l1.837-3.587a1.635,1.635,0,0,1,2.911,1.491l-1.838,3.587A1.635,1.635,0,0,1,4398.642,3296.719Z" transform="translate(-4370.384 -3287.688)" fill="#f2a933"/>
        <path id="Trazado_6080" data-name="Trazado 6080" d="M4370.356,3296.227a1.635,1.635,0,0,1-1.481-.941l-1.708-3.641a1.635,1.635,0,1,1,2.959-1.389l1.708,3.641a1.635,1.635,0,0,1-1.479,2.329Z" transform="translate(-4358.22 -3287.468)" fill="#f2a933"/>
        <path id="Trazado_6081" data-name="Trazado 6081" d="M4363.739,3328.643l-.107-1.778-2.515-2.122.2,3.281,2.627,2.223A11.848,11.848,0,0,1,4363.739,3328.643Zm-.755-12.216H4360.6l.149,2.378h2.384Zm25.194,0-.144,2.378h2.384l.149-2.378Zm-.672,10.908-.078,1.308a11.939,11.939,0,0,1-.338,2.169l2.728-2.312.2-3.287Z" transform="translate(-4355.619 -3298.462)" fill="#29a58d"/>
        <path id="Trazado_6082" data-name="Trazado 6082" d="M4387.784,3325.921a6.589,6.589,0,1,1-6.589-6.589A6.589,6.589,0,0,1,4387.784,3325.921Z" transform="translate(-4361.298 -3299.64)" fill="#fff"/>
        <ellipse id="Elipse_173" data-name="Elipse 173" cx="3.269" cy="3.269" rx="3.269" ry="3.269" transform="translate(16.627 23.012)" fill="#f2a933"/>
      </g>
    </g>
  </g>
</svg>
