<svg xmlns="http://www.w3.org/2000/svg" width="30.882" height="30.882" viewBox="0 0 30.882 30.882">
  <g id="Grupo_18298" data-name="Grupo 18298" transform="translate(-8361.118 -5267.948)">
    <ellipse id="Elipse_495" data-name="Elipse 495" cx="15.441" cy="15.441" rx="15.441" ry="15.441" transform="translate(8361.118 5267.948)" fill="#fceed6"/>
    <g id="Grupo_17561" data-name="Grupo 17561" transform="translate(8364.303 5271.135)">
      <g id="Grupo_17517" data-name="Grupo 17517" transform="translate(0 0)">
        <path id="Trazado_7274" data-name="Trazado 7274" d="M1496.644,915.084a7.214,7.214,0,0,0-5.63,6.861,7.132,7.132,0,0,0,1.757,4.9,7.072,7.072,0,0,1,1.386,2.273c.185.53.3,1.082.456,1.639h.708v-.006h6.455c.158-.561.282-1.106.465-1.63a8.384,8.384,0,0,1,1.542-2.486,7.179,7.179,0,0,0,.507-8.3A7.257,7.257,0,0,0,1496.644,915.084Z" transform="translate(-1485.939 -913.492)" fill="#fff"/>
        <path id="Trazado_7275" data-name="Trazado 7275" d="M1498.391,913.492a8.388,8.388,0,0,0-6.214,2.438,8.727,8.727,0,0,0-1.951,9.513,10.228,10.228,0,0,0,1.668,2.607,4.971,4.971,0,0,1,1.2,2.667,20.259,20.259,0,0,1,.07,2.078,2.175,2.175,0,0,0,1.306,2.1.3.3,0,0,1,.128.212c.016.23,0,.462.007.693a2.168,2.168,0,0,0,.885,1.771,2.557,2.557,0,0,0,1.077.424h3.255a.506.506,0,0,1,.09-.033,2.042,2.042,0,0,0,1.787-1.6,5.973,5.973,0,0,0,.083-1.236.239.239,0,0,1,.155-.252,2.108,2.108,0,0,0,1.283-1.99c.011-.447-.032-.9.011-1.34a10.426,10.426,0,0,1,.27-1.665,6.682,6.682,0,0,1,1.409-2.364,8.4,8.4,0,0,0,1.788-6.751A8.627,8.627,0,0,0,1498.391,913.492Zm1.935,22.476a.676.676,0,0,1-.682.588q-1.457.013-2.915,0a.693.693,0,0,1-.687-.665c-.016-.26,0-.522,0-.8h4.294A7.917,7.917,0,0,1,1500.326,935.968Zm1.424-2.882a.682.682,0,0,1-.734.553c-.924,0-1.849,0-2.773,0h-2.8a.745.745,0,0,1-.844-.854c0-.182,0-.364,0-.573h7.159A5.928,5.928,0,0,1,1501.75,933.086Zm2.029-6.449a8.384,8.384,0,0,0-1.542,2.486c-.183.524-.307,1.069-.465,1.629h-6.454v.006h-.708c-.153-.557-.271-1.109-.456-1.639a7.071,7.071,0,0,0-1.386-2.273,7.133,7.133,0,0,1-1.758-4.9,7.181,7.181,0,1,1,12.768,4.7Z" transform="translate(-1485.936 -913.49)" fill="#f2a933"/>
        <path id="Trazado_7276" data-name="Trazado 7276" d="M1509.525,922.162c-.381.025-.764,0-1.146.006a.718.718,0,1,0,0,1.434c.382.006.766-.018,1.146.007a.892.892,0,0,0,.964-.531V922.7A.879.879,0,0,0,1509.525,922.162Z" transform="translate(-1485.973 -913.508)" fill="#f2a933"/>
        <path id="Trazado_7277" data-name="Trazado 7277" d="M1487.347,919.562a.717.717,0,1,0,1.013-1.013c-.32-.334-.643-.668-.986-.977a1.817,1.817,0,0,0-.432-.24.756.756,0,0,0-.738.436.671.671,0,0,0,.131.775Q1486.83,919.065,1487.347,919.562Z" transform="translate(-1485.928 -913.498)" fill="#f2a933"/>
        <path id="Trazado_7278" data-name="Trazado 7278" d="M1509.061,919.565c.334-.319.668-.642.977-.984a1.838,1.838,0,0,0,.242-.431.754.754,0,0,0-.429-.741.679.679,0,0,0-.8.141c-.344.331-.685.667-1.015,1.014a.715.715,0,1,0,1.021,1Z" transform="translate(-1485.974 -913.498)" fill="#f2a933"/>
        <path id="Trazado_7279" data-name="Trazado 7279" d="M1487.473,926.11c-.42.377-.818.781-1.2,1.2a.619.619,0,0,0-.056.721.731.731,0,0,0,.709.4.851.851,0,0,0,.326-.133c.412-.386.821-.779,1.2-1.2a.7.7,0,0,0-.979-.985Z" transform="translate(-1485.928 -913.516)" fill="#f2a933"/>
        <path id="Trazado_7280" data-name="Trazado 7280" d="M1508.984,926.141a.707.707,0,0,0-1,.988c.364.4.751.781,1.15,1.149a.635.635,0,0,0,.741.071.743.743,0,0,0,.4-.717,1.2,1.2,0,0,0-.178-.375C1509.743,926.871,1509.373,926.5,1508.984,926.141Z" transform="translate(-1485.974 -913.516)" fill="#f2a933"/>
        <path id="Trazado_7281" data-name="Trazado 7281" d="M1488.074,922.17c-.471-.008-.942-.007-1.412,0a.716.716,0,1,0-.012,1.431c.231.008.463,0,.695,0,.247,0,.495.007.742,0a.716.716,0,1,0-.013-1.431Z" transform="translate(-1485.928 -913.508)" fill="#f2a933"/>
        <path id="Trazado_7282" data-name="Trazado 7282" d="M1494.611,932.252c0,.209,0,.391,0,.573a.745.745,0,0,0,.844.854h2.8c.924,0,1.849,0,2.773,0a.682.682,0,0,0,.735-.553,5.962,5.962,0,0,0,.009-.873Z" transform="translate(-1485.946 -913.529)" fill="#fff"/>
        <path id="Trazado_7283" data-name="Trazado 7283" d="M1496.053,935.131c0,.282-.013.544,0,.8a.693.693,0,0,0,.688.665q1.458.016,2.915,0a.675.675,0,0,0,.681-.588,7.857,7.857,0,0,0,.007-.882Z" transform="translate(-1485.949 -913.535)" fill="#fff"/>
      </g>
      <path id="Trazado_7284" data-name="Trazado 7284" d="M1500.869,923.718c.167.52.333,1.013.484,1.512a1.166,1.166,0,0,1-.4,1.4,1.193,1.193,0,0,1-1.46-.054c-.429-.3-.848-.614-1.285-.93-.44.319-.859.633-1.289.932a1.193,1.193,0,0,1-1.461.05,1.175,1.175,0,0,1-.4-1.4c.151-.5.317-.993.484-1.513-.436-.319-.862-.622-1.277-.938a1.182,1.182,0,0,1,.7-2.187c.521-.02,1.175.147,1.526-.107s.393-.926.57-1.415a1.18,1.18,0,0,1,2.3,0c.176.489.219,1.163.568,1.415s1,.087,1.526.107a1.187,1.187,0,0,1,.7,2.192C1501.733,923.1,1501.306,923.4,1500.869,923.718Zm-4.74,1.944c.618-.425,1.112-.749,1.589-1.1a.734.734,0,0,1,.987.018c.464.357.945.692,1.526,1.113-.2-.673-.338-1.214-.521-1.739a.824.824,0,0,1,.367-1.108c.452-.285.868-.626,1.3-.942l-.033-.167c-.57,0-1.142-.017-1.711.005a.737.737,0,0,1-.828-.606c-.169-.575-.37-1.141-.6-1.828-.234.7-.435,1.257-.608,1.827a.74.74,0,0,1-.831.6c-.568-.025-1.139-.006-1.708-.006a6.9,6.9,0,0,0,1.286,1.128.806.806,0,0,1,.336,1.073C1496.493,924.455,1496.343,924.987,1496.129,925.662Z" transform="translate(-1485.944 -913.499)" fill="#f2a933"/>
    </g>
  </g>
</svg>
