<svg xmlns="http://www.w3.org/2000/svg" width="30.743" height="30.743" viewBox="0 0 30.743 30.743">
  <g id="Grupo_18296" data-name="Grupo 18296" transform="translate(-7122 -5674)">
    <ellipse id="Elipse_478" data-name="Elipse 478" cx="15.371" cy="15.371" rx="15.371" ry="15.371" transform="translate(7122 5674)" fill="#fbd4e7"/>
    <g id="Grupo_17505" data-name="Grupo 17505" transform="translate(7127 5678)">
      <rect id="Rectángulo_2660" data-name="Rectángulo 2660" width="20.154" height="13.801" rx="2.25" transform="translate(0.917 3.85)" fill="#fff"/>
      <g id="Grupo_17504" data-name="Grupo 17504" transform="translate(0 0)">
        <path id="Trazado_7213" data-name="Trazado 7213" d="M99.879,1289.092a1,1,0,0,1-.512-.549.851.851,0,0,1,.821-1.125c.9-.009,1.8,0,2.7,0h.274V1285.7h-.247q-3.186,0-6.373,0a3.393,3.393,0,0,1-3.293-2.318,3.748,3.748,0,0,1-.189-1.156q-.023-4.248-.006-8.5a3.426,3.426,0,0,1,3.485-3.477c1.952-.006,3.9,0,5.857,0a.862.862,0,1,1,.007,1.715c-1.945,0-3.89,0-5.835,0a1.7,1.7,0,0,0-1.736,1.286,2.044,2.044,0,0,0-.062.53q-.006,4.2,0,8.39a1.721,1.721,0,0,0,1.806,1.808q7.467,0,14.932,0a1.716,1.716,0,0,0,1.8-1.667.86.86,0,0,1,1.693-.254.166.166,0,0,0,.026.034v.558c-.062.24-.106.486-.187.72a3.422,3.422,0,0,1-3.289,2.326c-2.13.005-4.26,0-6.39,0h-.249v1.714h.24c.915,0,1.83-.006,2.745,0a.847.847,0,0,1,.825,1.1.982.982,0,0,1-.517.569Z" transform="translate(-93.053 -1267.159)" fill="#ea2788"/>
        <path id="Trazado_7214" data-name="Trazado 7214" d="M114.521,1278.1a2.191,2.191,0,0,1-.261.433.794.794,0,0,1-.907.191.821.821,0,0,1-.545-.754c-.013-.192,0-.385,0-.577,0-1.136.005-2.271,0-3.406a6.372,6.372,0,0,0-.075-.871.868.868,0,0,1,.684-1.005.85.85,0,0,1,.99.643c.046.178.081.36.121.539Z" transform="translate(-92.547 -1267.112)" fill="#ea2788"/>
        <path id="Trazado_7215" data-name="Trazado 7215" d="M101.452,1282.308A6.932,6.932,0,0,1,97.418,1281a.842.842,0,0,1,.1-1.477,2.479,2.479,0,0,0,1.027-.747,4.958,4.958,0,0,0,.413-.77c.251-.59.431-1.217.731-1.78a3.809,3.809,0,0,1,3.3-2.082.413.413,0,0,0,.263-.133q2.412-2.9,4.815-5.814a2.573,2.573,0,0,1,4.576,1.681,2.457,2.457,0,0,1-.58,1.557q-2.523,3.048-5.049,6.094a.485.485,0,0,0-.121.279,4.021,4.021,0,0,1-2,3.591,5.494,5.494,0,0,1-2.683.861C101.94,1282.281,101.661,1282.3,101.452,1282.308Zm-1.914-2.058a9.294,9.294,0,0,0,1.053.266,5.014,5.014,0,0,0,3.17-.44,2.42,2.42,0,0,0,1.4-1.877,2.087,2.087,0,0,0-3.311-1.919,2.8,2.8,0,0,0-.948,1.419A6.181,6.181,0,0,1,99.538,1280.25Zm6.726-4.5.619-.745q1.909-2.3,3.82-4.6a.85.85,0,0,0,.211-.755.858.858,0,0,0-1.524-.345l-2.829,3.419L105,1274.6Z" transform="translate(-92.95 -1267.237)" fill="#ea2788"/>
        <path id="Trazado_7216" data-name="Trazado 7216" d="M99.475,1280.034a6.182,6.182,0,0,0,1.367-2.552,2.8,2.8,0,0,1,.948-1.419,2.087,2.087,0,0,1,3.311,1.919,2.421,2.421,0,0,1-1.4,1.877,5.015,5.015,0,0,1-3.17.44A9.346,9.346,0,0,1,99.475,1280.034Z" transform="translate(-92.888 -1267.02)" fill="#fff"/>
        <path id="Trazado_7217" data-name="Trazado 7217" d="M106.064,1275.7l-1.259-1.147,1.555-1.881,2.829-3.419a.858.858,0,0,1,1.524.345.85.85,0,0,1-.211.755q-1.911,2.3-3.82,4.6Z" transform="translate(-92.751 -1267.194)" fill="#fff"/>
      </g>
    </g>
  </g>
</svg>
