<svg xmlns="http://www.w3.org/2000/svg" width="30.947" height="30.947" viewBox="0 0 30.947 30.947">
  <g id="Grupo_18299" data-name="Grupo 18299" transform="translate(-8624.148 -5449.688)">
    <circle id="Elipse_497" data-name="Elipse 497" cx="15.474" cy="15.474" r="15.474" transform="translate(8624.148 5449.688)" fill="#fceed6"/>
    <g id="Grupo_17563" data-name="Grupo 17563" transform="translate(6938.738 4312.877)">
      <g id="Grupo_17519" data-name="Grupo 17519">
        <path id="Trazado_7285" data-name="Trazado 7285" d="M1699.329,1141.6a7.229,7.229,0,0,0-5.641,6.875,7.144,7.144,0,0,0,1.76,4.915,7.1,7.1,0,0,1,1.39,2.277c.184.531.3,1.085.456,1.642h.71v-.005h6.467c.158-.563.283-1.108.466-1.634a8.413,8.413,0,0,1,1.545-2.49,7.192,7.192,0,0,0,.508-8.318A7.268,7.268,0,0,0,1699.329,1141.6Z" fill="#fff"/>
        <path id="Trazado_7286" data-name="Trazado 7286" d="M1701.084,1140.007a8.4,8.4,0,0,0-6.228,2.443,8.744,8.744,0,0,0-1.955,9.532,10.254,10.254,0,0,0,1.671,2.613,4.99,4.99,0,0,1,1.2,2.672,20.364,20.364,0,0,1,.069,2.082,2.183,2.183,0,0,0,1.308,2.109.294.294,0,0,1,.128.211c.016.231,0,.464.007.7a2.179,2.179,0,0,0,.887,1.775,2.584,2.584,0,0,0,1.079.425h3.263a.416.416,0,0,1,.089-.033,2.043,2.043,0,0,0,1.791-1.6,5.966,5.966,0,0,0,.083-1.237.241.241,0,0,1,.155-.253,2.113,2.113,0,0,0,1.286-1.995c.011-.447-.032-.9.011-1.342a10.436,10.436,0,0,1,.271-1.67,6.676,6.676,0,0,1,1.413-2.368,8.411,8.411,0,0,0,1.791-6.766A8.644,8.644,0,0,0,1701.084,1140.007Zm1.939,22.522a.678.678,0,0,1-.683.59c-.974.008-1.948.01-2.922,0a.693.693,0,0,1-.688-.666c-.016-.261,0-.524,0-.807h4.3A8.1,8.1,0,0,1,1703.023,1162.529Zm1.426-2.887a.682.682,0,0,1-.736.554c-.926,0-1.853,0-2.779,0h-2.8a.747.747,0,0,1-.847-.856c0-.183,0-.366,0-.575h7.174A5.947,5.947,0,0,1,1704.449,1159.642Zm2.033-6.463a8.413,8.413,0,0,0-1.545,2.49c-.183.526-.308,1.071-.466,1.634H1698v.005h-.71c-.152-.557-.272-1.111-.456-1.642a7.1,7.1,0,0,0-1.39-2.277,7.144,7.144,0,0,1-1.76-4.915,7.2,7.2,0,1,1,12.794,4.7Z" fill="#f2a933"/>
        <path id="Trazado_7287" data-name="Trazado 7287" d="M1712.2,1148.677c-.381.025-.766,0-1.149.006a.72.72,0,1,0,0,1.437c.383.005.767-.018,1.149.006a.892.892,0,0,0,.966-.531v-.384A.881.881,0,0,0,1712.2,1148.677Z" fill="#f2a933"/>
        <path id="Trazado_7288" data-name="Trazado 7288" d="M1690.024,1146.081a.718.718,0,1,0,1.014-1.015c-.32-.335-.644-.668-.987-.978a1.851,1.851,0,0,0-.434-.24.758.758,0,0,0-.739.436.673.673,0,0,0,.131.778Q1689.5,1145.583,1690.024,1146.081Z" fill="#f2a933"/>
        <path id="Trazado_7289" data-name="Trazado 7289" d="M1711.737,1146.085c.335-.321.669-.644.98-.987a1.861,1.861,0,0,0,.242-.431.758.758,0,0,0-.431-.744.682.682,0,0,0-.8.141c-.346.332-.688.669-1.018,1.017a.717.717,0,1,0,1.023,1Z" fill="#f2a933"/>
        <path id="Trazado_7290" data-name="Trazado 7290" d="M1690.15,1152.625c-.422.378-.821.783-1.2,1.2a.621.621,0,0,0-.055.723.733.733,0,0,0,.711.4.858.858,0,0,0,.326-.133c.413-.388.824-.781,1.2-1.2a.705.705,0,0,0-.98-.987Z" fill="#f2a933"/>
        <path id="Trazado_7291" data-name="Trazado 7291" d="M1711.66,1152.656a.708.708,0,0,0-1,.989c.365.4.753.784,1.152,1.151a.637.637,0,0,0,.743.072.746.746,0,0,0,.4-.718,1.172,1.172,0,0,0-.178-.376C1712.42,1153.387,1712.049,1153.011,1711.66,1152.656Z" fill="#f2a933"/>
        <path id="Trazado_7292" data-name="Trazado 7292" d="M1690.752,1148.685c-.471-.009-.943-.008-1.415,0a.718.718,0,1,0-.011,1.435c.231.008.463,0,.695,0,.248,0,.5.008.744,0a.717.717,0,1,0-.013-1.433Z" fill="#f2a933"/>
        <path id="Trazado_7293" data-name="Trazado 7293" d="M1697.284,1158.766c0,.209,0,.392,0,.575a.747.747,0,0,0,.847.856h2.8c.926,0,1.853,0,2.779,0a.682.682,0,0,0,.736-.554,5.947,5.947,0,0,0,.009-.876Z" fill="#fff"/>
        <path id="Trazado_7294" data-name="Trazado 7294" d="M1698.726,1161.645c0,.283-.012.546,0,.807a.693.693,0,0,0,.688.666c.974.011,1.948.009,2.922,0a.678.678,0,0,0,.683-.59,8.1,8.1,0,0,0,.006-.884Z" fill="#fff"/>
      </g>
      <g id="Grupo_17520" data-name="Grupo 17520">
        <path id="Trazado_7295" data-name="Trazado 7295" d="M1697.035,1149.388c.607-.569,1.122-1.044,1.627-1.528.274-.263.374-.569.061-.862-.291-.273-.574-.147-.821.1-.594.59-1.18,1.189-1.78,1.774a.633.633,0,0,0,.019,1.047c.574.556,1.132,1.128,1.7,1.693.267.267.564.483.9.144s.145-.641-.135-.905C1698.112,1150.385,1697.614,1149.926,1697.035,1149.388Z" fill="#f2a933"/>
        <path id="Trazado_7296" data-name="Trazado 7296" d="M1703.935,1147.163c-.267-.268-.563-.484-.905-.151s-.151.64.128.9c.493.468.992.929,1.545,1.445-.576.556-1.067,1.028-1.556,1.5-.28.272-.447.58-.108.9.317.3.606.125.862-.13.579-.579,1.151-1.164,1.738-1.734a.635.635,0,0,0-.007-1.049C1705.06,1148.3,1704.5,1147.728,1703.935,1147.163Z" fill="#f2a933"/>
        <path id="Trazado_7297" data-name="Trazado 7297" d="M1701.457,1146.406a.806.806,0,0,0-.59.465q-.549,2.421-.979,4.867c-.034.191.256.438.4.659.21-.155.527-.267.609-.473a8.011,8.011,0,0,0,.308-1.364c.241-1.2.479-2.407.747-3.751C1701.817,1146.693,1701.62,1146.389,1701.457,1146.406Z" fill="#f2a933"/>
      </g>
    </g>
  </g>
</svg>
