<svg xmlns="http://www.w3.org/2000/svg" width="30.947" height="30.947" viewBox="0 0 30.947 30.947">
  <g id="Grupo_18297" data-name="Grupo 18297" transform="translate(-7083 -5168)">
    <circle id="Elipse_485" data-name="Elipse 485" cx="15.474" cy="15.474" r="15.474" transform="translate(7083 5168)" fill="#d6f5f0"/>
    <g id="Grupo_17503" data-name="Grupo 17503" transform="translate(6764.53 4057.115)">
      <rect id="Rectángulo_2659" data-name="Rectángulo 2659" width="19.649" height="13.455" rx="2.25" transform="translate(324.364 1118.639)" fill="#fff"/>
      <g id="Grupo_17502" data-name="Grupo 17502">
        <path id="Trazado_7208" data-name="Trazado 7208" d="M330.125,1136.268a.968.968,0,0,1-.5-.534.829.829,0,0,1,.8-1.1c.879-.009,1.757,0,2.636,0h.267v-1.671h-.241q-3.107,0-6.213,0a3.309,3.309,0,0,1-3.21-2.261,3.615,3.615,0,0,1-.184-1.126q-.022-4.143-.006-8.285a3.341,3.341,0,0,1,3.4-3.39c1.9-.006,3.807,0,5.71,0a.841.841,0,1,1,.007,1.673c-1.9,0-3.793,0-5.689,0a1.66,1.66,0,0,0-1.692,1.254,1.987,1.987,0,0,0-.06.517q-.006,4.089,0,8.18a1.677,1.677,0,0,0,1.761,1.763q7.278,0,14.558,0a1.674,1.674,0,0,0,1.751-1.625.839.839,0,0,1,1.651-.248.151.151,0,0,0,.025.033v.544c-.06.234-.1.474-.183.7a3.331,3.331,0,0,1-3.206,2.268c-2.077.006-4.153,0-6.23,0h-.244v1.671h.235c.892,0,1.784-.006,2.676,0a.826.826,0,0,1,.8,1.077.952.952,0,0,1-.5.554Z" fill="#30ceb3"/>
        <path id="Trazado_7209" data-name="Trazado 7209" d="M344.893,1125.6a2.044,2.044,0,0,1-.255.422.771.771,0,0,1-.883.187.8.8,0,0,1-.531-.735c-.013-.187,0-.376,0-.564,0-1.106,0-2.213,0-3.32a6.186,6.186,0,0,0-.073-.849.847.847,0,0,1,.667-.981.83.83,0,0,1,.965.627c.045.174.079.351.118.527Z" fill="#30ceb3"/>
        <path id="Trazado_7210" data-name="Trazado 7210" d="M331.758,1129.578a6.751,6.751,0,0,1-3.934-1.273.821.821,0,0,1,.1-1.44,2.406,2.406,0,0,0,1-.728,4.623,4.623,0,0,0,.4-.75c.246-.576.421-1.186.713-1.735a3.711,3.711,0,0,1,3.22-2.03.406.406,0,0,0,.256-.13q2.354-2.829,4.7-5.668a2.508,2.508,0,0,1,4.461,1.639,2.406,2.406,0,0,1-.565,1.518q-2.46,2.97-4.922,5.941a.472.472,0,0,0-.118.272,3.919,3.919,0,0,1-1.949,3.5,5.35,5.35,0,0,1-2.615.838C332.233,1129.553,331.962,1129.566,331.758,1129.578Zm-1.866-2.005a9.33,9.33,0,0,0,1.027.259,4.894,4.894,0,0,0,3.091-.429,2.363,2.363,0,0,0,1.367-1.83,2.035,2.035,0,0,0-3.229-1.871,2.718,2.718,0,0,0-.923,1.383A6.039,6.039,0,0,1,329.892,1127.573Zm6.556-4.39c.186-.224.4-.475.6-.727q1.861-2.242,3.724-4.486a.828.828,0,0,0,.206-.736.836.836,0,0,0-1.486-.336l-2.758,3.332-1.517,1.835Z" fill="#30ceb3"/>
        <path id="Trazado_7211" data-name="Trazado 7211" d="M329.892,1127.573a6.039,6.039,0,0,0,1.333-2.488,2.718,2.718,0,0,1,.923-1.383,2.035,2.035,0,0,1,3.229,1.871,2.363,2.363,0,0,1-1.367,1.83,4.894,4.894,0,0,1-3.091.429A9.33,9.33,0,0,1,329.892,1127.573Z" fill="#fff"/>
        <path id="Trazado_7212" data-name="Trazado 7212" d="M336.448,1123.183l-1.227-1.118,1.517-1.835,2.758-3.332a.836.836,0,0,1,1.486.336.828.828,0,0,1-.206.736q-1.863,2.242-3.724,4.486C336.844,1122.708,336.634,1122.959,336.448,1123.183Z" fill="#fff"/>
      </g>
    </g>
  </g>
</svg>
