<svg xmlns="http://www.w3.org/2000/svg" width="30.925" height="30.925" viewBox="0 0 30.925 30.925">
  <g id="Grupo_18305" data-name="Grupo 18305" transform="translate(-7597.434 -5281.199)">
    <ellipse id="Elipse_491" data-name="Elipse 491" cx="15.462" cy="15.463" rx="15.462" ry="15.463" transform="translate(7597.434 5281.199)" fill="#fbe5c2"/>
    <g id="Grupo_17550" data-name="Grupo 17550" transform="translate(7604.545 5289.353)">
      <path id="Trazado_7221" data-name="Trazado 7221" d="M582.981,871.159c0-.37,0-.668,0-.965a2.43,2.43,0,0,1,2.5-2.52c1.087-.014,2.174-.009,3.261,0a2.441,2.441,0,0,1,2.587,2.566c0,.279,0,.558,0,.921.588,0,1.124-.009,1.66,0a2.414,2.414,0,0,1,2.512,2.563q.009,2.966,0,5.934a2.437,2.437,0,0,1-2.6,2.619q-5.738.009-11.476,0a2.436,2.436,0,0,1-2.618-2.6q-.01-3,0-6a2.407,2.407,0,0,1,2.49-2.519C581.838,871.149,582.375,871.159,582.981,871.159Zm-2.083,4.114c0,1.526-.017,2.976.023,4.424a.706.706,0,0,0,.5.472q5.73.04,11.46,0a.7.7,0,0,0,.5-.471c.041-1.447.024-2.9.024-4.421-.264.11-.463.183-.653.273-1.625.771-3.256,1.531-4.87,2.326a1.522,1.522,0,0,1-1.477-.006c-1.612-.8-3.244-1.556-4.868-2.326C581.355,875.454,581.158,875.381,580.9,875.273Zm.887-1.985a3.329,3.329,0,0,0,.314.207c1.583.755,3.162,1.519,4.757,2.247a.967.967,0,0,0,.712-.043c1.514-.7,3.015-1.426,4.517-2.148a3.3,3.3,0,0,0,.38-.263Zm3.336-2.179h4.1c.009-.2.021-.35.023-.5.007-.834,0-.846-.817-.848-.737,0-1.473,0-2.209,0-1.206,0-1.206,0-1.124,1.236A.783.783,0,0,0,585.12,871.109Z" transform="translate(-578.803 -867.664)" fill="#f2a933"/>
      <path id="Trazado_7222" data-name="Trazado 7222" d="M580.9,875.278c.261.108.458.181.648.271,1.625.77,3.257,1.53,4.869,2.326a1.522,1.522,0,0,0,1.477.006c1.614-.8,3.245-1.556,4.87-2.326.19-.09.389-.163.652-.273,0,1.524.017,2.974-.024,4.421a.7.7,0,0,1-.5.471q-5.729.04-11.46,0a.706.706,0,0,1-.5-.472C580.882,878.254,580.9,876.8,580.9,875.278Z" transform="translate(-578.805 -867.669)" fill="#fff" stroke="#fff" stroke-miterlimit="10" stroke-width="0.75"/>
      <path id="Trazado_7223" data-name="Trazado 7223" d="M581.787,873.292h10.679a3.256,3.256,0,0,1-.38.263c-1.5.723-3,1.449-4.517,2.149a.967.967,0,0,1-.712.043c-1.595-.728-3.174-1.492-4.757-2.247A3.376,3.376,0,0,1,581.787,873.292Z" transform="translate(-578.805 -867.668)" fill="#fff" stroke="#fff" stroke-miterlimit="10" stroke-width="0.75"/>
    </g>
  </g>
</svg>
