<svg xmlns="http://www.w3.org/2000/svg" width="29.586" height="29.586" viewBox="0 0 29.586 29.586">
  <g id="Grupo_17546" data-name="Grupo 17546" transform="translate(-8566.943 -4396.718)">
    <ellipse id="Elipse_477" data-name="Elipse 477" cx="14.793" cy="14.793" rx="14.793" ry="14.793" transform="translate(8566.943 4396.718)" fill="#ffded3"/>
    <g id="Grupo_17501" data-name="Grupo 17501" transform="translate(8571.943 4400.718)">
      <rect id="Rectángulo_2658" data-name="Rectángulo 2658" width="18.785" height="12.864" rx="2.25" transform="translate(0.855 3.589)" fill="#fff"/>
      <g id="Grupo_17500" data-name="Grupo 17500" transform="translate(0 0)">
        <path id="Trazado_7203" data-name="Trazado 7203" d="M85.147,1016.208a.93.93,0,0,1-.477-.511.793.793,0,0,1,.765-1.049c.84-.009,1.68,0,2.52,0h.255v-1.6h-.23q-2.97,0-5.94,0a3.163,3.163,0,0,1-3.069-2.162,3.482,3.482,0,0,1-.176-1.076q-.022-3.959-.006-7.921a3.2,3.2,0,0,1,3.249-3.241c1.819-.006,3.64,0,5.459,0a.8.8,0,1,1,.007,1.6c-1.813,0-3.625,0-5.439,0a1.588,1.588,0,0,0-1.618,1.2,1.9,1.9,0,0,0-.057.494q-.006,3.909,0,7.82a1.6,1.6,0,0,0,1.684,1.686q6.959,0,13.918,0a1.6,1.6,0,0,0,1.674-1.554.8.8,0,0,1,1.578-.237.187.187,0,0,0,.024.032v.52c-.057.224-.1.453-.174.67a3.186,3.186,0,0,1-3.066,2.168c-1.986.006-3.97,0-5.956,0h-.232v1.6h.224c.853,0,1.706-.006,2.558,0a.79.79,0,0,1,.769,1.03.915.915,0,0,1-.482.531Z" transform="translate(-78.785 -995.765)" fill="#ff5822"/>
        <path id="Trazado_7204" data-name="Trazado 7204" d="M100.131,1006.087a2.026,2.026,0,0,1-.243.4.739.739,0,0,1-.845.178.765.765,0,0,1-.508-.7c-.012-.179,0-.359,0-.539,0-1.057,0-2.116,0-3.174a5.936,5.936,0,0,0-.07-.812.811.811,0,0,1,.638-.938.793.793,0,0,1,.923.6c.043.166.076.336.113.5Z" transform="translate(-79.649 -995.846)" fill="#ff5822"/>
        <path id="Trazado_7205" data-name="Trazado 7205" d="M86.883,1009.679a6.453,6.453,0,0,1-3.76-1.216.785.785,0,0,1,.1-1.378,2.31,2.31,0,0,0,.957-.7,4.567,4.567,0,0,0,.385-.717c.234-.551.4-1.134.682-1.659a3.549,3.549,0,0,1,3.078-1.941.394.394,0,0,0,.245-.124q2.249-2.7,4.488-5.419a2.4,2.4,0,0,1,4.265,1.567,2.29,2.29,0,0,1-.54,1.451q-2.352,2.841-4.706,5.68a.452.452,0,0,0-.113.26,3.748,3.748,0,0,1-1.862,3.347,5.119,5.119,0,0,1-2.5.8C87.338,1009.655,87.078,1009.667,86.883,1009.679Zm-1.784-1.917a8.9,8.9,0,0,0,.982.248,4.679,4.679,0,0,0,2.955-.41,2.257,2.257,0,0,0,1.307-1.749,1.945,1.945,0,0,0-3.086-1.789,2.6,2.6,0,0,0-.883,1.322A5.768,5.768,0,0,1,85.1,1007.762Zm6.269-4.2c.178-.214.378-.454.576-.7q1.78-2.144,3.56-4.289a.792.792,0,0,0,.2-.7.8.8,0,0,0-1.421-.321l-2.637,3.185-1.449,1.754Z" transform="translate(-78.959 -995.632)" fill="#ff5822"/>
        <path id="Trazado_7206" data-name="Trazado 7206" d="M85.207,1008.133a5.768,5.768,0,0,0,1.274-2.379,2.6,2.6,0,0,1,.883-1.322,1.945,1.945,0,0,1,3.086,1.789,2.257,2.257,0,0,1-1.307,1.749,4.679,4.679,0,0,1-2.955.41A8.9,8.9,0,0,1,85.207,1008.133Z" transform="translate(-79.067 -996.003)" fill="#fff"/>
        <path id="Trazado_7207" data-name="Trazado 7207" d="M91.71,1003.639l-1.173-1.069,1.449-1.754,2.637-3.185a.8.8,0,0,1,1.421.321.792.792,0,0,1-.2.7q-1.781,2.144-3.56,4.289C92.088,1003.185,91.888,1003.425,91.71,1003.639Z" transform="translate(-79.302 -995.706)" fill="#fff"/>
      </g>
    </g>
  </g>
</svg>
