<svg xmlns="http://www.w3.org/2000/svg" width="31.743" height="31.743" viewBox="0 0 31.743 31.743">
  <g id="Grupo_18301" data-name="Grupo 18301" transform="translate(-8389.148 -5626.923)">
    <ellipse id="Elipse_496" data-name="Elipse 496" cx="15.871" cy="15.871" rx="15.871" ry="15.871" transform="translate(8389.148 5626.923)" fill="#fbd4e7"/>
    <g id="Grupo_17562" data-name="Grupo 17562" transform="translate(8394.877 5632.331)">
      <path id="Trazado_7261" data-name="Trazado 7261" d="M1480.558,1245.61q-6.856-.031-13.712,0a1.827,1.827,0,0,0-1.86,1.862c-.016.387-.014.773-.013,1.161v4.725h0c0,1.595,0,3.191.007,4.786a1.935,1.935,0,0,0,2.205,2.173c1.586.008,3.17-.005,4.755.006.888.006,1.126.251,1.139,1.131.009.675,0,1.35,0,2.226,1.223-.923,2.319-1.692,3.345-2.545a3.141,3.141,0,0,1,2.458-.827,11.231,11.231,0,0,0,1.663,0,1.827,1.827,0,0,0,1.84-1.8q.04-5.545,0-11.092A1.786,1.786,0,0,0,1480.558,1245.61Zm-9.76,10.543c-.457.458-.86.167-1.22-.194-.763-.763-1.517-1.536-2.291-2.286a.854.854,0,0,1-.027-1.414c.81-.79,1.6-1.6,2.4-2.4.333-.33.715-.5,1.109-.132.424.4.287.809-.082,1.164-.682.655-1.378,1.3-2.2,2.065.782.726,1.455,1.346,2.122,1.972C1470.994,1255.288,1471.246,1255.7,1470.8,1256.154Zm3.321-1.612a10.815,10.815,0,0,1-.416,1.842c-.11.278-.538.431-.823.64-.189-.3-.579-.633-.534-.89q.578-3.3,1.322-6.574a1.089,1.089,0,0,1,.8-.628c.221-.022.487.388.664.544C1474.768,1251.291,1474.446,1252.917,1474.119,1254.541Zm6-.886c-.793.77-1.565,1.561-2.348,2.342-.346.345-.737.587-1.164.176-.458-.439-.233-.855.147-1.223.661-.639,1.322-1.277,2.1-2.028-.747-.7-1.421-1.32-2.086-1.952-.378-.357-.63-.773-.172-1.221s.861-.158,1.222.2c.762.763,1.519,1.533,2.292,2.285A.857.857,0,0,1,1480.115,1253.655Z" transform="translate(-1463.553 -1244.166)" fill="#fff"/>
      <path id="Trazado_7262" data-name="Trazado 7262" d="M1480.63,1244.232q-6.894-.062-13.79,0a3.3,3.3,0,0,0-3.235,3.183c-.015.306-.015.612-.013.919h0v5.061h0c.006,1.545,0,3.089,0,4.634a3.421,3.421,0,0,0,3.735,3.745c1.422.005,2.843,0,4.376,0,0,.724-.032,1.331.007,1.933a1.383,1.383,0,0,0,2.271,1.112,14.851,14.851,0,0,0,1.639-1.244,6.184,6.184,0,0,1,4.961-1.858,3.133,3.133,0,0,0,3.259-3.193q.063-5.546,0-11.093A3.237,3.237,0,0,0,1480.63,1244.232Zm1.791,14.31a1.827,1.827,0,0,1-1.84,1.8,11.231,11.231,0,0,1-1.663,0,3.141,3.141,0,0,0-2.458.827c-1.026.852-2.122,1.622-3.345,2.545,0-.876.007-1.551,0-2.226-.012-.88-.25-1.125-1.138-1.131-1.585-.011-3.169,0-4.755-.006a1.935,1.935,0,0,1-2.205-2.173c-.01-1.6,0-3.191-.007-4.786h0v-4.725c0-.388,0-.774.013-1.161a1.827,1.827,0,0,1,1.86-1.862q6.856-.029,13.712,0a1.786,1.786,0,0,1,1.829,1.8Q1482.461,1252.995,1482.421,1258.542Z" transform="translate(-1463.589 -1244.202)" fill="#ea2788"/>
      <path id="Trazado_7263" data-name="Trazado 7263" d="M1468.445,1252.861c.821-.769,1.516-1.41,2.2-2.065.369-.355.506-.768.082-1.164-.394-.369-.776-.2-1.109.132-.8.8-1.594,1.606-2.4,2.4a.854.854,0,0,0,.027,1.414c.774.75,1.528,1.523,2.291,2.286.36.361.762.652,1.22.194s.2-.866-.183-1.222C1469.9,1254.207,1469.227,1253.587,1468.445,1252.861Z" transform="translate(-1463.505 -1244.067)" fill="#ea2788"/>
      <path id="Trazado_7264" data-name="Trazado 7264" d="M1477.528,1249.855c-.361-.361-.761-.653-1.222-.2s-.205.864.172,1.221c.666.632,1.34,1.254,2.086,1.952-.778.751-1.44,1.389-2.1,2.028-.38.367-.605.784-.147,1.223.428.41.818.168,1.164-.176.782-.781,1.555-1.571,2.348-2.342a.857.857,0,0,0-.01-1.417C1479.047,1251.388,1478.29,1250.618,1477.528,1249.855Z" transform="translate(-1463.268 -1244.067)" fill="#ea2788"/>
      <path id="Trazado_7265" data-name="Trazado 7265" d="M1474.28,1248.848a1.089,1.089,0,0,0-.8.628q-.74,3.27-1.322,6.574c-.045.257.346.592.534.89.284-.209.713-.362.823-.64a10.815,10.815,0,0,0,.416-1.842c.326-1.625.648-3.25,1.009-5.066C1474.768,1249.236,1474.5,1248.826,1474.28,1248.848Z" transform="translate(-1463.369 -1244.082)" fill="#ea2788"/>
    </g>
  </g>
</svg>
