<svg xmlns="http://www.w3.org/2000/svg" width="39.073" height="33.402" viewBox="0 0 39.073 33.402">
  <g id="Grupo_18304" data-name="Grupo 18304" transform="translate(-7801.865 -5428.352)">
    <circle id="Elipse_458" data-name="Elipse 458" cx="15.833" cy="15.833" r="15.833" transform="translate(7801.865 5430.088)" opacity="0"/>
    <circle id="Elipse_492" data-name="Elipse 492" cx="16.395" cy="16.395" r="16.395" transform="translate(7808.148 5428.352)" fill="#adccfa"/>
    <g id="Grupo_17554" data-name="Grupo 17554" transform="translate(7814.775 5432.629)">
      <ellipse id="Elipse_488" data-name="Elipse 488" cx="6.058" cy="6.058" rx="6.058" ry="6.058" transform="translate(10.663 9.773)" fill="#33c"/>
      <path id="Trazado_7244" data-name="Trazado 7244" d="M808.2,1006.941c0,.347.006.661,0,.974a.468.468,0,0,1-.506.508c-.09,0-.18,0-.27,0H791.31c-.674,0-.794-.111-.785-.778a38.085,38.085,0,0,1,.1-4.314,8.586,8.586,0,0,1,5.752-7.251c.133-.053.268-.1.426-.166a5.5,5.5,0,1,1,5.162-.035c.584.274,1.154.559,1.743.8.1.043.3-.068.426-.151a5.653,5.653,0,0,1,7.285.765,5.437,5.437,0,0,1,1.4,5.525,5.546,5.546,0,0,1-4.085,3.986C808.576,1006.852,808.415,1006.887,808.2,1006.941Zm-5.143-9.506c-.17-.087-.3-.16-.433-.221a7.892,7.892,0,0,0-10.838,5,19.159,19.159,0,0,0-.28,5.146c0,.023.034.046.048.066h15.72l-.041-.414A5.759,5.759,0,0,1,803.059,997.434Zm-3.684-10.925a4.518,4.518,0,1,0,4.5,4.528A4.506,4.506,0,0,0,799.374,986.51Zm3.188,14.758a4.758,4.758,0,1,0,4.788-4.748A4.764,4.764,0,0,0,802.563,1001.268Z" transform="translate(-790.511 -985.554)" fill="#33c"/>
      <g id="Trazado_7245" data-name="Trazado 7245" transform="translate(-790.943 -990.474)" fill="#fff" stroke-miterlimit="10">
        <path d="M 806.8630981445312 1012.094604492188 L 792.1906127929688 1012.094604492188 C 792.1912231445312 1011.715759277344 792.1818237304688 1011.332885742188 792.1727294921875 1010.960876464844 C 792.1422119140625 1009.716064453125 792.1106567382812 1008.428833007812 792.4600219726562 1007.201843261719 C 792.9247436523438 1005.569702148438 793.8948364257812 1004.175476074219 795.2655029296875 1003.169921875 C 796.580322265625 1002.205383300781 798.195556640625 1001.674194335938 799.813720703125 1001.674194335938 C 800.90087890625 1001.674194335938 801.957275390625 1001.905151367188 802.9534912109375 1002.360717773438 C 803.0030517578125 1002.38330078125 803.052490234375 1002.408020019531 803.104736328125 1002.434997558594 C 801.7056884765625 1004.249450683594 801.3978881835938 1006.5185546875 802.2890014648438 1008.563842773438 C 803.107666015625 1010.442810058594 804.8194580078125 1011.745788574219 806.8630981445312 1012.094604492188 Z" stroke="none"/>
        <path d="M 799.813720703125 1001.924194335938 C 796.5217895507812 1001.924194335938 793.5966796875 1004.12255859375 792.7005004882812 1007.270263671875 C 792.361572265625 1008.460693359375 792.3912353515625 1009.672180175781 792.4226684570312 1010.954772949219 C 792.4298095703125 1011.24658203125 792.4371337890625 1011.545104980469 792.439697265625 1011.844604492188 L 805.2008666992188 1011.844604492188 C 803.8082885742188 1011.2099609375 802.6847534179688 1010.097961425781 802.059814453125 1008.663696289062 C 801.1717529296875 1006.625427246094 801.4254150390625 1004.375305175781 802.7230224609375 1002.531616210938 C 801.796875 1002.128479003906 800.8189086914062 1001.924194335938 799.813720703125 1001.924194335938 M 799.813720703125 1001.424194335938 C 800.898193359375 1001.424194335938 802.0010986328125 1001.650329589844 803.0574340820312 1002.133361816406 C 803.1919555664062 1002.194702148438 803.3209838867188 1002.267822265625 803.49072265625 1002.354797363281 C 800.2728271484375 1006.164733886719 802.7461547851562 1011.696105957031 807.6663208007812 1011.930725097656 L 807.7076416015625 1012.344604492188 L 791.98779296875 1012.344604492188 C 791.9732666015625 1012.325317382812 791.9395141601562 1012.302490234375 791.9395141601562 1012.279052734375 C 791.9581298828125 1010.559692382812 791.7373046875 1008.827209472656 792.2196044921875 1007.133361816406 C 793.2145385742188 1003.638916015625 796.4214477539062 1001.424194335938 799.813720703125 1001.424194335938 Z" stroke="none" fill="#33c"/>
      </g>
      <g id="Trazado_7246" data-name="Trazado 7246" transform="translate(-792.458 -985.983)" fill="#fff" stroke-miterlimit="10">
        <path d="M 801.3038940429688 995.724609375 L 801.2964477539062 995.724609375 C 800.1574096679688 995.7230224609375 799.0874633789062 995.2767944335938 798.28369140625 994.4682006835938 C 797.4797973632812 993.659423828125 797.0380859375 992.584716796875 797.0399780273438 991.4420776367188 C 797.0418701171875 990.3031005859375 797.4857788085938 989.2341918945312 798.2899169921875 988.4323120117188 C 799.093994140625 987.6304931640625 800.16455078125 987.18896484375 801.3043212890625 987.18896484375 L 801.320068359375 987.18896484375 C 802.4671020507812 987.1930541992188 803.538818359375 987.637939453125 804.3379516601562 988.441650390625 C 805.1371459960938 989.245361328125 805.5757446289062 990.3196411132812 805.5729370117188 991.466552734375 C 805.5700073242188 992.609130859375 805.1257934570312 993.6798706054688 804.322021484375 994.4815063476562 C 803.518310546875 995.2831420898438 802.4464111328125 995.724609375 801.3038940429688 995.724609375 Z" stroke="none"/>
        <path d="M 801.3043212890625 987.43896484375 C 799.094482421875 987.43896484375 797.2936401367188 989.2349243164062 797.2899780273438 991.4425048828125 C 797.2882080078125 992.5184936523438 797.7040405273438 993.5304565429688 798.4609985351562 994.2919311523438 C 799.2175903320312 995.0531005859375 800.2246704101562 995.4730834960938 801.2967529296875 995.474609375 L 801.2960205078125 995.974609375 L 801.3038940429688 995.474609375 C 802.3797607421875 995.474609375 803.388916015625 995.05908203125 804.1454467773438 994.3045043945312 C 804.9020385742188 993.5499267578125 805.3201904296875 992.5418090820312 805.3229370117188 991.4659423828125 C 805.3256225585938 990.3858032226562 804.912841796875 989.3743286132812 804.1607055664062 988.617919921875 C 803.4086303710938 987.8615112304688 802.3994750976562 987.4428100585938 801.3192138671875 987.43896484375 L 801.3043212890625 987.43896484375 M 801.3043212890625 986.93896484375 C 801.3099975585938 986.93896484375 801.3153076171875 986.93896484375 801.3209838867188 986.93896484375 C 803.8302612304688 986.9479370117188 805.8291015625 988.9576416015625 805.8229370117188 991.4671630859375 C 805.8165893554688 993.967529296875 803.803955078125 995.974609375 801.3038940429688 995.974609375 C 801.3011474609375 995.974609375 801.2987670898438 995.974609375 801.2960205078125 995.974609375 C 798.8025512695312 995.9711303710938 796.7858276367188 993.9419555664062 796.7899780273438 991.441650390625 C 796.7941284179688 988.9482421875 798.8102416992188 986.93896484375 801.3043212890625 986.93896484375 Z" stroke="none" fill="#33c"/>
      </g>
      <path id="Trazado_7247" data-name="Trazado 7247" d="M807.978,1006.2a4.758,4.758,0,1,1,4.728,4.774A4.741,4.741,0,0,1,807.978,1006.2Zm6.969.792c.362-.265.716-.514,1.06-.777a.984.984,0,0,0-.583-1.816c-.432-.017-.974.122-1.265-.088s-.324-.768-.471-1.173a.978.978,0,0,0-1.9,0c-.147.405-.183.963-.473,1.172s-.833.072-1.264.089a.979.979,0,0,0-.578,1.812c.344.262.7.513,1.058.777-.139.432-.277.841-.4,1.254a.973.973,0,0,0,.333,1.164.989.989,0,0,0,1.211-.042c.357-.248.7-.508,1.069-.773.361.262.709.523,1.065.771a.988.988,0,0,0,1.21.045.965.965,0,0,0,.332-1.163C815.223,1007.827,815.086,1007.418,814.947,1006.987Z" transform="translate(-795.927 -990.481)" fill="#fff"/>
      <path id="Trazado_7248" data-name="Trazado 7248" d="M815.4,1007.406c.139.431.276.84.4,1.253a.965.965,0,0,1-.332,1.163.988.988,0,0,1-1.21-.045c-.356-.248-.7-.509-1.065-.771-.366.265-.713.525-1.069.773a.989.989,0,0,1-1.211.042.973.973,0,0,1-.333-1.164c.124-.413.262-.823.4-1.254-.362-.264-.715-.515-1.059-.777a.979.979,0,0,1,.578-1.812c.431-.017.974.122,1.264-.089s.326-.767.473-1.172a.978.978,0,0,1,1.9,0c.146.405.182.964.471,1.173s.833.072,1.265.088a.984.984,0,0,1,.583,1.816C816.121,1006.893,815.767,1007.142,815.4,1007.406Zm-3.929,1.61c.513-.351.922-.621,1.319-.908a.609.609,0,0,1,.818.014c.384.3.783.573,1.264.922-.165-.557-.28-1.005-.432-1.441a.684.684,0,0,1,.3-.918c.374-.236.72-.518,1.077-.78l-.028-.138c-.473,0-.946-.014-1.418,0a.611.611,0,0,1-.687-.5c-.139-.476-.306-.945-.493-1.515-.194.577-.361,1.042-.5,1.514a.613.613,0,0,1-.689.5c-.471-.021-.943,0-1.415,0a5.741,5.741,0,0,0,1.065.935.667.667,0,0,1,.279.889C811.778,1008.017,811.654,1008.458,811.476,1009.017Z" transform="translate(-796.384 -990.901)" fill="#33c"/>
      <path id="Trazado_7249" data-name="Trazado 7249" d="M811.988,1009.446c.178-.559.3-1,.46-1.43a.667.667,0,0,0-.279-.889,5.746,5.746,0,0,1-1.065-.935c.472,0,.944-.016,1.415,0a.613.613,0,0,0,.689-.5c.143-.472.311-.937.5-1.514.187.569.354,1.038.493,1.514a.611.611,0,0,0,.687.5c.472-.018.945,0,1.418,0l.028.138c-.357.262-.7.544-1.077.78a.684.684,0,0,0-.3.918c.152.436.267.885.432,1.441-.481-.349-.88-.626-1.264-.922a.608.608,0,0,0-.818-.014C812.91,1008.825,812.5,1009.1,811.988,1009.446Z" transform="translate(-796.896 -991.33)" fill="#fff"/>
    </g>
  </g>
</svg>
