<svg xmlns="http://www.w3.org/2000/svg" width="31.743" height="31.743" viewBox="0 0 31.743 31.743">
  <g id="Grupo_18302" data-name="Grupo 18302" transform="translate(-8101.696 -5586.092)">
    <ellipse id="Elipse_493" data-name="Elipse 493" cx="15.871" cy="15.871" rx="15.871" ry="15.871" transform="translate(8101.696 5586.092)" fill="#ffded3"/>
    <g id="Grupo_17558" data-name="Grupo 17558" transform="translate(8107.014 5591.039)">
      <ellipse id="Elipse_486" data-name="Elipse 486" cx="5.292" cy="5.458" rx="5.292" ry="5.458" transform="translate(10.523 0)" fill="#fff"/>
      <g id="Grupo_17508" data-name="Grupo 17508" transform="translate(10.522 0.054)">
        <path id="Trazado_7224" data-name="Trazado 7224" d="M1246.5,1133.581a4.639,4.639,0,0,0,1.615,1.1c.055.026.129.106.125.154-.059.605-.131,1.209-.2,1.829h-2.573A5.187,5.187,0,0,1,1246.5,1133.581Z" transform="translate(-1245.432 -1131.475)" fill="#ff5822"/>
        <path id="Trazado_7225" data-name="Trazado 7225" d="M1245.432,1137.012h2.608l.161,1.862-1.751,1.161A5.469,5.469,0,0,1,1245.432,1137.012Z" transform="translate(-1245.432 -1131.387)" fill="#ff5822"/>
        <path id="Trazado_7226" data-name="Trazado 7226" d="M1255.822,1136.665h-2.6l-.187-1.836,1.787-1.168A5.476,5.476,0,0,1,1255.822,1136.665Z" transform="translate(-1245.236 -1131.473)" fill="#ff5822"/>
        <path id="Trazado_7227" data-name="Trazado 7227" d="M1255.82,1137.019a5.558,5.558,0,0,1-1.05,3.064,4.74,4.74,0,0,0-1.6-1.091.259.259,0,0,1-.112-.207c.05-.583.115-1.163.178-1.765Z" transform="translate(-1245.236 -1131.387)" fill="#ff5822"/>
        <path id="Trazado_7228" data-name="Trazado 7228" d="M1250.445,1138.751v3.3a1.463,1.463,0,0,1-.383-.184,5.04,5.04,0,0,1-.7-.759,5.539,5.539,0,0,1-.748-2Z" transform="translate(-1245.35 -1131.342)" fill="#ff5822"/>
        <path id="Trazado_7229" data-name="Trazado 7229" d="M1250.426,1131.668v3.261l-1.748-.354C1248.746,1133.345,1249.693,1131.791,1250.426,1131.668Z" transform="translate(-1245.349 -1131.524)" fill="#ff5822"/>
        <path id="Trazado_7230" data-name="Trazado 7230" d="M1252.59,1139.112c-.074,1.258-1.029,2.789-1.78,2.89v-3.246Z" transform="translate(-1245.294 -1131.342)" fill="#ff5822"/>
        <path id="Trazado_7231" data-name="Trazado 7231" d="M1252.6,1134.6l-1.787.335v-3.285a1.572,1.572,0,0,1,.8.6,4.982,4.982,0,0,1,.817,1.708C1252.493,1134.143,1252.538,1134.34,1252.6,1134.6Z" transform="translate(-1245.294 -1131.525)" fill="#ff5822"/>
        <path id="Trazado_7232" data-name="Trazado 7232" d="M1251.547,1131.559a5.139,5.139,0,0,1,3,1.745A3.852,3.852,0,0,1,1253,1134.4c-.188-.523-.349-1.031-.552-1.52A3.7,3.7,0,0,0,1251.547,1131.559Z" transform="translate(-1245.275 -1131.527)" fill="#ff5822"/>
        <path id="Trazado_7233" data-name="Trazado 7233" d="M1248.307,1134.38a3.95,3.95,0,0,1-1.583-1.085,5.281,5.281,0,0,1,3.043-1.767A5.575,5.575,0,0,0,1248.307,1134.38Z" transform="translate(-1245.399 -1131.528)" fill="#ff5822"/>
        <path id="Trazado_7234" data-name="Trazado 7234" d="M1249.666,1142.091a5.068,5.068,0,0,1-2.935-1.709,3.86,3.86,0,0,1,1.549-1.094A5.566,5.566,0,0,0,1249.666,1142.091Z" transform="translate(-1245.399 -1131.328)" fill="#ff5822"/>
        <path id="Trazado_7235" data-name="Trazado 7235" d="M1252.987,1139.309a3.458,3.458,0,0,1,1.548,1.062,5.289,5.289,0,0,1-3.019,1.765,5.326,5.326,0,0,0,1.471-2.827" transform="translate(-1245.276 -1131.328)" fill="#ff5822"/>
        <path id="Trazado_7236" data-name="Trazado 7236" d="M1250.438,1135.257v1.371h-2.054l.165-1.734Z" transform="translate(-1245.356 -1131.441)" fill="#ff5822"/>
        <path id="Trazado_7237" data-name="Trazado 7237" d="M1250.436,1137.02v1.371l-1.917.355-.14-1.726Z" transform="translate(-1245.356 -1131.387)" fill="#ff5822"/>
        <path id="Trazado_7238" data-name="Trazado 7238" d="M1252.874,1137.014l-.152,1.739-1.913-.364v-1.375Z" transform="translate(-1245.294 -1131.387)" fill="#ff5822"/>
        <path id="Trazado_7239" data-name="Trazado 7239" d="M1252.866,1136.634h-2.054v-1.38l1.887-.336Z" transform="translate(-1245.294 -1131.441)" fill="#ff5822"/>
      </g>
      <g id="Grupo_17509" data-name="Grupo 17509" transform="translate(0 5.458)">
        <path id="Trazado_7240" data-name="Trazado 7240" d="M1239.352,1140.292c0-.369,0-.668,0-.966a2.43,2.43,0,0,1,2.5-2.52c1.087-.013,2.175-.009,3.262,0a2.442,2.442,0,0,1,2.588,2.567c0,.279,0,.558,0,.921.587,0,1.124-.009,1.661,0a2.414,2.414,0,0,1,2.512,2.564q.009,2.966,0,5.935a2.436,2.436,0,0,1-2.6,2.62q-5.74.011-11.479,0a2.438,2.438,0,0,1-2.62-2.6q-.011-3,0-6a2.408,2.408,0,0,1,2.491-2.519C1238.209,1140.282,1238.748,1140.292,1239.352,1140.292Zm-2.083,4.115c0,1.526-.017,2.977.023,4.425a.706.706,0,0,0,.5.472q5.731.042,11.462,0a.706.706,0,0,0,.506-.471c.04-1.447.023-2.9.023-4.422-.264.11-.462.183-.652.273-1.626.771-3.257,1.531-4.87,2.327a1.524,1.524,0,0,1-1.478-.006c-1.612-.8-3.244-1.556-4.87-2.327C1237.727,1144.587,1237.529,1144.516,1237.269,1144.407Zm.887-1.985c.186.123.245.174.314.207,1.584.755,3.162,1.519,4.758,2.247a.97.97,0,0,0,.713-.043c1.514-.7,3.015-1.427,4.518-2.149a3.453,3.453,0,0,0,.38-.263Zm3.338-2.181h4.1c.01-.2.021-.35.023-.5.007-.835-.005-.847-.818-.849h-2.209c-1.206,0-1.206,0-1.125,1.237C1241.463,1140.149,1241.473,1140.17,1241.493,1140.241Z" transform="translate(-1235.173 -1136.797)" fill="#ff5822"/>
        <path id="Trazado_7241" data-name="Trazado 7241" d="M1237.216,1144.216c.26.109.458.181.647.271,1.626.771,3.258,1.53,4.87,2.327a1.524,1.524,0,0,0,1.478.006c1.614-.8,3.244-1.556,4.87-2.327.191-.09.389-.163.652-.273,0,1.524.017,2.975-.023,4.422a.706.706,0,0,1-.506.471q-5.731.042-11.462,0a.706.706,0,0,1-.5-.472C1237.2,1147.193,1237.216,1145.742,1237.216,1144.216Z" transform="translate(-1235.121 -1136.606)" fill="#fff" stroke="#fff" stroke-miterlimit="10" stroke-width="0.75"/>
        <path id="Trazado_7242" data-name="Trazado 7242" d="M1238.081,1142.281h10.683a3.453,3.453,0,0,1-.38.263c-1.5.722-3,1.449-4.518,2.149a.97.97,0,0,1-.713.043c-1.6-.728-3.175-1.492-4.758-2.247C1238.326,1142.455,1238.267,1142.4,1238.081,1142.281Z" transform="translate(-1235.099 -1136.656)" fill="#fff" stroke="#fff" stroke-miterlimit="10" stroke-width="0.75"/>
        <path id="Trazado_7243" data-name="Trazado 7243" d="M1244.638,1138.839c.812,0,.825.014.818.849,0,.151-.013.3-.023.5h-4.1c-.021-.072-.031-.092-.033-.113-.081-1.237-.081-1.237,1.125-1.237" transform="translate(-1235.017 -1136.744)" fill="#fff"/>
      </g>
    </g>
  </g>
</svg>
