<svg xmlns="http://www.w3.org/2000/svg" width="31.088" height="31.087" viewBox="0 0 31.088 31.087">
  <g id="Grupo_18303" data-name="Grupo 18303" transform="translate(-8082.537 -5233.108)">
    <ellipse id="Elipse_494" data-name="Elipse 494" cx="15.544" cy="15.544" rx="15.544" ry="15.544" transform="translate(8082.537 5233.108)" fill="#d6f5f0"/>
    <g id="Grupo_17560" data-name="Grupo 17560" transform="translate(8088.274 5238.818)">
      <path id="Trazado_7250" data-name="Trazado 7250" d="M1225.586,841.718c-2.423,0-1.634,4.182-1.478,8.637.158,4.473-.24,9.622,2.164,9.622,4.544,0,9.739-.171,11.429-1.9,0,0,.008-9.409.008-13.45a3.067,3.067,0,0,0-1.964-2.685C1233.993,841.306,1230.786,841.718,1225.586,841.718Z" transform="translate(-1218.961 -840.949)" fill="#fff"/>
      <g id="Grupo_17512" data-name="Grupo 17512" transform="translate(0 0)">
        <path id="Trazado_7251" data-name="Trazado 7251" d="M1235.192,860.611q-4.552.012-9.106,0a2.5,2.5,0,0,1-2.535-2.568q-.006-4.5,0-9v-.311h-3.791a.691.691,0,0,1-.772-.762c0-1.336-.006-2.672,0-4.007a2.977,2.977,0,0,1,3.193-3c.1.005.2.005.3.005q5.872,0,11.742,0a3.388,3.388,0,0,1,3.342,2.414,4.251,4.251,0,0,1,.154.967c.026.442.008.886.007,1.329a.691.691,0,1,1-1.372.008,14.452,14.452,0,0,0-.045-1.646,1.991,1.991,0,0,0-1.921-1.7c-.093,0-.186-.005-.278-.005h-9.594c-.008.025-.02.042-.016.049a3.526,3.526,0,0,1,.429,1.916c-.013,1.149.01,2.3.009,3.45q0,5.122-.013,10.243a1.151,1.151,0,0,0,.871,1.217,1.491,1.491,0,0,0,.361.033q4.489,0,8.978,0a1.141,1.141,0,0,0,1.222-1.238c0-.879,0-1.757,0-2.636a.683.683,0,0,1,1.345-.173,1.023,1.023,0,0,1,.023.254q0,1.308,0,2.615A2.5,2.5,0,0,1,1235.192,860.611Zm-.211-15.315a.686.686,0,0,1-.672.689c-.157.006-.314,0-.47,0s-.3,0-.448,0a.685.685,0,0,1-.011-1.369q.46-.011.918,0A.686.686,0,0,1,1234.98,845.3Zm-7.953,10.294q1.328,0,2.656,0a.685.685,0,1,1,0,1.369c-.45,0-.9,0-1.349,0-.435,0-.871,0-1.306,0a.7.7,0,0,1-.738-.7A.69.69,0,0,1,1227.027,855.589Zm-.733-2.982a.688.688,0,0,1,.732-.672c.364,0,.727,0,1.091,0s.741,0,1.111,0a.685.685,0,1,1,0,1.368q-1.112.011-2.224,0A.7.7,0,0,1,1226.294,852.607Zm2.959-2.966h0c-.763,0-1.527,0-2.291,0a.677.677,0,0,1-.334-1.258.889.889,0,0,1,.406-.105q2.238-.012,4.474,0a.686.686,0,1,1-.007,1.368C1230.751,849.643,1230,849.64,1229.253,849.64Zm-2.959-4.348a.694.694,0,0,1,.755-.677q1.992,0,3.984,0a.687.687,0,1,1,.006,1.37c-.664,0-1.328,0-1.992,0s-1.328,0-1.992,0A.7.7,0,0,1,1226.294,845.293Zm11.991,5.173c-.677,1.181-1.361,2.36-2.042,3.539-.221.384-.429.776-.67,1.145a1.18,1.18,0,0,1-.422.4c-.932.479-1.874.94-2.815,1.4a.686.686,0,0,1-1.045-.614c-.064-1-.129-2.008-.2-3.013a1.249,1.249,0,0,1,.171-.753q1.336-2.293,2.656-4.594a2.093,2.093,0,0,1,1.9-1.112,2.212,2.212,0,0,1,.416.066,4.613,4.613,0,0,1,1.8,1.045A2.018,2.018,0,0,1,1238.285,850.466Z" transform="translate(-1218.983 -840.951)"/>
        <path id="Trazado_7252" data-name="Trazado 7252" d="M1237.7,855.2a.683.683,0,0,0-1.345.173c-.005.879,0,1.757,0,2.636a1.141,1.141,0,0,1-1.222,1.238q-4.489,0-8.978,0a1.491,1.491,0,0,1-.361-.033,1.151,1.151,0,0,1-.871-1.217q.006-5.122.013-10.243c0-1.15-.022-2.3-.009-3.45a3.526,3.526,0,0,0-.429-1.916c0-.007.008-.024.016-.049h9.594c.092,0,.186,0,.278.005a2.049,2.049,0,0,1,1.513.749,1.891,1.891,0,0,1,.408.948,14.452,14.452,0,0,1,.045,1.646.691.691,0,1,0,1.372-.008c0-.443.019-.887-.007-1.329a4.251,4.251,0,0,0-.154-.967,3.388,3.388,0,0,0-3.342-2.414q-5.871,0-11.742,0c-.1,0-.2,0-.3-.005a2.977,2.977,0,0,0-3.193,3c-.007,1.335,0,2.671,0,4.007a.691.691,0,0,0,.772.762h3.791v.311q0,4.5,0,9a2.5,2.5,0,0,0,2.535,2.568q4.553.012,9.106,0a2.5,2.5,0,0,0,2.531-2.547q0-1.306,0-2.615A1.023,1.023,0,0,0,1237.7,855.2Zm-14.156-7.847h-3.175c0-.064-.011-.119-.011-.175,0-1.078-.006-2.155,0-3.233a1.591,1.591,0,0,1,3.177-.146C1223.566,844.971,1223.544,846.148,1223.544,847.348Z" transform="translate(-1218.983 -840.951)" fill="#30ceb3"/>
        <path id="Trazado_7253" data-name="Trazado 7253" d="M1236.175,846.9a2.2,2.2,0,0,0-.416-.066,2.093,2.093,0,0,0-1.9,1.112q-1.325,2.3-2.656,4.594a1.249,1.249,0,0,0-.171.753c.074,1,.139,2.009.2,3.013a.686.686,0,0,0,1.045.614c.941-.46,1.882-.921,2.815-1.4a1.18,1.18,0,0,0,.422-.4c.241-.37.449-.761.67-1.145.681-1.179,1.365-2.358,2.042-3.539a2.018,2.018,0,0,0-.258-2.49A4.612,4.612,0,0,0,1236.175,846.9Zm.881,2.823q-1.3,2.262-2.609,4.519a.372.372,0,0,1-.146.147c-.553.279-1.11.552-1.666.826a.783.783,0,0,1-.1.026c-.034-.545-.049-1.08-.109-1.608a1.258,1.258,0,0,1,.2-.822c.807-1.378,1.6-2.764,2.4-4.147a.712.712,0,0,1,1.125-.3c.21.12.421.24.629.365A.682.682,0,0,1,1237.056,849.727Z" transform="translate(-1218.928 -840.925)" fill="#30ceb3"/>
        <path id="Trazado_7254" data-name="Trazado 7254" d="M1232.2,848.939a.688.688,0,0,0-.73-.7q-2.236-.008-4.474,0a.889.889,0,0,0-.406.105.677.677,0,0,0,.335,1.258c.764.006,1.527,0,2.291,0h0c.749,0,1.5,0,2.248,0A.686.686,0,0,0,1232.2,848.939Z" transform="translate(-1218.95 -840.918)" fill="#30ceb3"/>
        <path id="Trazado_7255" data-name="Trazado 7255" d="M1227.021,845.969c.664,0,1.328,0,1.992,0s1.328,0,1.992,0a.687.687,0,1,0-.006-1.37q-1.992,0-3.984,0a.689.689,0,1,0,.006,1.37Z" transform="translate(-1218.95 -840.935)" fill="#30ceb3"/>
        <path id="Trazado_7256" data-name="Trazado 7256" d="M1227,856.893c.435,0,.871,0,1.306,0,.45,0,.9,0,1.349,0a.685.685,0,1,0,0-1.369q-1.328,0-2.656,0a.687.687,0,1,0,.005,1.37Z" transform="translate(-1218.95 -840.885)" fill="#30ceb3"/>
        <path id="Trazado_7257" data-name="Trazado 7257" d="M1229.2,853.253a.685.685,0,1,0,0-1.368c-.37,0-.741,0-1.111,0s-.727,0-1.091,0a.688.688,0,0,0-.732.672.7.7,0,0,0,.714.7Q1228.087,853.265,1229.2,853.253Z" transform="translate(-1218.95 -840.902)" fill="#30ceb3"/>
        <path id="Trazado_7258" data-name="Trazado 7258" d="M1233.317,844.6a.685.685,0,0,0,.011,1.369c.15,0,.3,0,.448,0s.313.005.47,0a.684.684,0,0,0-.011-1.368Q1233.777,844.59,1233.317,844.6Z" transform="translate(-1218.921 -840.935)" fill="#30ceb3"/>
        <path id="Trazado_7259" data-name="Trazado 7259" d="M1221.609,842.36a1.579,1.579,0,0,0-1.256,1.574c-.008,1.078,0,2.155,0,3.233,0,.055.007.111.011.175h3.175c0-1.2.022-2.377-.007-3.553A1.578,1.578,0,0,0,1221.609,842.36Z" transform="translate(-1218.977 -840.945)" fill="#fff"/>
        <path id="Trazado_7260" data-name="Trazado 7260" d="M1236.778,848.731c-.208-.125-.419-.244-.629-.365a.712.712,0,0,0-1.125.3c-.8,1.382-1.592,2.768-2.4,4.147a1.258,1.258,0,0,0-.2.822c.06.528.075,1.063.109,1.608a.79.79,0,0,0,.1-.026c.557-.274,1.113-.547,1.667-.826a.372.372,0,0,0,.146-.147q1.308-2.259,2.609-4.519A.682.682,0,0,0,1236.778,848.731Z" transform="translate(-1218.922 -840.919)" fill="#fff"/>
      </g>
    </g>
  </g>
</svg>
