<svg xmlns="http://www.w3.org/2000/svg" width="31.198" height="31.199" viewBox="0 0 31.198 31.199">
  <g id="Grupo_18295" data-name="Grupo 18295" transform="translate(-7345.148 -5182.042)">
    <ellipse id="Elipse_483" data-name="Elipse 483" cx="15.599" cy="15.599" rx="15.599" ry="15.599" transform="translate(7345.148 5182.042)" fill="#fceed6"/>
    <g id="Grupo_17499" data-name="Grupo 17499" transform="translate(7348.366 5185.262)">
      <path id="Trazado_7191" data-name="Trazado 7191" d="M341.418,821.67a2.58,2.58,0,0,1-1.087-.427,2.2,2.2,0,0,1-.9-1.791c-.005-.233.01-.468-.007-.7a.293.293,0,0,0-.128-.213,2.2,2.2,0,0,1-1.32-2.126,20.2,20.2,0,0,0-.07-2.1,5.012,5.012,0,0,0-1.211-2.694,10.35,10.35,0,0,1-1.684-2.634,8.815,8.815,0,0,1,1.97-9.611,8.475,8.475,0,0,1,6.279-2.462,8.713,8.713,0,0,1,8.388,7.351,8.48,8.48,0,0,1-1.806,6.821,6.718,6.718,0,0,0-1.423,2.387,10.622,10.622,0,0,0-.274,1.684c-.043.447,0,.9-.011,1.353a2.131,2.131,0,0,1-1.3,2.011.24.24,0,0,0-.156.255,6.01,6.01,0,0,1-.084,1.247,2.062,2.062,0,0,1-1.807,1.615.537.537,0,0,0-.09.032Zm-1.257-7.315v-.317c0-2.007,0-4.013.006-6.021a1.556,1.556,0,0,1,.148-.646c.667-1.366,1.355-2.724,2.032-4.086a.75.75,0,0,1,1.431,0c.677,1.362,1.364,2.719,2.032,4.086a1.534,1.534,0,0,1,.148.645c.011,2.015.006,4.031.006,6.046v.288h.716c.16-.568.286-1.118.47-1.647a8.521,8.521,0,0,1,1.559-2.511,7.252,7.252,0,0,0,.512-8.385,7.239,7.239,0,0,0-13.411,3.642,7.2,7.2,0,0,0,1.775,4.955,7.166,7.166,0,0,1,1.4,2.3c.186.535.306,1.094.461,1.655Zm4.346-5.365a4.727,4.727,0,0,1-2.881,0v5.356h2.881Zm-5.072,6.835v.58a.752.752,0,0,0,.854.862h2.826c.935,0,1.868,0,2.8,0a.689.689,0,0,0,.742-.557,6.136,6.136,0,0,0,.008-.883Zm1.455,2.9c0,.285-.013.551,0,.814a.7.7,0,0,0,.695.671q1.471.015,2.945,0a.683.683,0,0,0,.689-.595,8.179,8.179,0,0,0,.007-.891Zm3.385-11.2-1.213-2.422-1.21,2.418A3.218,3.218,0,0,0,344.275,807.529Z" transform="translate(-330.682 -796.91)" fill="#f2a933"/>
      <path id="Trazado_7192" data-name="Trazado 7192" d="M355.3,806.508a.9.9,0,0,1-.974.535c-.384-.024-.772,0-1.158-.006a.726.726,0,1,1,0-1.449c.386-.005.773.019,1.157-.007a.889.889,0,0,1,.971.539Z" transform="translate(-330.536 -796.84)" fill="#f2a933"/>
      <path id="Trazado_7193" data-name="Trazado 7193" d="M331.734,800.754a1.807,1.807,0,0,1,.438.242c.347.312.672.648.995.986a.724.724,0,1,1-1.022,1.023q-.522-.5-1.022-1.027a.679.679,0,0,1-.133-.784A.763.763,0,0,1,331.734,800.754Z" transform="translate(-330.71 -796.879)" fill="#f2a933"/>
      <path id="Trazado_7194" data-name="Trazado 7194" d="M355.089,801.579a1.859,1.859,0,0,1-.244.435c-.314.346-.649.671-.987.994A.723.723,0,1,1,352.827,802c.332-.35.676-.69,1.025-1.024a.686.686,0,0,1,.8-.142A.762.762,0,0,1,355.089,801.579Z" transform="translate(-330.534 -796.879)" fill="#f2a933"/>
      <path id="Trazado_7195" data-name="Trazado 7195" d="M331.72,811.872a.738.738,0,0,1-.717-.4.624.624,0,0,1,.056-.729c.384-.421.787-.829,1.212-1.21a.711.711,0,0,1,.989.994c-.381.426-.794.822-1.211,1.212A.859.859,0,0,1,331.72,811.872Z" transform="translate(-330.71 -796.809)" fill="#f2a933"/>
      <path id="Trazado_7196" data-name="Trazado 7196" d="M355.087,811.07a.75.75,0,0,1-.407.723.642.642,0,0,1-.749-.072c-.4-.37-.792-.756-1.161-1.16a.714.714,0,0,1,1.011-1c.391.358.766.737,1.126,1.127A1.208,1.208,0,0,1,355.087,811.07Z" transform="translate(-330.534 -796.809)" fill="#f2a933"/>
      <path id="Trazado_7197" data-name="Trazado 7197" d="M332.144,807.038c-.234,0-.468.006-.7,0a.723.723,0,1,1,.011-1.447c.476-.007.952-.008,1.428,0a.723.723,0,1,1,.012,1.446C332.644,807.046,332.394,807.038,332.144,807.038Z" transform="translate(-330.712 -796.84)" fill="#f2a933"/>
      <path id="Trazado_7198" data-name="Trazado 7198" d="M340.149,814.343h-.715c-.154-.562-.274-1.12-.461-1.655a7.165,7.165,0,0,0-1.4-2.3,7.2,7.2,0,0,1-1.775-4.955,7.254,7.254,0,1,1,12.9,4.742,8.52,8.52,0,0,0-1.559,2.511c-.184.529-.309,1.08-.47,1.647h-.716v-.288c0-2.015.005-4.031-.006-6.046a1.534,1.534,0,0,0-.148-.645c-.668-1.367-1.355-2.724-2.032-4.086a.75.75,0,0,0-1.431,0c-.677,1.362-1.365,2.72-2.032,4.086a1.554,1.554,0,0,0-.148.646c-.01,2.007-.006,4.013-.006,6.021Z" transform="translate(-330.671 -796.899)" fill="#fff"/>
      <path id="Trazado_7199" data-name="Trazado 7199" d="M344.448,808.892v5.36h-2.881V808.9A4.727,4.727,0,0,0,344.448,808.892Z" transform="translate(-330.624 -796.813)" fill="#fff"/>
      <path id="Trazado_7200" data-name="Trazado 7200" d="M339.394,815.672h7.232a6.137,6.137,0,0,1-.008.883.689.689,0,0,1-.742.557c-.935,0-1.868,0-2.8,0h-2.826a.752.752,0,0,1-.854-.862Z" transform="translate(-330.641 -796.758)" fill="#fff"/>
      <path id="Trazado_7201" data-name="Trazado 7201" d="M340.837,818.551h4.338a8.179,8.179,0,0,1-.007.891.683.683,0,0,1-.689.595q-1.473.012-2.945,0a.7.7,0,0,1-.695-.672C340.824,819.1,340.837,818.836,340.837,818.551Z" transform="translate(-330.63 -796.734)" fill="#fff"/>
      <path id="Trazado_7202" data-name="Trazado 7202" d="M344.215,807.463a3.218,3.218,0,0,1-2.423,0l1.21-2.419Z" transform="translate(-330.622 -796.844)" fill="#fff"/>
    </g>
  </g>
</svg>
