<svg xmlns="http://www.w3.org/2000/svg" width="30.947" height="30.947" viewBox="0 0 30.947 30.947">
  <g id="Grupo_18308" data-name="Grupo 18308" transform="translate(-7385.148 -5382.102)">
    <circle id="Elipse_508" data-name="Elipse 508" cx="15.474" cy="15.474" r="15.474" transform="translate(7385.148 5382.102)" fill="#d6f5f0"/>
    <g id="Grupo_18307" data-name="Grupo 18307" transform="translate(7302.986 4683.553)">
      <path id="Trazado_7218" data-name="Trazado 7218" d="M93.459,710.206c0-.37,0-.669,0-.967a2.433,2.433,0,0,1,2.5-2.522c1.087-.013,2.175-.009,3.262,0a2.441,2.441,0,0,1,2.589,2.567c0,.28,0,.559,0,.923.587,0,1.124-.009,1.661,0a2.416,2.416,0,0,1,2.513,2.566q.009,2.969,0,5.937a2.437,2.437,0,0,1-2.6,2.621q-5.742.011-11.483,0a2.439,2.439,0,0,1-2.621-2.6q-.01-3,0-6a2.407,2.407,0,0,1,2.492-2.52C92.315,710.2,92.854,710.206,93.459,710.206Zm-2.085,4.116c0,1.527-.017,2.978.023,4.428a.709.709,0,0,0,.5.471q5.733.042,11.467,0a.707.707,0,0,0,.506-.47c.04-1.449.023-2.9.023-4.425-.264.11-.462.183-.653.273-1.626.772-3.258,1.533-4.872,2.328a1.523,1.523,0,0,1-1.478-.005c-1.614-.8-3.246-1.557-4.873-2.329C91.833,714.5,91.635,714.431,91.374,714.322Zm.888-1.985c.186.123.245.174.314.207,1.584.755,3.164,1.52,4.76,2.248a.966.966,0,0,0,.714-.043c1.514-.7,3.016-1.427,4.52-2.15a3.342,3.342,0,0,0,.379-.262Zm3.339-2.182h4.1c.009-.2.022-.35.023-.5.007-.835,0-.848-.818-.85h-2.21c-1.207,0-1.207,0-1.125,1.237A.725.725,0,0,0,95.6,710.155Z" fill="#30ceb3"/>
      <path id="Trazado_7219" data-name="Trazado 7219" d="M91.374,714.322c.261.109.459.181.648.271,1.627.772,3.259,1.531,4.873,2.329a1.523,1.523,0,0,0,1.478.005c1.614-.795,3.246-1.556,4.872-2.328.191-.09.389-.163.653-.273,0,1.526.017,2.976-.023,4.425a.707.707,0,0,1-.506.47q-5.733.042-11.467,0a.709.709,0,0,1-.5-.471C91.357,717.3,91.374,715.849,91.374,714.322Z" fill="#fff" stroke="#fff" stroke-miterlimit="10" stroke-width="0.75"/>
      <path id="Trazado_7220" data-name="Trazado 7220" d="M92.262,712.337h10.687a3.342,3.342,0,0,1-.379.262c-1.5.723-3.006,1.451-4.52,2.15a.966.966,0,0,1-.714.043c-1.6-.728-3.176-1.493-4.76-2.248C92.507,712.511,92.448,712.46,92.262,712.337Z" fill="#fff" stroke="#fff" stroke-miterlimit="10" stroke-width="0.75"/>
    </g>
  </g>
</svg>
