<svg xmlns="http://www.w3.org/2000/svg" width="30.78" height="30.78" viewBox="0 0 30.78 30.78">
  <g id="Grupo_18306" data-name="Grupo 18306" transform="translate(-7606.404 -5623.323)">
    <ellipse id="Elipse_482" data-name="Elipse 482" cx="15.39" cy="15.39" rx="15.39" ry="15.39" transform="translate(7606.404 5623.323)" fill="#fbe5c2"/>
    <g id="Grupo_17516" data-name="Grupo 17516" transform="translate(7607.123 5624.615)">
      <path id="Trazado_7271" data-name="Trazado 7271" d="M598.031,1239.333a2.12,2.12,0,0,0,1.523-3.447,2.11,2.11,0,0,0-3.738,1.149,2.379,2.379,0,0,1-.681,1.524c-.3.3-.49.309-.79.011q-1.316-1.313-2.63-2.628c-.361-.361-.568-.363-.924-.008q-1.111,1.109-2.22,2.22c-.057.057-.109.117-.218.235a6.858,6.858,0,0,0,.782.178,2.934,2.934,0,1,1-3.2,3.3c-.037-.276-.11-.546-.18-.875-.122.11-.184.161-.242.219q-1.12,1.117-2.239,2.239c-.339.339-.338.538,0,.881l2.531,2.531c.418.417.4.7-.071,1.058a2.479,2.479,0,0,1-1.185.474,4.172,4.172,0,0,0-.78.209,2.286,2.286,0,0,0-1.215,1.559,2.1,2.1,0,1,0,4.164.581,2.493,2.493,0,0,1,.581-1.455.531.531,0,0,1,.892-.038q1.309,1.3,2.611,2.608c.333.333.549.335.882,0l2.63-2.629c.331-.331.529-.323.844.032a2.325,2.325,0,0,1,.589,1.393,2.112,2.112,0,1,0,2.223-2.265,2.306,2.306,0,0,1-1.444-.664.424.424,0,0,1-.014-.691c.068-.07.137-.137.206-.205h0l2.309-2.307h0c.073-.072.144-.143.216-.216a.5.5,0,0,0,0-.83q-1.332-1.335-2.667-2.669c-.315-.316-.313-.505,0-.809A2.328,2.328,0,0,1,598.031,1239.333Z" transform="translate(-572.703 -1234.282)" fill="#fff"/>
      <path id="Trazado_7272" data-name="Trazado 7272" d="M587.709,1250.025a6.335,6.335,0,0,0-.194.773,2.949,2.949,0,0,1-2.853,2.693,2.918,2.918,0,0,1-2.964-2.463,2.584,2.584,0,0,1-.025-.542h0a2.811,2.811,0,0,1,.026-.327c.007-.065.013-.13.02-.194a.588.588,0,0,1,.057-.2,2.559,2.559,0,0,1,1.307-1.729l.006,0a.535.535,0,0,1,.123-.074c.1-.037.2-.069.3-.1.307-.094.623-.167.933-.253.2-.054.4-.105.642-.17-.1-.111-.144-.174-.2-.23q-1.138-1.14-2.279-2.279a.5.5,0,0,0-.824,0q-1.307,1.3-2.61,2.609c-.351.35-.624.334-.946-.051a2.294,2.294,0,0,1-.53-1.3,2.113,2.113,0,0,0-3.811-1.12l-.031.041A2.139,2.139,0,0,0,573.6,1247a2.1,2.1,0,0,0,1.925,1.435,2.2,2.2,0,0,1,1.309.583.513.513,0,0,1,.018.848q-1.292,1.3-2.589,2.591c-.375.375-.375.57,0,.945q1.3,1.305,2.609,2.61c.317.317.308.526-.032.827a2.176,2.176,0,0,1-1.308.581,2.116,2.116,0,1,0,2.158,2.335,2.408,2.408,0,0,1,.647-1.51.444.444,0,0,1,.75-.016q1.328,1.321,2.65,2.647c.37.37.567.368.944-.009q1.305-1.3,2.61-2.608c.308-.308.507-.3.811.015a2.485,2.485,0,0,1,.676,1.529,2.082,2.082,0,0,0,2.063,1.9,2.107,2.107,0,0,0,.558-4.15,3.593,3.593,0,0,0-.515-.084,2.283,2.283,0,0,1-1.415-.724.434.434,0,0,1,.029-.694q1.332-1.337,2.667-2.67c.353-.353.352-.548,0-.9Z" transform="translate(-572.654 -1234.331)" fill="#fff"/>
      <path id="Trazado_7273" data-name="Trazado 7273" d="M598.237,1240.129a2.939,2.939,0,1,0-3.307-3.148,5.639,5.639,0,0,1-.216.828c-.14-.134-.213-.2-.283-.271-.766-.765-1.528-1.535-2.3-2.3a1.269,1.269,0,0,0-1.849-.021c-.931.913-1.848,1.839-2.767,2.763a.48.48,0,0,0,.022.786,2.483,2.483,0,0,0,1.495.621,2.106,2.106,0,1,1-2.351,2.181,2.276,2.276,0,0,0-.512-1.253c-.321-.4-.579-.412-.937-.054-.8.8-1.592,1.6-2.4,2.392a1.753,1.753,0,0,0-.685,1.175,1.524,1.524,0,0,0-1.021.53c-.779.792-1.567,1.573-2.421,2.427a5.251,5.251,0,0,1-.183-.72,2.922,2.922,0,0,0-3.384-2.7,2.787,2.787,0,0,0-1.987,1.253,3.207,3.207,0,0,0-.4,2.435h0a2.973,2.973,0,0,0,2.623,2.144,5.8,5.8,0,0,1,.72.177c-.118.126-.177.193-.241.257l-2.22,2.22a1.3,1.3,0,0,0-.008,2.029q1.108,1.111,2.219,2.22c.07.07.137.142.269.28-.339.075-.609.158-.883.189a2.938,2.938,0,1,0,3.286,3.141,5.661,5.661,0,0,1,.185-.755l2.437,2.438a1.323,1.323,0,0,0,2.107.009q1.111-1.11,2.221-2.219c.061-.061.128-.115.26-.234a8.58,8.58,0,0,1,.216.9,2.837,2.837,0,0,0,1.444,2.218,6.963,6.963,0,0,0,1.1.408h.772a.467.467,0,0,1,.1-.045,2.9,2.9,0,0,0,2.441-3.058,2.935,2.935,0,0,0-2.639-2.752,8.054,8.054,0,0,1-.889-.223c.125-.131.186-.2.25-.262.707-.707,1.41-1.42,2.125-2.12a1.645,1.645,0,0,0,.6-1.066,1.716,1.716,0,0,0,1.127-.664l2.311-2.312c.074.267.14.479.191.7.033.142.035.29.063.435a2.937,2.937,0,1,0,3.057-3.551,5.079,5.079,0,0,1-.644-.162l-.02-.089c.171-.162.348-.319.512-.488l1.9-1.9a1.31,1.31,0,0,0,.009-2.049q-1.109-1.112-2.222-2.218a1.561,1.561,0,0,0-.254-.169l.042-.137A8.885,8.885,0,0,1,598.237,1240.129Zm-8.076,13.2q-1.332,1.335-2.667,2.67a.434.434,0,0,0-.029.694,2.282,2.282,0,0,0,1.415.724,3.63,3.63,0,0,1,.515.083,2.107,2.107,0,0,1-.558,4.15,2.081,2.081,0,0,1-2.063-1.9,2.485,2.485,0,0,0-.676-1.529c-.3-.313-.5-.323-.811-.015q-1.305,1.3-2.61,2.608c-.377.377-.574.379-.944.009q-1.325-1.324-2.65-2.647a.444.444,0,0,0-.75.016,2.409,2.409,0,0,0-.648,1.51,2.11,2.11,0,1,1-2.158-2.335,2.178,2.178,0,0,0,1.308-.581c.34-.3.349-.51.032-.828q-1.3-1.307-2.609-2.61c-.376-.375-.376-.57,0-.945q1.293-1.3,2.589-2.591a.513.513,0,0,0-.018-.849,2.2,2.2,0,0,0-1.309-.583,2.1,2.1,0,0,1-1.925-1.435,2.139,2.139,0,0,1,.258-1.888l.031-.041a2.113,2.113,0,0,1,3.811,1.12,2.294,2.294,0,0,0,.53,1.3c.322.385.595.4.946.051q1.307-1.3,2.61-2.609a.5.5,0,0,1,.824,0q1.141,1.138,2.279,2.278c.056.056.1.12.2.23-.246.065-.445.115-.643.17-.31.085-.626.158-.933.252-.1.031-.2.064-.3.1a.533.533,0,0,0-.123.073l-.006,0a2.558,2.558,0,0,0-1.307,1.729.586.586,0,0,0-.057.2c-.007.064-.013.129-.02.194a2.813,2.813,0,0,0-.026.327h0a2.58,2.58,0,0,0,.025.542,2.918,2.918,0,0,0,2.964,2.463,2.948,2.948,0,0,0,2.852-2.692,6.34,6.34,0,0,1,.194-.773l2.456,2.458C590.513,1252.782,590.514,1252.977,590.161,1253.33Zm6.369-12.527q1.334,1.335,2.667,2.668a.5.5,0,0,1,0,.829c-.072.073-.143.144-.216.216h0l-2.309,2.307h.005c-.069.068-.138.135-.206.2a.425.425,0,0,0,.014.691,2.307,2.307,0,0,0,1.444.663,2.114,2.114,0,1,1-2.223,2.265,2.325,2.325,0,0,0-.589-1.393c-.315-.354-.513-.363-.844-.031l-2.63,2.629c-.333.333-.549.331-.882,0q-1.305-1.3-2.611-2.608a.531.531,0,0,0-.892.038,2.492,2.492,0,0,0-.581,1.455,2.1,2.1,0,1,1-4.164-.581,2.286,2.286,0,0,1,1.215-1.56,4.169,4.169,0,0,1,.78-.209,2.478,2.478,0,0,0,1.184-.474c.47-.363.488-.641.071-1.058l-2.531-2.531c-.343-.343-.344-.542,0-.881q1.117-1.122,2.239-2.239c.058-.057.119-.108.242-.219.07.329.143.6.18.875a2.938,2.938,0,1,0,3.2-3.3,6.849,6.849,0,0,1-.782-.178c.108-.118.161-.178.218-.235q1.108-1.112,2.22-2.22c.356-.355.563-.353.924.008q1.316,1.314,2.63,2.628c.3.3.492.294.79-.011a2.378,2.378,0,0,0,.681-1.524,2.11,2.11,0,0,1,3.738-1.149,2.12,2.12,0,0,1-1.523,3.447,2.326,2.326,0,0,0-1.443.666C596.217,1240.3,596.215,1240.486,596.53,1240.8Z" transform="translate(-572.649 -1234.278)" fill="#f2a933" stroke="#f2a933" stroke-miterlimit="10" stroke-width="0.5"/>
    </g>
  </g>
</svg>
