<svg xmlns="http://www.w3.org/2000/svg" width="48.587" height="48.612" viewBox="0 0 48.587 48.612">
  <g id="Grupo_12778" data-name="Grupo 12778" transform="translate(-936.496 -301.244)">
    <path id="Trazado_4730" data-name="Trazado 4730" d="M-950.536,4645.462v3.039c-.039.312-.082.623-.116.935a23.9,23.9,0,0,1-5.33,12.861,23.925,23.925,0,0,1-14.625,8.617c-.9.163-1.809.253-2.714.376h-3.038a2.735,2.735,0,0,0-.365-.079,23.432,23.432,0,0,1-14-5.871,23.726,23.726,0,0,1-8.281-20.8,23.042,23.042,0,0,1,5.956-13.627,23.788,23.788,0,0,1,17.805-8.225,23.056,23.056,0,0,1,12.836,3.417,23.955,23.955,0,0,1,11.5,16.688C-950.745,4643.674-950.659,4644.572-950.536,4645.462Zm-24.308-12.342c-1.993,0-3.987-.037-5.978.011a8.317,8.317,0,0,0-4.535,1.335,7.5,7.5,0,0,0-3.319,6.442c-.082,4.048-.051,8.1-.006,12.149a7.99,7.99,0,0,0,1.328,4.441,7.507,7.507,0,0,0,6.441,3.32c4.047.083,8.1.065,12.147,0a7.758,7.758,0,0,0,5.368-2.063,7.867,7.867,0,0,0,2.4-5.8c.081-3.321.083-6.645.086-9.967a29.365,29.365,0,0,0-.169-2.936,7.33,7.33,0,0,0-6.844-6.825C-970.221,4633.038-974.843,4633.063-974.844,4633.12Z" transform="translate(1935.619 -4321.435)" fill="#fff"/>
    <path id="Trazado_4731" data-name="Trazado 4731" d="M-892.73,4708.526a7.33,7.33,0,0,1,6.844,6.824,29.374,29.374,0,0,1,.169,2.936c0,3.323-.005,6.646-.086,9.967a7.867,7.867,0,0,1-2.4,5.8,7.76,7.76,0,0,1-5.368,2.063c-4.048.062-8.1.08-12.147,0a7.506,7.506,0,0,1-6.441-3.319,7.99,7.99,0,0,1-1.328-4.441c-.045-4.049-.076-8.1.006-12.149a7.5,7.5,0,0,1,3.319-6.442,8.317,8.317,0,0,1,4.535-1.335C-903.638,4708.381-895.028,4708.335-892.73,4708.526Zm-18.4,13.7c.061,2.149.065,4.255.192,6.354.182,2.993,2,4.9,4.987,4.982q6.326.17,12.66,0a4.787,4.787,0,0,0,4.921-4.935q.166-6.328,0-12.664A4.793,4.793,0,0,0-893.32,4711c-3.981-.126-7.968-.083-11.952-.08a6.51,6.51,0,0,0-3.073.691,4.826,4.826,0,0,0-2.587,4.254C-911.064,4717.995-911.073,4720.132-911.135,4722.222Z" transform="translate(1860.428 -4396.732)" fill="#33c"/>
    <path id="Trazado_4732" data-name="Trazado 4732" d="M-893.776,4740.467c.061-2.09.071-4.227.2-6.357a4.826,4.826,0,0,1,2.587-4.255,6.51,6.51,0,0,1,3.073-.691c3.984,0,7.971-.046,11.952.08a4.793,4.793,0,0,1,4.947,4.958q.168,6.327,0,12.663a4.787,4.787,0,0,1-4.921,4.935q-6.326.168-12.66,0c-2.983-.08-4.8-1.989-4.987-4.982C-893.711,4744.723-893.715,4742.617-893.776,4740.467Zm11.475-7.105a7.152,7.152,0,0,0-7.151,7.149,7.156,7.156,0,0,0,7.173,7.175,7.152,7.152,0,0,0,7.15-7.15A7.151,7.151,0,0,0-882.3,4733.362Zm7.465,1.377a1.659,1.659,0,0,0,1.664-1.647,1.66,1.66,0,0,0-1.673-1.687,1.655,1.655,0,0,0-1.661,1.7A1.652,1.652,0,0,0-874.836,4734.739Z" transform="translate(1843.068 -4414.978)" fill="#fff"/>
    <path id="Trazado_4733" data-name="Trazado 4733" d="M-851.03,4763.791a7.151,7.151,0,0,1,7.172,7.174,7.153,7.153,0,0,1-7.15,7.15,7.156,7.156,0,0,1-7.173-7.176A7.151,7.151,0,0,1-851.03,4763.791Zm4.662,7.139a4.657,4.657,0,0,0-4.662-4.628,4.659,4.659,0,0,0-4.639,4.651,4.66,4.66,0,0,0,4.686,4.652A4.658,4.658,0,0,0-846.368,4770.93Z" transform="translate(1811.797 -4445.407)" fill="#33c"/>
    <path id="Trazado_4734" data-name="Trazado 4734" d="M-749.931,4751.011a1.652,1.652,0,0,1-1.67-1.638,1.655,1.655,0,0,1,1.661-1.7,1.661,1.661,0,0,1,1.673,1.687A1.659,1.659,0,0,1-749.931,4751.011Z" transform="translate(1718.164 -4431.25)" fill="#33c"/>
    <path id="Trazado_4735" data-name="Trazado 4735" d="M-828.2,4789.089a4.658,4.658,0,0,1-4.615,4.675,4.66,4.66,0,0,1-4.686-4.652,4.659,4.659,0,0,1,4.639-4.651A4.657,4.657,0,0,1-828.2,4789.089Z" transform="translate(1793.629 -4463.566)" fill="#fff"/>
  </g>
</svg>
