<svg xmlns="http://www.w3.org/2000/svg" width="48.596" height="48.6" viewBox="0 0 48.596 48.6">
  <g id="Grupo_16741" data-name="Grupo 16741" transform="translate(-485.54 -1155.616)">
    <path id="Trazado_6246" data-name="Trazado 6246" d="M534.135,1179.941a24.3,24.3,0,1,1-23.819-24.32A24.294,24.294,0,0,1,534.135,1179.941Zm-27.55-4.675c-5.98-.564-10.591,3.2-11.245,8.957-.569,5.006,3.453,10.026,8.645,10.79a10.032,10.032,0,0,0,11.393-9.855c.06-3.547.011-7.095.011-10.9,2.44,1.353,4.75,2.366,7.418,2.186v-5.271c-4.734-.531-6.858-3.507-7.685-7.575h-5.182c0,2.974,0,5.813,0,8.653,0,4.239.045,8.479-.019,12.717a4.626,4.626,0,0,1-5.027,4.641,4.528,4.528,0,0,1-4.024-4.71c.05-2.589,1.932-4.324,4.7-4.337.32,0,.641,0,1.01,0Z" transform="translate(0 0)" fill="#fff"/>
  </g>
</svg>
