<svg id="Componente_51_1" data-name="Componente 51 – 1" xmlns="http://www.w3.org/2000/svg" width="181.466" height="181.574" viewBox="0 0 181.466 181.574">
  <g id="Grupo_16737" data-name="Grupo 16737" transform="translate(-2581.366 -436.667)">
    <path id="Trazado_6174" data-name="Trazado 6174" d="M2632.988,448.437a.332.332,0,0,1,.408-.2.332.332,0,0,1,.208.42.333.333,0,0,1-.165.183.322.322,0,0,1-.244.018.329.329,0,0,1-.207-.419Zm1.024,1.857.233-.114,3.1,6.3-.234.115Z" fill="#33c"/>
    <path id="Trazado_6175" data-name="Trazado 6175" d="M2640.194,452.317l-6.742-7.029.252-.106,6.523,6.811-.345-9.425.252-.106.347,9.733Z" fill="#33c"/>
    <path id="Trazado_6176" data-name="Trazado 6176" d="M2650.436,448.672l-1.688-2.066-4.777,1.536-.169,2.662-.26.083.646-9.765.3-.1,6.211,7.563Zm-6.451-.781,4.6-1.48-4.171-5.077Z" fill="#33c"/>
    <path id="Trazado_6177" data-name="Trazado 6177" d="M2658.133,437.722l1.79,8.922-.256.051-1.72-8.578-2.46,6.645-.1.02-4.831-5.182,1.719,8.578-.254.051-1.79-8.922.332-.067,4.8,5.162,2.44-6.614Z" fill="#33c"/>
    <path id="Trazado_6178" data-name="Trazado 6178" d="M2669.595,444.571a4.678,4.678,0,1,1,1.139-3.4A4.508,4.508,0,0,1,2669.595,444.571Zm-6.431.283a4.408,4.408,0,0,0,6.238-.433,4.469,4.469,0,0,0-.435-6.276,4.407,4.407,0,0,0-6.238.432,4.472,4.472,0,0,0,.435,6.277Z" fill="#33c"/>
    <path id="Trazado_6179" data-name="Trazado 6179" d="M2675.219,446.029a3.706,3.706,0,0,1-2.085-.638,2.608,2.608,0,0,1-1.055-1.474l.226-.122a2.388,2.388,0,0,0,.972,1.406,3.476,3.476,0,0,0,1.95.6,2.7,2.7,0,0,0,1.938-.551,2.042,2.042,0,0,0,.71-1.529,1.581,1.581,0,0,0-.623-1.356,6.263,6.263,0,0,0-1.911-.944,10.748,10.748,0,0,1-1.117-.416,5.089,5.089,0,0,1-.842-.485,1.758,1.758,0,0,1-.594-.684,1.913,1.913,0,0,1-.171-.9,2.182,2.182,0,0,1,.806-1.644,2.755,2.755,0,0,1,1.953-.615,2.774,2.774,0,0,1,2.678,1.928l-.212.109a2.5,2.5,0,0,0-2.474-1.8,2.412,2.412,0,0,0-1.8.575,2.023,2.023,0,0,0-.694,1.459,1.472,1.472,0,0,0,.132.687,1.967,1.967,0,0,0,.333.513,2.311,2.311,0,0,0,.6.417q.409.216.685.33t.828.314a7.091,7.091,0,0,1,2.032,1.047,1.731,1.731,0,0,1,.651,1.48,2.2,2.2,0,0,1-.821,1.713A3.039,3.039,0,0,1,2675.219,446.029Z" fill="#33c"/>
    <path id="Trazado_6180" data-name="Trazado 6180" d="M2680.1,446.267a.33.33,0,0,1-.453-.043.33.33,0,0,1,.044-.466.329.329,0,0,1,.454.043.331.331,0,0,1-.045.466Zm-.157-2.144.66-6.989.258.024-.659,6.989Z" fill="#33c"/>
    <path id="Trazado_6181" data-name="Trazado 6181" d="M2686.776,442.668l.256.045-1.2,6.916-.256-.044Zm.266-2.105a.323.323,0,0,1,.239-.05.314.314,0,0,1,.209.129.3.3,0,0,1,.056.247.309.309,0,0,1-.136.214.323.323,0,0,1-.239.05.317.317,0,0,1-.209-.129.3.3,0,0,1-.056-.247A.309.309,0,0,1,2687.042,440.563Z" fill="#33c"/>
    <path id="Trazado_6182" data-name="Trazado 6182" d="M2690.577,447.939l-1.312-9.65.265.062,1.264,9.345,5.269-7.821.265.063-5.447,8.073Z" fill="#33c"/>
    <path id="Trazado_6183" data-name="Trazado 6183" d="M2701,451.023l-.149-2.664-4.765-1.571-1.7,2.053-.26-.086,6.27-7.514.3.1.57,9.769Zm-4.754-4.429,4.593,1.514-.383-6.559Z" fill="#33c"/>
    <path id="Trazado_6184" data-name="Trazado 6184" d="M2713.674,446.7l-3.806,8.267-.236-.11,3.659-7.947-5.9,3.925-.095-.044-.855-7.034-3.659,7.947-.236-.108,3.806-8.267.307.142.842,7,5.865-3.911Z" fill="#33c"/>
    <path id="Trazado_6185" data-name="Trazado 6185" d="M2718.917,459a4.676,4.676,0,1,1,2.921-2.072A4.507,4.507,0,0,1,2718.917,459Zm-5.363-3.559a4.411,4.411,0,0,0,5.3,3.325,4.473,4.473,0,0,0,3.345-5.328,4.41,4.41,0,0,0-5.3-3.326,4.475,4.475,0,0,0-3.345,5.329Z" fill="#33c"/>
    <path id="Trazado_6186" data-name="Trazado 6186" d="M2722.573,463.472a3.712,3.712,0,0,1-1.307-1.746,2.607,2.607,0,0,1,.018-1.812l.254.034a2.39,2.39,0,0,0-.045,1.709,3.464,3.464,0,0,0,1.225,1.63,2.7,2.7,0,0,0,1.888.7,2.046,2.046,0,0,0,1.477-.816,1.587,1.587,0,0,0,.3-1.462,6.28,6.28,0,0,0-.986-1.891,10.574,10.574,0,0,1-.658-.995,5.1,5.1,0,0,1-.393-.887,1.758,1.758,0,0,1-.076-.9,1.909,1.909,0,0,1,.395-.83,2.18,2.18,0,0,1,1.62-.852,2.752,2.752,0,0,1,1.94.656,2.777,2.777,0,0,1,1.025,3.136l-.236-.038a2.494,2.494,0,0,0-.934-2.915,2.409,2.409,0,0,0-1.789-.594,2.026,2.026,0,0,0-1.421.767,1.491,1.491,0,0,0-.3.634,1.964,1.964,0,0,0-.033.61,2.293,2.293,0,0,0,.236.69c.134.276.254.5.358.669s.265.418.482.743a7.07,7.07,0,0,1,1.024,2.044,1.727,1.727,0,0,1-.347,1.578,2.2,2.2,0,0,1-1.674.9A3.046,3.046,0,0,1,2722.573,463.472Z" fill="#33c"/>
    <path id="Trazado_6187" data-name="Trazado 6187" d="M2726.36,466.531a.32.32,0,0,1-.23-.083.312.312,0,0,1-.109-.219.3.3,0,0,1,.082-.239.305.305,0,0,1,.227-.111.33.33,0,0,1,.341.3.3.3,0,0,1-.082.24A.309.309,0,0,1,2726.36,466.531Zm1.138-1.823,4.655-5.254.2.172-4.657,5.255Z" fill="#33c"/>
    <path id="Trazado_6188" data-name="Trazado 6188" d="M2733.879,467.564l.181.187-5.047,4.88-.181-.187Zm1.455-1.543a.329.329,0,0,1,.316.328.329.329,0,0,1-.337.325.332.332,0,0,1-.316-.327.331.331,0,0,1,.337-.326Z" fill="#33c"/>
    <path id="Trazado_6189" data-name="Trazado 6189" d="M2733.847,474.069l4.625-8.571.177.207-4.484,8.3,8.865-3.216.179.207-9.158,3.314Z" fill="#33c"/>
    <path id="Trazado_6190" data-name="Trazado 6190" d="M2740.475,482.719l1.447-2.241-2.928-4.076-2.586.658-.159-.222,9.491-2.386.183.254-5.289,8.234Zm-1.238-6.379,2.822,3.928,3.551-5.53Z" fill="#33c"/>
    <path id="Trazado_6191" data-name="Trazado 6191" d="M2753.268,486.681l-7.939,4.449-.127-.227,7.632-4.278-7.079-.294-.051-.091,3.443-6.192-7.631,4.277-.127-.226,7.937-4.45.166.3-3.434,6.158,7.045.284Z" fill="#33c"/>
    <path id="Trazado_6192" data-name="Trazado 6192" d="M2750.271,499.681a4.677,4.677,0,1,1,3.582.04A4.511,4.511,0,0,1,2750.271,499.681Zm-2.247-6.033a4.474,4.474,0,1,0,2.439-2.372A4.256,4.256,0,0,0,2748.024,493.648Z" fill="#33c"/>
    <path id="Trazado_6193" data-name="Trazado 6193" d="M2750.6,505.46a3.7,3.7,0,0,1-.03-2.181,2.613,2.613,0,0,1,1.082-1.454l.185.178a2.387,2.387,0,0,0-1.042,1.354,3.481,3.481,0,0,0,.029,2.039,2.7,2.7,0,0,0,1.116,1.677,2.04,2.04,0,0,0,1.674.209,1.577,1.577,0,0,0,1.1-1.007,6.243,6.243,0,0,0,.315-2.108,10.51,10.51,0,0,1,.056-1.191,5.1,5.1,0,0,1,.2-.95,1.759,1.759,0,0,1,.47-.774,1.93,1.93,0,0,1,.808-.439,2.183,2.183,0,0,1,1.811.265,2.76,2.76,0,0,1,1.183,1.673,2.774,2.774,0,0,1-1.018,3.138l-.17-.168a2.493,2.493,0,0,0,.962-2.907,2.411,2.411,0,0,0-1.1-1.534,2.02,2.02,0,0,0-1.6-.216,1.5,1.5,0,0,0-.615.335,2.008,2.008,0,0,0-.385.475,2.28,2.28,0,0,0-.215.7c-.055.3-.089.555-.106.753s-.031.492-.046.885a7.147,7.147,0,0,1-.376,2.254,1.731,1.731,0,0,1-1.21,1.071,2.189,2.189,0,0,1-1.883-.258A3.04,3.04,0,0,1,2750.6,505.46Z" fill="#33c"/>
    <path id="Trazado_6194" data-name="Trazado 6194" d="M2751.861,510.191a.332.332,0,0,1-.1-.445.333.333,0,0,1,.458-.1.325.325,0,0,1,.136.2.321.321,0,0,1-.04.241.3.3,0,0,1-.208.145A.306.306,0,0,1,2751.861,510.191Zm1.994-.8,6.858-1.5.056.254-6.859,1.5Z" fill="#33c"/>
    <path id="Trazado_6195" data-name="Trazado 6195" d="M2757.319,515.443l.035.257-6.954.962-.035-.257Zm2.085-.387a.314.314,0,0,1,.121.213.318.318,0,0,1-.058.238.329.329,0,0,1-.464.064.329.329,0,0,1-.121-.213.324.324,0,0,1,.059-.238.328.328,0,0,1,.463-.064Z" fill="#33c"/>
    <path id="Trazado_6196" data-name="Trazado 6196" d="M2753.454,520.675l8.793-4.19.022.273-8.517,4.05,9.055,2.636.021.272-9.349-2.73Z" fill="#33c"/>
    <path id="Trazado_6197" data-name="Trazado 6197" d="M2753.674,531.545l2.5-.936.081-5.016-2.467-1.016,0-.272,9.04,3.748-.005.311-9.157,3.453Zm2.812-5.857-.078,4.834,6.149-2.318Z" fill="#33c"/>
    <path id="Trazado_6198" data-name="Trazado 6198" d="M2761.714,542.3l-9.036-1.077.031-.258L2761.4,542l-5.549-4.4.011-.1,6.43-2.978-8.687-1.035.031-.258,9.036,1.076-.04.336-6.4,2.955,5.527,4.377Z" fill="#33c"/>
    <path id="Trazado_6199" data-name="Trazado 6199" d="M2751.641,551.041a4.677,4.677,0,1,1,2.872,2.14A4.512,4.512,0,0,1,2751.641,551.041Zm1.734-6.2a4.411,4.411,0,0,0-1.532,6.062,4.472,4.472,0,0,0,6.1,1.542,4.41,4.41,0,0,0,1.533-6.062,4.472,4.472,0,0,0-6.1-1.542Z" fill="#33c"/>
    <path id="Trazado_6200" data-name="Trazado 6200" d="M2748.494,555.927a3.711,3.711,0,0,1,1.261-1.78,2.61,2.61,0,0,1,1.73-.539l.046.253a2.387,2.387,0,0,0-1.64.482,3.46,3.46,0,0,0-1.177,1.665,2.7,2.7,0,0,0-.086,2.013,2.046,2.046,0,0,0,1.229,1.154,1.585,1.585,0,0,0,1.483-.166,6.273,6.273,0,0,0,1.5-1.519,10.576,10.576,0,0,1,.745-.93,5.013,5.013,0,0,1,.725-.647,1.774,1.774,0,0,1,.836-.35,1.917,1.917,0,0,1,.911.123,2.173,2.173,0,0,1,1.307,1.28,2.756,2.756,0,0,1-.029,2.048,2.774,2.774,0,0,1-2.67,1.936l-.038-.235a2.5,2.5,0,0,0,2.489-1.783,2.417,2.417,0,0,0,.018-1.885,2.023,2.023,0,0,0-1.167-1.117,1.482,1.482,0,0,0-.694-.091,1.957,1.957,0,0,0-.591.156,2.237,2.237,0,0,0-.584.436q-.334.319-.529.546c-.128.151-.315.379-.558.687a7.119,7.119,0,0,1-1.631,1.6,1.73,1.73,0,0,1-1.609.154,2.2,2.2,0,0,1-1.371-1.317A3.044,3.044,0,0,1,2748.494,555.927Z" fill="#33c"/>
    <path id="Trazado_6201" data-name="Trazado 6201" d="M2746.748,560.456a.332.332,0,0,1,.184-.417.327.327,0,0,1,.427.189.32.32,0,0,1-.007.245.331.331,0,0,1-.175.172.331.331,0,0,1-.429-.189Zm2.084.525,6.428,2.824-.106.238-6.426-2.824Z" fill="#33c"/>
    <path id="Trazado_6202" data-name="Trazado 6202" d="M2748.058,567.938l-.122.23-6.188-3.316.122-.23Zm1.914.916a.332.332,0,0,1-.215.4.309.309,0,0,1-.252-.026.3.3,0,0,1-.16-.2.316.316,0,0,1,.027-.243.322.322,0,0,1,.188-.158.329.329,0,0,1,.412.222Z" fill="#33c"/>
    <path id="Trazado_6203" data-name="Trazado 6203" d="M2741.868,569.867l9.574,1.788-.142.233-9.269-1.739,5.768,7.461-.143.233-5.951-7.709Z" fill="#33c"/>
    <path id="Trazado_6204" data-name="Trazado 6204" d="M2735.663,578.806l2.575.695,2.988-4.032-1.415-2.262.163-.22,5.168,8.312-.186.25-9.456-2.524Zm5.7-3.125-2.879,3.885,6.349,1.7Z" fill="#33c"/>
    <path id="Trazado_6205" data-name="Trazado 6205" d="M2735.78,592.219l-6.661-6.2.178-.19,6.4,5.961-1.882-6.831.072-.076,6.948,1.389-6.4-5.962.176-.191,6.661,6.2-.23.247-6.912-1.389,1.881,6.794Z" fill="#33c"/>
    <path id="Trazado_6206" data-name="Trazado 6206" d="M2722.491,593.344a4.677,4.677,0,1,1,1.06,3.422A4.506,4.506,0,0,1,2722.491,593.344Zm5.053-3.988a4.411,4.411,0,0,0-4.81,4,4.473,4.473,0,0,0,4.022,4.839,4.411,4.411,0,0,0,4.809-4,4.471,4.471,0,0,0-4.021-4.839Z" fill="#33c"/>
    <path id="Trazado_6207" data-name="Trazado 6207" d="M2717.081,595.438a3.706,3.706,0,0,1,2.066-.7,2.608,2.608,0,0,1,1.716.582l-.111.231a2.383,2.383,0,0,0-1.61-.574,3.462,3.462,0,0,0-1.931.654,2.7,2.7,0,0,0-1.252,1.578,2.041,2.041,0,0,0,.315,1.656,1.586,1.586,0,0,0,1.3.738,6.267,6.267,0,0,0,2.1-.349,10.742,10.742,0,0,1,1.149-.314,5.209,5.209,0,0,1,.967-.1,1.755,1.755,0,0,1,.882.209,1.918,1.918,0,0,1,.665.635,2.177,2.177,0,0,1,.305,1.8,2.761,2.761,0,0,1-1.228,1.639,2.775,2.775,0,0,1-3.3,0l.109-.213a2.493,2.493,0,0,0,3.06.021,2.407,2.407,0,0,0,1.123-1.514,2.024,2.024,0,0,0-.287-1.591,1.461,1.461,0,0,0-.508-.48,1.925,1.925,0,0,0-.57-.222,2.287,2.287,0,0,0-.728.009c-.3.042-.554.086-.749.132s-.478.121-.855.227a7.084,7.084,0,0,1-2.261.335,1.729,1.729,0,0,1-1.392-.821,2.2,2.2,0,0,1-.333-1.871A3.037,3.037,0,0,1,2717.081,595.438Z" fill="#33c"/>
    <path id="Trazado_6208" data-name="Trazado 6208" d="M2713,598.077a.324.324,0,0,1,.15-.193.33.33,0,0,1,.244-.036.31.31,0,0,1,.2.153.306.306,0,0,1,.033.251.329.329,0,0,1-.393.229.3.3,0,0,1-.2-.152A.311.311,0,0,1,2713,598.077Zm1.378,1.65,3.54,6.062-.225.131-3.54-6.062Z" fill="#33c"/>
    <path id="Trazado_6209" data-name="Trazado 6209" d="M2709.679,604.9l-.235.113-3.058-6.319.233-.113Zm1.011,1.864a.33.33,0,0,1-.41.2.331.331,0,0,1-.2-.421.33.33,0,0,1,.41-.2.329.329,0,0,1,.2.421Z" fill="#33c"/>
    <path id="Trazado_6210" data-name="Trazado 6210" d="M2703.509,602.831l6.693,7.075-.252.1-6.475-6.856.279,9.426-.252.106-.281-9.737Z" fill="#33c"/>
    <path id="Trazado_6211" data-name="Trazado 6211" d="M2693.237,606.405l1.674,2.078,4.788-1.5.188-2.661.259-.081-.712,9.76-.3.094-6.158-7.606Zm6.446.827-4.616,1.447,4.136,5.106Z" fill="#33c"/>
    <path id="Trazado_6212" data-name="Trazado 6212" d="M2685.456,617.3l-1.727-8.936.256-.049,1.661,8.59,2.5-6.628.1-.019,4.8,5.217-1.659-8.59.255-.049,1.726,8.934-.332.064-4.765-5.2-2.485,6.6Z" fill="#33c"/>
    <path id="Trazado_6213" data-name="Trazado 6213" d="M2674.029,610.374a4.678,4.678,0,1,1-1.163,3.388A4.509,4.509,0,0,1,2674.029,610.374Zm6.433-.237a4.42,4.42,0,0,0-7.336,3.608,4.42,4.42,0,1,0,7.336-3.608Z" fill="#33c"/>
    <path id="Trazado_6214" data-name="Trazado 6214" d="M2668.444,608.878a3.708,3.708,0,0,1,2.08.652,2.606,2.606,0,0,1,1.045,1.482l-.226.12a2.379,2.379,0,0,0-.963-1.412,3.467,3.467,0,0,0-1.945-.609,2.7,2.7,0,0,0-1.942.538,2.05,2.05,0,0,0-.721,1.525,1.581,1.581,0,0,0,.614,1.359,6.241,6.241,0,0,0,1.905.957,10.85,10.85,0,0,1,1.115.424,5.144,5.144,0,0,1,.838.49,1.767,1.767,0,0,1,.59.689,1.929,1.929,0,0,1,.164.9,2.177,2.177,0,0,1-.816,1.638,2.75,2.75,0,0,1-1.957.6,2.776,2.776,0,0,1-2.665-1.945l.212-.108a2.5,2.5,0,0,0,2.462,1.819,2.411,2.411,0,0,0,1.8-.563,2.021,2.021,0,0,0,.705-1.454,1.477,1.477,0,0,0-.128-.688,1.958,1.958,0,0,0-.33-.515,2.315,2.315,0,0,0-.593-.422c-.272-.145-.5-.257-.683-.334s-.458-.183-.825-.32a7.093,7.093,0,0,1-2.026-1.06,1.73,1.73,0,0,1-.64-1.484,2.2,2.2,0,0,1,.832-1.709A3.051,3.051,0,0,1,2668.444,608.878Z" fill="#33c"/>
    <path id="Trazado_6215" data-name="Trazado 6215" d="M2663.717,610.754l-.707,6.983-.259-.025.707-6.984Zm-.143-2.145a.327.327,0,0,1,.236-.067.315.315,0,0,1,.216.113.326.326,0,0,1-.047.466.323.323,0,0,1-.235.067.319.319,0,0,1-.217-.113.312.312,0,0,1-.074-.243A.307.307,0,0,1,2663.574,608.609Z" fill="#33c"/>
    <path id="Trazado_6216" data-name="Trazado 6216" d="M2656.565,614.26a.325.325,0,0,1-.24.049.321.321,0,0,1-.207-.13.328.328,0,0,1,.083-.46.328.328,0,0,1,.447.08.3.3,0,0,1,.055.248A.3.3,0,0,1,2656.565,614.26Zm.281-2.1-.256-.046,1.248-6.908.256.046Z" fill="#33c"/>
    <path id="Trazado_6217" data-name="Trazado 6217" d="M2653.088,606.86l1.244,9.66-.266-.064-1.2-9.354-5.324,7.784-.266-.064,5.5-8.035Z" fill="#33c"/>
    <path id="Trazado_6218" data-name="Trazado 6218" d="M2642.688,603.706l.129,2.665,4.755,1.605,1.718-2.041.259.087-6.322,7.47-.3-.1-.5-9.774Zm4.723,4.462-4.582-1.547.337,6.563Z" fill="#33c"/>
    <path id="Trazado_6219" data-name="Trazado 6219" d="M2629.963,607.925l3.865-8.238.235.11-3.716,7.92,5.928-3.881.094.044.8,7.04L2640.89,603l.235.111-3.865,8.238-.307-.144-.791-7.005-5.893,3.869Z" fill="#33c"/>
    <path id="Trazado_6220" data-name="Trazado 6220" d="M2624.839,595.614a4.677,4.677,0,1,1-2.935,2.053A4.51,4.51,0,0,1,2624.839,595.614Zm5.339,3.6a4.412,4.412,0,0,0-5.273-3.361,4.473,4.473,0,0,0-3.382,5.306,4.409,4.409,0,0,0,5.273,3.361,4.471,4.471,0,0,0,3.382-5.306Z" fill="#33c"/>
    <path id="Trazado_6221" data-name="Trazado 6221" d="M2621.191,591.1a3.7,3.7,0,0,1,1.3,1.754,2.607,2.607,0,0,1-.031,1.812l-.254-.036a2.384,2.384,0,0,0,.057-1.709,3.469,3.469,0,0,0-1.213-1.639,2.707,2.707,0,0,0-1.884-.712,2.041,2.041,0,0,0-1.481.806,1.579,1.579,0,0,0-.307,1.46,6.222,6.222,0,0,0,.973,1.9,10.763,10.763,0,0,1,.649,1,5.177,5.177,0,0,1,.388.891,1.764,1.764,0,0,1,.07.9,1.925,1.925,0,0,1-.4.828,2.179,2.179,0,0,1-1.625.84,2.748,2.748,0,0,1-1.936-.67,2.773,2.773,0,0,1-1-3.142l.236.038a2.493,2.493,0,0,0,.914,2.922,2.4,2.4,0,0,0,1.784.607,2.018,2.018,0,0,0,1.427-.758,1.477,1.477,0,0,0,.3-.63,1.943,1.943,0,0,0,.037-.611,2.261,2.261,0,0,0-.23-.69c-.133-.279-.251-.5-.354-.673s-.261-.419-.477-.746a7.124,7.124,0,0,1-1.009-2.051,1.732,1.732,0,0,1,.358-1.576,2.2,2.2,0,0,1,1.68-.889A3.049,3.049,0,0,1,2621.191,591.1Z" fill="#33c"/>
    <path id="Trazado_6222" data-name="Trazado 6222" d="M2616.273,589.826l-4.692,5.222-.193-.174,4.692-5.222Zm1.151-1.814a.32.32,0,0,1,.23.084.324.324,0,0,1,.109.219.33.33,0,0,1-.313.349.332.332,0,0,1-.339-.3.311.311,0,0,1,.084-.239A.306.306,0,0,1,2617.424,588.012Z" fill="#33c"/>
    <path id="Trazado_6223" data-name="Trazado 6223" d="M2608.449,588.458a.334.334,0,0,1-.314-.33.328.328,0,0,1,.339-.322.33.33,0,0,1,.314.329.33.33,0,0,1-.339.323Zm1.466-1.533-.179-.189,5.08-4.843.18.188Z" fill="#33c"/>
    <path id="Trazado_6224" data-name="Trazado 6224" d="M2609.993,580.42l-4.685,8.538-.177-.208,4.543-8.264-8.888,3.154-.177-.208,9.182-3.249Z" fill="#33c"/>
    <path id="Trazado_6225" data-name="Trazado 6225" d="M2603.441,571.748l-1.462,2.231,2.9,4.094,2.59-.639.158.222-9.508,2.323-.18-.255,5.344-8.2Zm1.2,6.387-2.8-3.947-3.588,5.505Z" fill="#33c"/>
    <path id="Trazado_6226" data-name="Trazado 6226" d="M2590.674,567.7l7.969-4.4.125.228-7.661,4.226,7.078.342.049.09-3.485,6.169,7.66-4.225.126.227-7.968,4.4-.164-.3,3.477-6.134-7.043-.332Z" fill="#33c"/>
    <path id="Trazado_6227" data-name="Trazado 6227" d="M2593.758,554.712a4.674,4.674,0,1,1-3.581-.066A4.514,4.514,0,0,1,2593.758,554.712Zm2.2,6.048a4.411,4.411,0,0,0-2.289-5.82,4.475,4.475,0,0,0-5.856,2.3,4.436,4.436,0,0,0,8.145,3.516Z" fill="#33c"/>
    <path id="Trazado_6228" data-name="Trazado 6228" d="M2593.472,548.927a3.708,3.708,0,0,1,.013,2.179,2.613,2.613,0,0,1-1.091,1.448l-.185-.179a2.383,2.383,0,0,0,1.052-1.348,3.471,3.471,0,0,0-.015-2.039,2.7,2.7,0,0,0-1.1-1.684,2.041,2.041,0,0,0-1.672-.221,1.579,1.579,0,0,0-1.108,1,6.259,6.259,0,0,0-.33,2.106,10.759,10.759,0,0,1-.063,1.191,5.207,5.207,0,0,1-.211.948,1.773,1.773,0,0,1-.476.772,1.932,1.932,0,0,1-.811.431,2.173,2.173,0,0,1-1.809-.277,2.754,2.754,0,0,1-1.171-1.68,2.778,2.778,0,0,1,1.04-3.132l.168.17a2.5,2.5,0,0,0-.982,2.9,2.413,2.413,0,0,0,1.086,1.542,2.018,2.018,0,0,0,1.6.227,1.474,1.474,0,0,0,.617-.332,1.969,1.969,0,0,0,.389-.47,2.3,2.3,0,0,0,.22-.7c.057-.3.093-.554.11-.752s.035-.493.053-.885a7.094,7.094,0,0,1,.392-2.25,1.729,1.729,0,0,1,1.217-1.064,2.2,2.2,0,0,1,1.882.272A3.044,3.044,0,0,1,2593.472,548.927Z" fill="#33c"/>
    <path id="Trazado_6229" data-name="Trazado 6229" d="M2590.239,544.971l-6.869,1.45-.054-.255,6.87-1.45Zm2-.788a.323.323,0,0,1,.136.2.317.317,0,0,1-.042.241.332.332,0,0,1-.458.1.331.331,0,0,1-.094-.446.33.33,0,0,1,.458-.1Z" fill="#33c"/>
    <path id="Trazado_6230" data-name="Trazado 6230" d="M2584.729,539.257a.326.326,0,0,1-.059-.451.3.3,0,0,1,.219-.127.307.307,0,0,1,.245.065.325.325,0,0,1,.119.214.317.317,0,0,1-.061.237.3.3,0,0,1-.218.127A.3.3,0,0,1,2584.729,539.257Zm2.088-.372-.034-.258,6.96-.913.034.258Z" fill="#33c"/>
    <path id="Trazado_6231" data-name="Trazado 6231" d="M2590.72,533.706l-8.821,4.13-.019-.272,8.543-3.993-9.036-2.7-.021-.272,9.331,2.793Z" fill="#33c"/>
    <path id="Trazado_6232" data-name="Trazado 6232" d="M2590.55,522.828l-2.5.936-.081,5.016,2.467,1.016-.005.272-9.04-3.748,0-.311,9.158-3.453Zm-2.813,5.858.078-4.835-6.148,2.318Z" fill="#33c"/>
    <path id="Trazado_6233" data-name="Trazado 6233" d="M2582.6,512.029l9.029,1.137-.033.259-8.681-1.094,5.52,4.442-.012.1-6.449,2.936,8.68,1.092-.033.258-9.028-1.137.042-.335,6.42-2.913-5.5-4.413Z" fill="#33c"/>
    <path id="Trazado_6234" data-name="Trazado 6234" d="M2592.742,503.337a4.677,4.677,0,1,1-2.856-2.16A4.51,4.51,0,0,1,2592.742,503.337Zm-1.778,6.186a4.407,4.407,0,0,0,1.575-6.05,4.42,4.42,0,1,0-1.575,6.05Z" fill="#33c"/>
    <path id="Trazado_6235" data-name="Trazado 6235" d="M2595.92,498.479a3.7,3.7,0,0,1-1.273,1.771,2.6,2.6,0,0,1-1.734.526l-.043-.253a2.383,2.383,0,0,0,1.644-.469,3.47,3.47,0,0,0,1.187-1.658,2.7,2.7,0,0,0,.1-2.011,2.042,2.042,0,0,0-1.222-1.163,1.579,1.579,0,0,0-1.482.156,6.247,6.247,0,0,0-1.508,1.508,10.685,10.685,0,0,1-.752.925,5.118,5.118,0,0,1-.729.642,1.749,1.749,0,0,1-.838.343,1.933,1.933,0,0,1-.911-.128,2.173,2.173,0,0,1-1.3-1.289,2.747,2.747,0,0,1,.043-2.047,2.772,2.772,0,0,1,2.684-1.919l.035.235a2.5,2.5,0,0,0-2.5,1.766,2.419,2.419,0,0,0-.031,1.886,2.024,2.024,0,0,0,1.159,1.125,1.484,1.484,0,0,0,.694.1,1.979,1.979,0,0,0,.592-.152,2.286,2.286,0,0,0,.587-.431q.336-.318.531-.543t.564-.683a7.091,7.091,0,0,1,1.643-1.59,1.729,1.729,0,0,1,1.609-.142,2.192,2.192,0,0,1,1.361,1.327A3.041,3.041,0,0,1,2595.92,498.479Z" fill="#33c"/>
    <path id="Trazado_6236" data-name="Trazado 6236" d="M2595.616,493.426l-6.407-2.867.106-.238,6.408,2.867Zm2.08.54a.318.318,0,0,1-.009.244.328.328,0,0,1-.176.171.33.33,0,0,1-.427-.192.32.32,0,0,1,.01-.245.325.325,0,0,1,.176-.17.33.33,0,0,1,.426.192Z" fill="#33c"/>
    <path id="Trazado_6237" data-name="Trazado 6237" d="M2594.53,485.55a.334.334,0,0,1,.218-.4.312.312,0,0,1,.252.027.306.306,0,0,1,.159.2.315.315,0,0,1-.029.243.322.322,0,0,1-.189.156.3.3,0,0,1-.252-.026A.308.308,0,0,1,2594.53,485.55Zm1.908.928.125-.229,6.164,3.358-.124.228Z" fill="#33c"/>
    <path id="Trazado_6238" data-name="Trazado 6238" d="M2602.654,484.565l-9.56-1.856.143-.231,9.257,1.8-5.715-7.5.144-.231,5.9,7.752Z" fill="#33c"/>
    <path id="Trazado_6239" data-name="Trazado 6239" d="M2608.924,475.674l-2.57-.713-3.016,4.011,1.4,2.271-.164.218-5.109-8.347.187-.25,9.438,2.591Zm-5.719,3.084,2.906-3.865-6.336-1.74Z" fill="#33c"/>
    <path id="Trazado_6240" data-name="Trazado 6240" d="M2608.876,462.285l6.619,6.245-.179.189-6.363-6,1.835,6.844-.071.076-6.939-1.436,6.364,6-.178.19-6.619-6.246.231-.246,6.9,1.437-1.835-6.808Z" fill="#33c"/>
    <path id="Trazado_6241" data-name="Trazado 6241" d="M2622.2,461.229a4.677,4.677,0,1,1-1.035-3.429A4.506,4.506,0,0,1,2622.2,461.229Zm-5.081,3.952a4.411,4.411,0,0,0,4.837-3.962,4.471,4.471,0,0,0-3.986-4.868,4.411,4.411,0,0,0-4.838,3.962,4.475,4.475,0,0,0,3.987,4.868Z" fill="#33c"/>
    <path id="Trazado_6242" data-name="Trazado 6242" d="M2627.6,459.19a3.7,3.7,0,0,1-2.071.685,2.611,2.611,0,0,1-1.713-.594l.114-.23a2.379,2.379,0,0,0,1.606.586,3.454,3.454,0,0,0,1.935-.642,2.692,2.692,0,0,0,1.263-1.569,2.041,2.041,0,0,0-.3-1.658,1.586,1.586,0,0,0-1.291-.747,6.309,6.309,0,0,0-2.107.334,10.283,10.283,0,0,1-1.152.306,5.122,5.122,0,0,1-.967.092,1.758,1.758,0,0,1-.88-.216,1.911,1.911,0,0,1-.661-.639,2.179,2.179,0,0,1-.293-1.806,2.752,2.752,0,0,1,1.238-1.63,2.774,2.774,0,0,1,3.3.025l-.11.212a2.494,2.494,0,0,0-3.061-.042,2.408,2.408,0,0,0-1.132,1.507,2.022,2.022,0,0,0,.275,1.592,1.477,1.477,0,0,0,.506.484,1.915,1.915,0,0,0,.568.226,2.29,2.29,0,0,0,.728,0q.458-.06.749-.127t.858-.222a7.13,7.13,0,0,1,2.263-.32,1.727,1.727,0,0,1,1.386.832,2.2,2.2,0,0,1,.321,1.873A3.044,3.044,0,0,1,2627.6,459.19Z" fill="#33c"/>
    <path id="Trazado_6243" data-name="Trazado 6243" d="M2630.358,454.9l-3.5-6.087.226-.128,3.5,6.086Zm1.366,1.66a.333.333,0,0,1-.152.192.321.321,0,0,1-.243.035.329.329,0,0,1-.233-.406.329.329,0,0,1,.394-.227.332.332,0,0,1,.234.406Z" fill="#33c"/>
  </g>
  <path id="Icon_ionic-ios-arrow-round-forward" data-name="Icon ionic-ios-arrow-round-forward" d="M39.24,11.532a1,1,0,0,0-.008,1.4l4.636,4.643h-69.41a.988.988,0,0,0-.984.991.988.988,0,0,0,.984.991h69.4L39.225,24.2a1,1,0,0,0,.008,1.4.987.987,0,0,0,1.4-.008l6.283-6.328h0a1.113,1.113,0,0,0,.206-.313.946.946,0,0,0,.076-.381.994.994,0,0,0-.282-.694l-6.283-6.328A.971.971,0,0,0,39.24,11.532Z" transform="translate(110.57 80.453) rotate(90)" fill="#33c" stroke="#33c" stroke-width="2"/>
</svg>
