<svg xmlns="http://www.w3.org/2000/svg" width="578.62" height="117.319" viewBox="0 0 578.62 117.319">
  <path id="Icon_ionic-ios-arrow-round-forward" data-name="Icon ionic-ios-arrow-round-forward" d="M487,13.44a7.78,7.78,0,0,0-.059,10.955l36.2,36.258H-18.845a7.712,7.712,0,0,0-7.68,7.74,7.712,7.712,0,0,0,7.68,7.74H523.078l-36.2,36.258a7.835,7.835,0,0,0,.06,10.955,7.708,7.708,0,0,0,10.9-.06L546.893,73.87h0a8.691,8.691,0,0,0,1.607-2.441,7.386,7.386,0,0,0,.6-2.977,7.76,7.76,0,0,0-2.2-5.418L497.835,13.619A7.584,7.584,0,0,0,487,13.44Z" transform="translate(550.596 127.07) rotate(180)" fill="none" stroke="#fff" stroke-width="3" opacity="0.1"/>
</svg>
