<svg xmlns="http://www.w3.org/2000/svg" width="48.587" height="48.605" viewBox="0 0 48.587 48.605">
  <g id="Grupo_12779" data-name="Grupo 12779" transform="translate(-1019.993 -301.244)">
    <path id="Trazado_4726" data-name="Trazado 4726" d="M-972.15,3773.388h3.038c.311.039.622.081.934.115a23.506,23.506,0,0,1,13.508,5.891,23.623,23.623,0,0,1,8.1,21.536,23.28,23.28,0,0,1-9.391,16.109,23.615,23.615,0,0,1-17.951,4.725,23.433,23.433,0,0,1-12.816-5.885,23.885,23.885,0,0,1-7.828-13.953c-.162-.9-.254-1.811-.378-2.717v-3.038c.038-.311.081-.622.115-.934a23.923,23.923,0,0,1,5.943-13.581,23.812,23.812,0,0,1,14.105-7.9C-973.9,3773.6-973.023,3773.509-972.15,3773.388Zm15.769,36.712c.009-.164.023-.3.023-.441,0-3.227.008-6.453-.005-9.68a16.967,16.967,0,0,0-.129-1.986c-.424-3.466-2.5-5.649-5.84-6.038a5.891,5.891,0,0,0-5.915,2.517c-.05.072-.113.135-.256.3v-2.433h-5.89V3810.1h5.89v-.583q0-3.558,0-7.117c0-.933,0-1.866.038-2.8a3.123,3.123,0,0,1,1.439-2.5,2.851,2.851,0,0,1,4.481,1.547,7.839,7.839,0,0,1,.258,2.058c.027,2.957.012,5.915.012,8.873v.516Zm-27.2-17.789V3810.1h5.9v-16.726a5.294,5.294,0,0,1,0-.616c.043-.366-.114-.452-.46-.449-1.55.016-3.1.007-4.651.007Zm-.37-5.5a3.071,3.071,0,0,0,3.3,3.085,3.119,3.119,0,0,0,3.354-3.052,3.094,3.094,0,0,0-3.292-3.105A3.082,3.082,0,0,0-983.952,3786.808Z" transform="translate(2014.926 -3472.144)" fill="#fff"/>
    <path id="Trazado_4727" data-name="Trazado 4727" d="M-807.817,3943.969h-5.892v-.516c0-2.958.015-5.916-.012-8.873a7.838,7.838,0,0,0-.258-2.058,2.851,2.851,0,0,0-4.481-1.547,3.123,3.123,0,0,0-1.439,2.5c-.039.932-.036,1.865-.038,2.8q-.007,3.559,0,7.117v.583h-5.89V3926.21h5.89v2.434c.142-.167.206-.23.256-.3a5.891,5.891,0,0,1,5.915-2.517c3.341.389,5.416,2.572,5.84,6.038a16.967,16.967,0,0,1,.129,1.986c.013,3.226.007,6.453.005,9.679C-807.794,3943.666-807.808,3943.8-807.817,3943.969Z" transform="translate(1866.361 -3606.013)" fill="#33c"/>
    <path id="Trazado_4728" data-name="Trazado 4728" d="M-901.482,3929.121h.789c1.55,0,3.1.009,4.651-.007.346,0,.5.083.46.448a5.3,5.3,0,0,0,0,.616v16.727h-5.9Z" transform="translate(1932.826 -3608.955)" fill="#33c"/>
    <path id="Trazado_4729" data-name="Trazado 4729" d="M-904.528,3861.655a3.083,3.083,0,0,1,3.361-3.072,3.094,3.094,0,0,1,3.292,3.106,3.119,3.119,0,0,1-3.354,3.051A3.071,3.071,0,0,1-904.528,3861.655Z" transform="translate(1935.502 -3546.991)" fill="#33c"/>
  </g>
</svg>
