<svg width="1005" height="118" viewBox="0 0 1005 118" fill="none" xmlns="http://www.w3.org/2000/svg">
<path opacity="0.1" d="M64.1 114.133C65.5524 112.684 66.3735 110.72 66.3845 108.668C66.3956 106.616 65.5957 104.643 64.1589 103.178L27.959 66.9204L569.945 66.9204C571.99 66.9119 573.947 66.0918 575.387 64.6404C576.828 63.189 577.632 61.225 577.625 59.1804C577.632 57.1357 576.828 55.1718 575.387 53.7204C573.947 52.2689 571.99 51.4488 569.945 51.4404L28.022 51.4404L64.222 15.1824C65.6454 13.7106 66.436 11.7401 66.4248 9.69264C66.4136 7.64519 65.6014 5.68347 64.162 4.22737C62.7085 2.79 60.7436 1.98883 58.6995 2.00008C56.6554 2.01134 54.6995 2.83408 53.262 4.28737L4.20697 53.7034C3.53736 54.4205 2.99402 55.2458 2.59998 56.1444C2.19593 57.0844 1.99163 58.0982 2 59.1214C1.99878 61.1452 2.78818 63.0893 4.19995 64.5394L53.265 113.954C53.9591 114.687 54.7925 115.274 55.7163 115.68C56.6401 116.086 57.6357 116.304 58.6448 116.321C59.6539 116.338 60.6562 116.153 61.593 115.777C62.5297 115.401 63.382 114.843 64.1 114.133V114.133Z" stroke="#3333CC" stroke-width="3"/>
<path opacity="0.1" d="M940.525 4.18865C939.073 5.63791 938.252 7.60224 938.24 9.654C938.229 11.7058 939.029 13.6788 940.466 15.1436L976.666 51.4016H434.68C432.635 51.4101 430.678 52.2302 429.238 53.6816C427.797 55.1331 426.993 57.097 427 59.1416C426.993 61.1863 427.797 63.1502 429.238 64.6017C430.678 66.0531 432.635 66.8732 434.68 66.8817H976.603L940.403 103.14C938.98 104.611 938.189 106.582 938.2 108.629C938.211 110.677 939.024 112.639 940.463 114.095C941.916 115.532 943.881 116.333 945.925 116.322C947.97 116.311 949.926 115.488 951.363 114.035L1000.42 64.6187C1001.09 63.9015 1001.63 63.0762 1002.03 62.1777C1002.43 61.2376 1002.63 60.2238 1002.62 59.2007C1002.63 57.1769 1001.84 55.2327 1000.43 53.7826L951.36 4.36765C950.666 3.63506 949.832 3.04838 948.909 2.642C947.985 2.23562 946.989 2.01771 945.98 2.00103C944.971 1.98436 943.969 2.16927 943.032 2.54491C942.095 2.92056 941.243 3.47938 940.525 4.18865V4.18865Z" stroke="#3333CC" stroke-width="3"/>
</svg>
