<svg xmlns="http://www.w3.org/2000/svg" width="282.75" height="92.879" viewBox="0 0 282.75 92.879">
  <g id="Grupo_10702" data-name="Grupo 10702" transform="translate(1323.689 -453.293)">
    <g id="Grupo_262" data-name="Grupo 262" transform="translate(-1323.689 466.847)">
      <path id="Trazado_633" data-name="Trazado 633" d="M-1323.689,496.112h10.565v52.524h-10.565Z" transform="translate(1323.689 -496.112)" fill="#fff"/>
    </g>
    <g id="Grupo_263" data-name="Grupo 263" transform="translate(-1300.268 465.651)">
      <path id="Trazado_634" data-name="Trazado 634" d="M-1201.264,513.663v32.391h-10.564v-30.5c0-8.672-5.183-13.854-13.555-13.754-7.873,0-13.654,5.78-13.754,12.259v31.992H-1249.7V493.53h9.967v6.678c3.588-4.585,9.568-7.874,17.341-7.874C-1209.236,492.334-1201.264,500.806-1201.264,513.663Z" transform="translate(1249.701 -492.334)" fill="#fff"/>
    </g>
    <g id="Grupo_264" data-name="Grupo 264" transform="translate(-1247.147 466.847)">
      <path id="Trazado_635" data-name="Trazado 635" d="M-1028.362,496.112l-20.731,52.524h-12.06l-20.731-52.524h10.963l15.847,42.457,15.747-42.457Z" transform="translate(1081.883 -496.112)" fill="#fff"/>
    </g>
    <g id="Grupo_265" data-name="Grupo 265" transform="translate(-1186.549 466.847)">
      <path id="Trazado_636" data-name="Trazado 636" d="M-890.448,496.112h10.564v52.524h-10.564Z" transform="translate(890.448 -496.112)" fill="#fff"/>
    </g>
    <g id="Grupo_266" data-name="Grupo 266" transform="translate(-1168.411 453.293)">
      <path id="Trazado_637" data-name="Trazado 637" d="M-823.779,501.033V475.917h-9.369v-9.07h5.083c3.388,0,4.883-1.694,4.883-5.083v-8.471h10.266v13.554h14.651v9.07h-15.049v24.019c0,6.578,3.488,10.167,9.767,10.167h5.88v9.268h-7.973C-817.5,519.371-823.779,512.295-823.779,501.033Z" transform="translate(833.148 -453.293)" fill="#fff"/>
    </g>
    <g id="Grupo_267" data-name="Grupo 267" transform="translate(-1125.256 465.651)">
      <path id="Trazado_638" data-name="Trazado 638" d="M-670.7,492.334V502.2c-9.369.1-15.548,5.681-15.548,13.056v30.8h-10.565V493.53h9.967v6.678A20.5,20.5,0,0,1-670.7,492.334Z" transform="translate(696.817 -492.334)" fill="#fff"/>
    </g>
    <g id="Grupo_268" data-name="Grupo 268" transform="translate(-1096.253 465.751)">
      <path id="Trazado_639" data-name="Trazado 639" d="M-551.783,511.971q-.153.217-.317.424c-.051.064-.1.128-.155.191-.2.236-.4.464-.618.68l-.027.025c-.184.181-.376.354-.574.522q-.177.152-.361.3l-.019.014a10.645,10.645,0,0,1-6.59,2.282c-.1,0-.2-.012-.294-.015a22.594,22.594,0,0,1,.294,3.666c0,10.465-6.976,17.939-17.043,17.939-10.166,0-17.143-7.574-17.143-17.939,0-10.564,6.977-18.039,17.143-18.039a18.044,18.044,0,0,1,6.641,1.214,10.7,10.7,0,0,1,6.618-7.526,29.43,29.43,0,0,0-13.359-3.057c-16.145,0-27.607,11.661-27.607,27.408,0,15.647,11.462,27.408,27.607,27.408,16.246,0,27.707-11.76,27.707-27.408a29.705,29.705,0,0,0-1.344-8.939Q-551.483,511.558-551.783,511.971Z" transform="translate(605.194 -492.648)" fill="#fff"/>
    </g>
    <g id="Grupo_269" data-name="Grupo 269" transform="translate(-1058.253 472.058)">
      <circle id="Elipse_39" data-name="Elipse 39" cx="6.75" cy="6.75" r="6.75" fill="#fff"/>
    </g>
    <g id="Grupo_270" data-name="Grupo 270" transform="translate(-1323.365 529.564)">
      <path id="Trazado_640" data-name="Trazado 640" d="M-1312.227,706.967h-6.537l-1.478,4.2h-2.425l5.682-16.053h2.957l5.7,16.053h-2.425Zm-.716-2.01-2.54-7.253-2.564,7.253Z" transform="translate(1322.667 -694.841)" fill="#fff"/>
      <path id="Trazado_641" data-name="Trazado 641" d="M-1229.55,710.85a7.951,7.951,0,0,1-8.107-8.292,7.939,7.939,0,0,1,8.084-8.316,7.462,7.462,0,0,1,7.322,4.9l-2.356.97a5,5,0,0,0-5.012-3.534c-3.257,0-5.544,2.449-5.544,6.029s2.31,6.029,5.8,6.029a5.239,5.239,0,0,0,5.428-4.6h-5.682v-1.894h8.038C-1221.581,707.57-1225.045,710.85-1229.55,710.85Z" transform="translate(1264.566 -694.242)" fill="#fff"/>
      <path id="Trazado_642" data-name="Trazado 642" d="M-1130.505,709.023v2.148H-1140.9V695.118h10.256v2.148h-7.807v4.573h7.022v2.125h-7.022v5.058Z" transform="translate(1198.437 -694.841)" fill="#fff"/>
      <path id="Trazado_643" data-name="Trazado 643" d="M-1049.4,695.118v16.053h-2.056l-7.9-11.8v11.8h-2.448V695.118h2.033l7.922,11.849V695.118Z" transform="translate(1144.375 -694.841)" fill="#fff"/>
      <path id="Trazado_644" data-name="Trazado 644" d="M-976.205,702.558a7.934,7.934,0,0,1,8.061-8.316,7.384,7.384,0,0,1,7.345,5.151l-2.356.947a4.956,4.956,0,0,0-5.035-3.765c-3.187,0-5.52,2.425-5.52,5.983s2.333,5.959,5.566,5.959a4.9,4.9,0,0,0,4.989-3.765l2.356.947a7.287,7.287,0,0,1-7.3,5.151A7.938,7.938,0,0,1-976.205,702.558Z" transform="translate(1085.875 -694.242)" fill="#fff"/>
      <path id="Trazado_645" data-name="Trazado 645" d="M-882.366,695.118h2.449v16.053h-2.449Z" transform="translate(1021.741 -694.841)" fill="#fff"/>
      <path id="Trazado_646" data-name="Trazado 646" d="M-820.19,706.967h-6.537l-1.478,4.2h-2.425l5.682-16.053h2.956l5.705,16.053h-2.425Zm-.716-2.01-2.541-7.253-2.564,7.253Z" transform="translate(986.382 -694.841)" fill="#fff"/>
    </g>
  </g>
</svg>
