<svg xmlns="http://www.w3.org/2000/svg" xmlns:xlink="http://www.w3.org/1999/xlink" width="77" height="76" viewBox="0 0 77 76">
  <defs>
    <linearGradient id="linear-gradient" x1="0.5" x2="0.5" y2="1" gradientUnits="objectBoundingBox">
      <stop offset="0" stop-color="#40cfb7"/>
      <stop offset="1" stop-color="#2dc2a8"/>
    </linearGradient>
  </defs>
  <g id="Grupo_16762" data-name="Grupo 16762" transform="translate(-10599 700)">
    <rect id="Rectángulo_2123" data-name="Rectángulo 2123" width="77" height="76" rx="11" transform="translate(10599 -700)" fill="url(#linear-gradient)"/>
    <path id="Trazado_5866" data-name="Trazado 5866" d="M1697.8-565.218a5.166,5.166,0,0,1-.394.843,2,2,0,0,1-1.681.9c-.1,0-.193.005-.289.005q-16.139,0-32.278.006a2.158,2.158,0,0,1-2.136-1.185,2.361,2.361,0,0,1-.228-1.007q-.029-3.506-.007-7.012a2.085,2.085,0,0,1,2.161-2.175q5.042-.019,10.084,0a.687.687,0,0,1,.428.2c.858.845,1.7,1.7,2.552,2.559a4.3,4.3,0,0,0,6.538.022c.852-.852,1.7-1.711,2.564-2.548a.885.885,0,0,1,.557-.228c3.156-.014,6.313-.01,9.47-.01,1.6,0,2.054.3,2.659,1.745Zm-4.272-3.928a1.439,1.439,0,0,0-1.423,1.425,1.457,1.457,0,0,0,1.443,1.412,1.455,1.455,0,0,0,1.4-1.415A1.436,1.436,0,0,0,1693.529-569.146Zm-5.7,0a1.423,1.423,0,0,0-1.413,1.429,1.444,1.444,0,0,0,1.4,1.409,1.458,1.458,0,0,0,1.438-1.418A1.442,1.442,0,0,0,1687.832-569.146Z" transform="translate(8958.209 -82.715)"/>
    <path id="Trazado_5867" data-name="Trazado 5867" d="M1740.718-796.883v-.492q0-4.626,0-9.253a1.45,1.45,0,0,1,1.618-1.631q2.657,0,5.313,0a1.442,1.442,0,0,1,1.6,1.607q0,4.645,0,9.289v.48h.405c1.711,0,3.422,0,5.132,0a1.413,1.413,0,0,1,1.56,1.2,1.145,1.145,0,0,1-.227,1.017,4.624,4.624,0,0,1-.362.4q-4.8,4.807-9.609,9.611a1.436,1.436,0,0,1-2.343-.007q-4.831-4.83-9.661-9.661a1.38,1.38,0,0,1,0-2.241,1.971,1.971,0,0,1,1.076-.307c1.686-.031,3.373-.014,5.06-.014Z" transform="translate(8892.516 127.92)"/>
  </g>
</svg>
