<svg xmlns="http://www.w3.org/2000/svg" width="148" height="148" viewBox="0 0 148 148">
  <g id="Grupo_18274" data-name="Grupo 18274" transform="translate(-260 -3902)">
    <circle id="Elipse_67" data-name="Elipse 67" cx="74" cy="74" r="74" transform="translate(260 3902)" fill="#fff" opacity="0.05"/>
    <g id="Grupo_18243" data-name="Grupo 18243" transform="translate(-2852.789 3595.152)">
      <path id="Trazado_7674" data-name="Trazado 7674" d="M3191.632,357.019a11.237,11.237,0,0,0,.187,2.03h0v0A11.2,11.2,0,0,1,3191.632,357.019Z" fill="#fff"/>
      <path id="Trazado_7675" data-name="Trazado 7675" d="M3192.852,362.816c-.062-.1-.126-.188-.185-.286C3192.726,362.628,3192.79,362.72,3192.852,362.816Z" fill="#fff"/>
      <path id="Trazado_7676" data-name="Trazado 7676" d="M3202.418,362.2l-.014-.6c0-.267-.018-.534-.026-.8.007.266.024.533.024.8Z" fill="#fff"/>
      <path id="Trazado_7677" data-name="Trazado 7677" d="M3196.218,349.572a2.06,2.06,0,0,1,1.168.445v0l0,0a1.65,1.65,0,0,0-2.331.081,1.63,1.63,0,0,0-.123.15A1.8,1.8,0,0,1,3196.218,349.572Z" fill="#fff"/>
      <path id="Trazado_7678" data-name="Trazado 7678" d="M3194.721,350.475a9.667,9.667,0,0,0-2.608,6.557v-.007A9.671,9.671,0,0,1,3194.721,350.475Z" fill="#fff"/>
      <path id="Trazado_7679" data-name="Trazado 7679" d="M3193.438,363.636c-.082-.1-.165-.209-.244-.317C3193.273,363.427,3193.356,363.531,3193.438,363.636Z" fill="#fff"/>
      <path id="Trazado_7680" data-name="Trazado 7680" d="M3182.773,405.734a4.9,4.9,0,0,1-.262-.5A4.6,4.6,0,0,0,3182.773,405.734Z" fill="#fff"/>
      <path id="Trazado_7681" data-name="Trazado 7681" d="M3194.775,365.045c-.121-.105-.236-.217-.352-.328C3194.539,364.828,3194.654,364.939,3194.775,365.045Z" fill="#fff"/>
      <path id="Trazado_7682" data-name="Trazado 7682" d="M3196.849,366.46a10.609,10.609,0,0,1-1.754-1.152A10.551,10.551,0,0,0,3196.849,366.46Z" fill="#fff"/>
      <path id="Trazado_7683" data-name="Trazado 7683" d="M3194.08,364.376q-.153-.16-.3-.326Q3193.927,364.215,3194.08,364.376Z" fill="#fff"/>
      <path id="Trazado_7684" data-name="Trazado 7684" d="M3185.854,408.009l-.021-.006Z" fill="#fff"/>
      <path id="Trazado_7685" data-name="Trazado 7685" d="M3170.271,360.568c-.03.464-.06.926-.1,1.387-.047.543-.077,1.089-.11,1.732-.041.817-.083,1.661-.194,2.474a20.186,20.186,0,0,1-2.324,6.188l-.331.657a12.826,12.826,0,0,0-1.373,8.436c1,5.076,4.069,9.062,9.12,11.849a23.074,23.074,0,0,0,11.45,2.86h.009a31.932,31.932,0,0,0,4.592-.347,20.43,20.43,0,0,0,13.076-6.959,14.188,14.188,0,0,0,3.786-10.425,16.93,16.93,0,0,0-2.38-7.068,2.284,2.284,0,0,0-2.18-1.012,13.4,13.4,0,0,1-11.88-4.794,13.235,13.235,0,0,1-2.37-12.44,20.417,20.417,0,0,1,1.282-2.926c.246-.5.493-.994.725-1.5l.842-1.835-2.01-.193a25.577,25.577,0,0,0-11.113,1.023h0a11.7,11.7,0,0,0-8.03,8.814A26.493,26.493,0,0,0,3170.271,360.568Zm7.321,17.663.122,0A2.834,2.834,0,0,1,3180.6,381v.009a1.715,1.715,0,0,0,1.74,1.691h.038a1.7,1.7,0,0,0,1.584-1.81c.022-.961,0-1.928,0-2.961-.373-.084-.677-.134-.968-.225a2.8,2.8,0,0,1-2.015-2.9,2.763,2.763,0,0,1,2.562-2.543q3.225-.1,6.448,0a2.756,2.756,0,0,1,2.571,2.532,2.786,2.786,0,0,1-2,2.911c-.294.092-.6.135-.977.218,0,1.036-.033,2.09.009,3.146a1.668,1.668,0,0,0,3.335.043,2.877,2.877,0,0,1,1.659-2.617,2.768,2.768,0,0,1,3.957,2.626,6.973,6.973,0,0,1-3.664,6.221,6.887,6.887,0,0,1-7.285-.044,1.33,1.33,0,0,0-1.63,0A7.282,7.282,0,0,1,3175,381.507c-.007-.048-.013-.1-.017-.146A2.88,2.88,0,0,1,3177.592,378.231Z" fill="#fff"/>
      <path id="Trazado_7686" data-name="Trazado 7686" d="M3184.986,407.738c-.041-.017-.077-.044-.117-.063C3184.91,407.694,3184.945,407.721,3184.986,407.738Z" fill="#fff"/>
      <path id="Trazado_7687" data-name="Trazado 7687" d="M3192.2,352.51c.1-.212.2-.422.319-.628C3192.4,352.087,3192.3,352.3,3192.2,352.51Z" fill="#fff"/>
      <path id="Trazado_7688" data-name="Trazado 7688" d="M3191.322,358.938c-.042-.236-.07-.473-.1-.709C3191.252,358.467,3191.281,358.7,3191.322,358.938Z" fill="#fff"/>
      <path id="Trazado_7689" data-name="Trazado 7689" d="M3191.172,357.726c-.013-.223-.008-.444-.007-.666C3191.164,357.283,3191.159,357.506,3191.172,357.726Z" fill="#fff"/>
      <path id="Trazado_7690" data-name="Trazado 7690" d="M3191.2,356.147c.019-.217.039-.434.071-.648C3191.242,355.713,3191.222,355.93,3191.2,356.147Z" fill="#fff"/>
      <path id="Trazado_7691" data-name="Trazado 7691" d="M3192.788,351.431q.169-.268.355-.528C3193.02,351.076,3192.9,351.252,3192.788,351.431Z" fill="#fff"/>
      <path id="Trazado_7692" data-name="Trazado 7692" d="M3191.656,353.854c.071-.22.154-.436.238-.652C3191.81,353.418,3191.727,353.633,3191.656,353.854Z" fill="#fff"/>
      <path id="Trazado_7693" data-name="Trazado 7693" d="M3197.321,349.4a2.287,2.287,0,0,0-1.052-.312,2.283,2.283,0,0,1,1.05.321Z" fill="#fff"/>
      <path id="Trazado_7694" data-name="Trazado 7694" d="M3192.271,361.808c-.02-.039-.042-.076-.062-.116C3192.229,361.732,3192.251,361.769,3192.271,361.808Z" fill="#fff"/>
      <path id="Trazado_7695" data-name="Trazado 7695" d="M3203.366,361.677l0-.113c0-.144-.012-.288-.014-.431,0,.142.013.284.013.426Z" fill="#fff"/>
      <path id="Trazado_7696" data-name="Trazado 7696" d="M3201.277,367.658c-.192-.009-.381-.032-.57-.05.19.018.377.045.571.054a7.951,7.951,0,0,0,.816-.041l1.291-.13v-.005l-1.291.131C3201.823,367.644,3201.551,367.657,3201.277,367.658Z" fill="#fff"/>
      <path id="Trazado_7697" data-name="Trazado 7697" d="M3191.528,359.869c-.028-.1-.05-.207-.075-.311C3191.478,359.662,3191.5,359.766,3191.528,359.869Z" fill="#fff"/>
      <path id="Trazado_7698" data-name="Trazado 7698" d="M3191.829,360.8c-.032-.083-.057-.171-.086-.256C3191.772,360.632,3191.8,360.719,3191.829,360.8Z" fill="#fff"/>
      <path id="Trazado_7699" data-name="Trazado 7699" d="M3193.448,350.492c.176-.222.364-.436.559-.644C3193.812,350.056,3193.624,350.27,3193.448,350.492Z" fill="#fff"/>
      <path id="Trazado_7700" data-name="Trazado 7700" d="M3186.173,398.938a4.622,4.622,0,0,0-4.014,4.5v.027a4.419,4.419,0,0,0,.055.556,4.488,4.488,0,0,1-.052-.584A4.622,4.622,0,0,1,3186.173,398.938Z" fill="#fff"/>
      <path id="Trazado_7701" data-name="Trazado 7701" d="M3189.706,405.652a3.625,3.625,0,0,1-5.519.407,3.626,3.626,0,0,0,2.592,1.089A3.663,3.663,0,0,0,3189.706,405.652Z" fill="#fff"/>
      <path id="Trazado_7702" data-name="Trazado 7702" d="M3188.565,407.216a4.181,4.181,0,0,0,1.915-1.891A4.2,4.2,0,0,1,3188.565,407.216Z" fill="#fff"/>
      <path id="Trazado_7703" data-name="Trazado 7703" d="M3189.711,400.582a4.1,4.1,0,0,0-2.936-1.228,4.1,4.1,0,0,1,2.936,1.232Z" fill="#fff"/>
      <path id="Trazado_7704" data-name="Trazado 7704" d="M3184.186,406.058h0a3.654,3.654,0,0,1-1.068-2.614A3.635,3.635,0,0,0,3184.186,406.058Z" fill="#fff"/>
      <path id="Trazado_7705" data-name="Trazado 7705" d="M3186.749,399.355a4.146,4.146,0,0,0-3.592,2.142h0A4.151,4.151,0,0,1,3186.749,399.355Z" fill="#fff"/>
      <path id="Trazado_7706" data-name="Trazado 7706" d="M3191.377,403.394c0,.042.011.083.011.125V403.5C3191.388,403.466,3191.378,403.431,3191.377,403.394Z" fill="#fff"/>
      <path id="Trazado_7707" data-name="Trazado 7707" d="M3190.911,403.486h0a4.091,4.091,0,0,0-.859-2.514A4.109,4.109,0,0,1,3190.911,403.486Z" fill="#fff"/>
      <path id="Trazado_7708" data-name="Trazado 7708" d="M3157.339,364.224c-.5.649-1.024,1.321-1.488,2.049a14.58,14.58,0,0,0-1.752,3.378,7.726,7.726,0,0,0,1.26,7.094,7.334,7.334,0,0,0,5.8,2.867c.15,0,.3-.006.455-.014l1.294-.079.056-1.292a18.69,18.69,0,0,1,2.517-7.9,16.725,16.725,0,0,0,1.953-8.631,17.885,17.885,0,0,1,2.976-11.111c.224-.326.465-.638.741-.992l1.627-2.142-1.94-.613a7.22,7.22,0,0,0-6.451,1.069,7.6,7.6,0,0,0-3.167,6.122h0a15.354,15.354,0,0,1-3.144,9.235C3157.846,363.57,3157.61,363.875,3157.339,364.224Z" fill="#fff"/>
      <path id="Trazado_7709" data-name="Trazado 7709" d="M3218.051,356.393l-.787-.469-2.164,1.483,1.3,2.13c.467.778.939,1.553,1.439,2.307.427.636.882,1.258,1.353,1.9a27.306,27.306,0,0,1,2.092,3.146,10.713,10.713,0,0,1,.709,8.612,10.125,10.125,0,0,1-5.687,6.014,17.214,17.214,0,0,1-3.34.868c-.623.124-1.269.248-1.923.4l-.815.194-.235.8a20.108,20.108,0,0,1-4.2,7.337l-.9,1.046,1.013.939a28.719,28.719,0,0,1,8.2,13.4l.691,2.376,1.722-1.779c6.687-6.915,10.586-13.1,12.64-20.044l0,0a27.767,27.767,0,0,0,.132-16.758A24.5,24.5,0,0,0,3218.051,356.393Z" fill="#fff"/>
      <path id="Trazado_7710" data-name="Trazado 7710" d="M3211.688,408.6a35.364,35.364,0,0,0-1.374-4.584,23.958,23.958,0,0,0-6.68-9.278l-.741-.642-.866.456c-.405.211-.8.425-1.256.671-.9.489-1.761.952-2.63,1.342s-1.808.725-2.717,1.053l-.188.068c-.363.133-.727.263-1.087.4l-1.317.495.466,1.326c1.461,4.158.728,7.36-2.183,9.517a7.353,7.353,0,0,1-8.613.041c-2.907-2.1-3.676-5.275-2.284-9.441l.414-1.235-10.163-4.549-.7.625a24.968,24.968,0,0,0-8.194,15.029,2.585,2.585,0,0,0,.954,2.212,111.511,111.511,0,0,0,23.076,14.741,2.865,2.865,0,0,0,2.363,0,111.749,111.749,0,0,0,23.141-14.817l0,0a2.622,2.622,0,0,0,.817-2.472Z" fill="#fff"/>
      <path id="Trazado_7711" data-name="Trazado 7711" d="M3167.629,393.1l.976-.9-1.455-1.827a18.58,18.58,0,0,1-3.446-6.182,2.356,2.356,0,0,0-2.456-1.8,10.23,10.23,0,0,1-9.863-7.481,10.913,10.913,0,0,1,1.794-9.627c.445-.647.917-1.275,1.434-1.975.558-.75,1.119-1.5,1.642-2.274a18.676,18.676,0,0,0,1.11-1.946c.14-.267.28-.537.423-.8l.581-1.062-2.011-1.6-.872.59c-.229.157-.465.311-.7.462l-.119.077c-.609.393-1.3.838-1.941,1.35-7.835,6.265-10.923,14.8-9.18,25.365a37.293,37.293,0,0,0,7.253,16.258c1.281,1.73,2.64,3.35,4.1,5.089.656.78,1.326,1.577,2,2.4l1.732,2.113.754-2.626A28.99,28.99,0,0,1,3167.629,393.1Z" fill="#fff"/>
      <path id="Trazado_7712" data-name="Trazado 7712" d="M3191.278,402.516c0,.02.013.039.017.059C3191.291,402.555,3191.282,402.536,3191.278,402.516Z" fill="#fff"/>
      <path id="Trazado_7713" data-name="Trazado 7713" d="M3191.374,354.955q.059-.289.134-.574C3191.458,354.571,3191.414,354.762,3191.374,354.955Z" fill="#fff"/>
      <path id="Trazado_7714" data-name="Trazado 7714" d="M3191.015,401.683l.011.021Z" fill="#fff"/>
      <path id="Trazado_7715" data-name="Trazado 7715" d="M3199.391,367.4c-.2-.046-.4-.1-.592-.156C3199,367.3,3199.191,367.353,3199.391,367.4Z" fill="#fff"/>
      <path id="Trazado_7716" data-name="Trazado 7716" d="M3197.622,366.825c-.2-.085-.4-.17-.589-.266C3197.225,366.655,3197.423,366.74,3197.622,366.825Z" fill="#fff"/>
      <path id="Trazado_7717" data-name="Trazado 7717" d="M3182.936,406.034a4.654,4.654,0,0,0,1.262,1.275,4.577,4.577,0,0,1-.693-.577A4.625,4.625,0,0,1,3182.936,406.034Z" fill="#fff"/>
      <path id="Trazado_7718" data-name="Trazado 7718" d="M3198.483,367.147c-.2-.064-.4-.133-.588-.208C3198.088,367.014,3198.285,367.083,3198.483,367.147Z" fill="#fff"/>
      <path id="Trazado_7719" data-name="Trazado 7719" d="M3182.4,404.867a4.615,4.615,0,0,1-.149-.5A4.489,4.489,0,0,0,3182.4,404.867Z" fill="#fff"/>
      <path id="Trazado_7720" data-name="Trazado 7720" d="M3202.725,350a23.836,23.836,0,0,1,1.292,2.018,19.066,19.066,0,0,1,2.106,10.1,14.443,14.443,0,0,0,1.478,7.213c1.405,2.8,2.865,5.7,3,8.958l.064,1.482,1.871-.132a7.2,7.2,0,0,0,.948-.1,7.634,7.634,0,0,0,5.6-4.2,8.056,8.056,0,0,0-.308-7.375,24.23,24.23,0,0,0-2.483-3.586,16.944,16.944,0,0,1-4-10.694,7.142,7.142,0,0,0-2.918-5.65,7.6,7.6,0,0,0-6.557-1.259l-1.9.523,1.081,1.646C3202.245,349.3,3202.484,349.654,3202.725,350Z" fill="#fff"/>
      <path id="Trazado_7721" data-name="Trazado 7721" d="M3200.34,367.572c-.2-.026-.4-.065-.6-.1C3199.941,367.507,3200.138,367.546,3200.34,367.572Z" fill="#fff"/>
      <path id="Trazado_7722" data-name="Trazado 7722" d="M3191.295,402.575c0-.02-.013-.039-.017-.059a4.63,4.63,0,0,0-.252-.812l-.011-.021a4.616,4.616,0,0,0-8.853,1.749,4.488,4.488,0,0,0,.052.584c.014.115.012.235.034.347a4.615,4.615,0,0,0,.149.5c.039.123.065.252.114.371a4.9,4.9,0,0,0,.262.5c.056.1.1.206.163.3a4.625,4.625,0,0,0,.569.7,4.577,4.577,0,0,0,.693.577,4.628,4.628,0,0,0,.671.366c.04.019.076.046.117.063a4.58,4.58,0,0,0,.847.265l.021.006a4.711,4.711,0,0,0,.934.1,4.632,4.632,0,0,0,4.6-4.561v-.025c0-.042-.01-.083-.011-.125A4.571,4.571,0,0,0,3191.295,402.575Zm-1.584-1.993v0a4.1,4.1,0,0,0-2.936-1.232A4.1,4.1,0,0,1,3189.711,400.582Zm-2.962-1.227a4.151,4.151,0,0,0-3.591,2.142h0A4.146,4.146,0,0,1,3186.749,399.355Zm.03,7.793a3.626,3.626,0,0,1-2.592-1.089h0a3.635,3.635,0,0,1-1.067-2.613,3.657,3.657,0,0,0,7.314.088v0a3.7,3.7,0,0,1-3.654,3.615Zm1.786.068a4.2,4.2,0,0,0,1.915-1.891A4.181,4.181,0,0,1,3188.565,407.216Zm2.346-3.73a4.109,4.109,0,0,0-.858-2.513,4.091,4.091,0,0,1,.859,2.514Z" fill="#30ceb3"/>
      <path id="Trazado_7723" data-name="Trazado 7723" d="M3189.706,405.652a3.65,3.65,0,0,0,.727-2.119A3.65,3.65,0,0,1,3189.706,405.652Z" fill="#fff"/>
      <path id="Trazado_7724" data-name="Trazado 7724" d="M3196.115,349.092v.009c.036,0,.074,0,.112-.009Z" fill="#fff"/>
      <path id="Trazado_7725" data-name="Trazado 7725" d="M3202.2,358.235c.1.852.154,1.709.181,2.567-.025-.857-.075-1.714-.176-2.565a11.558,11.558,0,0,0-4.816-8.224h0A11.564,11.564,0,0,1,3202.2,358.235Z" fill="#fff"/>
      <path id="Trazado_7726" data-name="Trazado 7726" d="M3197.935,349.232h0c-.032-.027-.064-.052-.1-.077a2.61,2.61,0,0,0-3.656.5c-.06.062-.113.129-.171.192-.2.208-.383.422-.559.644-.106.134-.205.273-.3.411q-.186.259-.355.528c-.093.149-.188.3-.274.451-.115.206-.218.416-.319.628s-.209.458-.3.692c-.084.216-.167.432-.238.652-.055.174-.1.35-.148.527s-.095.381-.134.574-.073.361-.1.544c-.032.214-.052.431-.071.648-.014.151-.035.3-.041.452s0,.307,0,.461c0,.222-.006.443.007.666.011.169.036.335.054.5.026.236.054.473.1.709.038.209.081.415.131.62.025.1.047.208.075.311.063.23.137.455.215.678.029.085.054.173.086.256q.171.454.38.889c.02.04.042.077.062.116.124.246.255.487.4.722.059.1.123.191.185.286.11.17.222.339.342.5.079.108.162.212.244.317.112.141.226.279.344.414q.145.165.3.326c.111.117.226.229.343.341s.231.223.352.328c.1.091.213.176.32.263a10.609,10.609,0,0,0,1.754,1.152c.062.033.121.068.184.1.192.1.39.181.589.266.091.038.181.078.273.114.193.075.39.144.588.208q.157.051.316.1c.2.057.393.11.592.156.116.026.234.047.352.07.2.038.4.077.6.1.12.017.244.024.367.036.189.018.378.041.57.05.274,0,.546-.014.817-.041l1.291-.131.006-2.653c0-.9.009-1.776-.013-2.652l-.012-.5,0-.118c0-.142-.011-.284-.013-.426a29.689,29.689,0,0,0-.2-3.026A12.481,12.481,0,0,0,3197.935,349.232Zm4.5,15.591v0Zm-4.905-15.3-.066-.042Zm-.208-.124,0,.009a2.283,2.283,0,0,0-1.05-.321A2.287,2.287,0,0,1,3197.321,349.4Zm-1.206-.309h.111c-.038,0-.076.007-.112.009Zm-1.063,1a1.65,1.65,0,0,1,2.331-.081l0,0h0a11.558,11.558,0,0,1,4.816,8.224c.1.851.151,1.708.176,2.565.008.266.025.533.026.8l.014.6-.016-.6c0-.267-.017-.534-.024-.8-.027-.858-.079-1.715-.181-2.567a11.564,11.564,0,0,0-4.811-8.222v0a2.06,2.06,0,0,0-1.168-.445,1.8,1.8,0,0,0-1.289.67A1.63,1.63,0,0,1,3195.052,350.092ZM3202,366.663l-.131.012Zm-7.276-16.188a9.671,9.671,0,0,0-2.607,6.55v.007A9.667,9.667,0,0,1,3194.721,350.475Zm-2.9,8.573h0a11.237,11.237,0,0,1-.187-2.03,11.2,11.2,0,0,0,.187,2.026v0h0a10.147,10.147,0,0,0,9.457,8.131A10.148,10.148,0,0,1,3191.82,359.048Zm11.092,8.005-.863.087c-.251.025-.5.036-.755.037.255,0,.5-.012.755-.037l.863-.087v0Z" fill="#30ceb3"/>
      <path id="Trazado_7727" data-name="Trazado 7727" d="M3191.82,359.047h0a10.148,10.148,0,0,0,9.457,8.13A10.147,10.147,0,0,1,3191.82,359.047Z" fill="#fff"/>
      <path id="Trazado_7728" data-name="Trazado 7728" d="M3216.283,352.436a3.385,3.385,0,0,1-1.888-2.024,10.319,10.319,0,0,0-15.016-5.149,2.9,2.9,0,0,1-2.7.238,28.156,28.156,0,0,0-19.851.018,2.823,2.823,0,0,1-2.6-.231,10.617,10.617,0,0,0-5.464-1.525,10.283,10.283,0,0,0-3.313.546,10.487,10.487,0,0,0-6.35,6.152,3.394,3.394,0,0,1-1.716,1.769c-8.822,3.963-14.345,10.639-16.417,19.846-.2.871-.337,1.784-.472,2.667l-.027.17c-.054.351-.107.7-.165,1.044l.006,4.628c.075.427.153.933.229,1.437.163,1.089.333,2.216.57,3.3,1.466,6.688,4.687,12.952,9.843,19.147,5.958,7.155,13.547,13.452,23.2,19.253,2.568,1.543,5.3,2.96,7.939,4.333l.15.078c1.2.625,2.407,1.251,3.6,1.891a1.744,1.744,0,0,0,1.751.06c13.244-6.25,23.8-13.616,32.271-22.517,5.939-6.243,9.809-12.568,11.828-19.341,2.53-8.475,2.046-15.948-1.463-22.857A27.819,27.819,0,0,0,3216.283,352.436Zm-13.46-5.656a7.6,7.6,0,0,1,6.557,1.259,7.142,7.142,0,0,1,2.918,5.65,16.944,16.944,0,0,0,4,10.694,24.23,24.23,0,0,1,2.483,3.586,8.056,8.056,0,0,1,.308,7.375,7.634,7.634,0,0,1-5.6,4.2,7.2,7.2,0,0,1-.948.1l-1.871.132-.064-1.482c-.14-3.257-1.6-6.155-3-8.958a14.443,14.443,0,0,1-1.478-7.213,19.066,19.066,0,0,0-2.106-10.1,23.836,23.836,0,0,0-1.292-2.018c-.241-.35-.48-.7-.717-1.055l-1.081-1.646Zm-4.991,2.366c.035.026.069.054.1.083a12.477,12.477,0,0,1,5.213,8.874,29.489,29.489,0,0,1,.2,3.03c0,.143.013.287.014.431l0,.113.013.5c.021.876.017,1.753.014,2.65l-.007,2.658h0v.005l-1.291.13a7.951,7.951,0,0,1-.816.041c-.194-.009-.381-.036-.571-.054-.123-.013-.246-.019-.367-.036-.2-.026-.4-.065-.6-.1-.118-.023-.235-.044-.352-.07-.2-.046-.4-.1-.592-.156q-.159-.045-.316-.1c-.2-.064-.4-.133-.588-.208-.092-.036-.182-.076-.273-.114-.2-.085-.4-.17-.589-.266-.063-.031-.122-.066-.184-.1a10.551,10.551,0,0,1-1.754-1.152c-.107-.087-.216-.172-.32-.263-.121-.106-.236-.217-.352-.328s-.232-.224-.343-.341-.2-.216-.3-.326c-.118-.135-.232-.273-.344-.414-.082-.1-.165-.209-.244-.317-.12-.164-.232-.333-.342-.5-.062-.1-.126-.188-.185-.286-.141-.234-.272-.476-.4-.722-.02-.039-.042-.076-.062-.116q-.21-.432-.38-.889c-.032-.084-.057-.171-.086-.256-.078-.223-.151-.448-.215-.678-.028-.1-.05-.207-.075-.311-.035-.142-.076-.282-.1-.426-.013-.065-.015-.13-.027-.194-.041-.234-.07-.471-.1-.709-.018-.168-.043-.335-.054-.5-.013-.22-.008-.443-.007-.666,0-.306.011-.61.038-.913.019-.217.039-.434.071-.648.027-.183.063-.363.1-.544s.084-.384.134-.574.093-.353.148-.527c.071-.221.154-.436.238-.652.092-.234.192-.464.3-.692.1-.212.2-.423.319-.628.086-.153.18-.3.274-.451.113-.179.232-.355.355-.528.1-.138.2-.277.3-.411.176-.222.364-.436.559-.644.059-.064.109-.134.17-.2A2.609,2.609,0,0,1,3197.832,349.146Zm-19.043-1.471h0a25.577,25.577,0,0,1,11.113-1.023l2.01.193-.842,1.835c-.232.506-.479,1-.725,1.5a20.417,20.417,0,0,0-1.282,2.926,13.235,13.235,0,0,0,2.37,12.44,13.4,13.4,0,0,0,11.88,4.794,2.284,2.284,0,0,1,2.18,1.012,16.93,16.93,0,0,1,2.38,7.068,14.188,14.188,0,0,1-3.786,10.425,20.43,20.43,0,0,1-13.076,6.959,31.932,31.932,0,0,1-4.592.347h-.009a23.074,23.074,0,0,1-11.45-2.86c-5.051-2.787-8.12-6.773-9.12-11.849a12.826,12.826,0,0,1,1.373-8.436l.331-.657a20.186,20.186,0,0,0,2.324-6.188c.111-.813.153-1.657.194-2.474.033-.643.063-1.189.11-1.732.04-.461.07-.923.1-1.387a26.493,26.493,0,0,1,.488-4.079A11.7,11.7,0,0,1,3178.789,347.675Zm12.6,55.87a4.6,4.6,0,0,1-5.536,4.464l-.021-.006a4.62,4.62,0,0,1-.847-.265c-.041-.017-.076-.044-.117-.063a4.589,4.589,0,0,1-.671-.366,4.654,4.654,0,0,1-1.262-1.275c-.064-.1-.107-.2-.163-.3a4.6,4.6,0,0,1-.262-.5c-.049-.12-.075-.248-.114-.371a4.489,4.489,0,0,1-.149-.5c-.022-.113-.021-.231-.034-.347a4.419,4.419,0,0,1-.055-.556v-.027a4.613,4.613,0,0,1,7.892-3.188,4.558,4.558,0,0,1,.964,1.438l.011.021a4.652,4.652,0,0,1,.252.812c0,.02.013.039.017.059a4.529,4.529,0,0,1,.082.819c0,.037.011.072.011.109v.016Zm-30.167-49.519h0a7.6,7.6,0,0,1,3.167-6.122,7.22,7.22,0,0,1,6.451-1.069l1.94.613-1.627,2.142c-.276.354-.517.666-.741.992a17.885,17.885,0,0,0-2.976,11.111,16.725,16.725,0,0,1-1.953,8.631,18.69,18.69,0,0,0-2.517,7.9l-.056,1.292-1.294.079c-.155.008-.3.014-.455.014a7.334,7.334,0,0,1-5.8-2.867,7.726,7.726,0,0,1-1.26-7.094,14.58,14.58,0,0,1,1.752-3.378c.464-.728.984-1.4,1.488-2.049.271-.349.507-.654.74-.963A15.354,15.354,0,0,0,3161.223,354.026Zm-2.592,55.3-1.732-2.113c-.674-.823-1.344-1.62-2-2.4-1.46-1.739-2.819-3.359-4.1-5.089a37.293,37.293,0,0,1-7.253-16.258c-1.743-10.566,1.345-19.1,9.18-25.365.643-.512,1.332-.957,1.941-1.35l.119-.077c.235-.151.471-.3.7-.462l.872-.59,2.011,1.6-.581,1.062c-.143.263-.283.533-.423.8a18.676,18.676,0,0,1-1.11,1.946c-.523.773-1.084,1.524-1.642,2.274-.517.7-.989,1.328-1.434,1.975a10.913,10.913,0,0,0-1.794,9.627,10.23,10.23,0,0,0,9.863,7.481,2.356,2.356,0,0,1,2.456,1.8,18.58,18.58,0,0,0,3.446,6.182l1.455,1.827-.976.9a28.99,28.99,0,0,0-8.244,13.6Zm52.481,2.707,0,0a111.749,111.749,0,0,1-23.141,14.817,2.865,2.865,0,0,1-2.363,0,111.511,111.511,0,0,1-23.076-14.741,2.585,2.585,0,0,1-.954-2.212,24.968,24.968,0,0,1,8.194-15.029l.7-.625,10.163,4.549-.414,1.235c-1.392,4.166-.623,7.341,2.284,9.441a7.353,7.353,0,0,0,8.613-.041c2.911-2.157,3.644-5.359,2.183-9.517l-.466-1.326,1.317-.495c.36-.137.724-.267,1.087-.4l.188-.068c.909-.328,1.848-.663,2.717-1.053s1.728-.853,2.63-1.342c.455-.246.851-.46,1.256-.671l.866-.456.741.642a23.958,23.958,0,0,1,6.68,9.278,35.364,35.364,0,0,1,1.374,4.584l.241.956A2.622,2.622,0,0,1,3211.112,412.032Zm18.05-24.981,0,0c-2.054,6.948-5.953,13.129-12.64,20.044l-1.722,1.779-.691-2.376a28.719,28.719,0,0,0-8.2-13.4l-1.013-.939.9-1.046a20.108,20.108,0,0,0,4.2-7.337l.235-.8.815-.194c.654-.152,1.3-.276,1.923-.4a17.214,17.214,0,0,0,3.34-.868,10.125,10.125,0,0,0,5.687-6.014,10.713,10.713,0,0,0-.709-8.612,27.306,27.306,0,0,0-2.092-3.146c-.471-.642-.926-1.264-1.353-1.9-.5-.754-.972-1.529-1.439-2.307l-1.3-2.13,2.164-1.483.787.469a24.5,24.5,0,0,1,11.243,13.9A27.767,27.767,0,0,1,3229.162,387.051Z" fill="#33c"/>
      <path id="Trazado_7729" data-name="Trazado 7729" d="M3191.015,401.683a4.608,4.608,0,0,0-4.248-2.807,4.627,4.627,0,0,0-.594.062,4.382,4.382,0,0,1,4.842,2.745Z" fill="#fff"/>
      <path id="Trazado_7730" data-name="Trazado 7730" d="M3182.248,404.363c-.022-.112-.02-.232-.034-.347C3182.227,404.132,3182.226,404.25,3182.248,404.363Z" fill="#fff"/>
      <path id="Trazado_7731" data-name="Trazado 7731" d="M3182.511,405.238c-.049-.119-.075-.248-.114-.371C3182.436,404.99,3182.462,405.118,3182.511,405.238Z" fill="#fff"/>
      <path id="Trazado_7732" data-name="Trazado 7732" d="M3184.869,407.675a4.628,4.628,0,0,1-.671-.366A4.589,4.589,0,0,0,3184.869,407.675Z" fill="#fff"/>
      <path id="Trazado_7733" data-name="Trazado 7733" d="M3191.026,401.7a4.63,4.63,0,0,1,.252.812A4.652,4.652,0,0,0,3191.026,401.7Z" fill="#fff"/>
      <path id="Trazado_7734" data-name="Trazado 7734" d="M3182.936,406.034c-.063-.094-.107-.2-.163-.3C3182.829,405.833,3182.872,405.939,3182.936,406.034Z" fill="#fff"/>
      <path id="Trazado_7735" data-name="Trazado 7735" d="M3185.833,408a4.58,4.58,0,0,1-.847-.265A4.62,4.62,0,0,0,3185.833,408Z" fill="#fff"/>
      <path id="Trazado_7736" data-name="Trazado 7736" d="M3191.295,402.575a4.571,4.571,0,0,1,.082.819A4.529,4.529,0,0,0,3191.295,402.575Z" fill="#fff"/>
      <path id="Trazado_7737" data-name="Trazado 7737" d="M3186.788,408.105a4.711,4.711,0,0,1-.934-.1,4.6,4.6,0,0,0,5.536-4.464l0-.026v.025A4.632,4.632,0,0,1,3186.788,408.105Z" fill="#fff"/>
      <path id="Trazado_7738" data-name="Trazado 7738" d="M3195.095,365.308c-.107-.087-.216-.172-.32-.263C3194.879,365.136,3194.988,365.221,3195.095,365.308Z" fill="#fff"/>
      <path id="Trazado_7739" data-name="Trazado 7739" d="M3191.274,355.5c.027-.183.063-.364.1-.544C3191.337,355.136,3191.3,355.316,3191.274,355.5Z" fill="#fff"/>
      <path id="Trazado_7740" data-name="Trazado 7740" d="M3194.423,364.717c-.117-.112-.232-.224-.343-.341C3194.191,364.493,3194.306,364.605,3194.423,364.717Z" fill="#fff"/>
      <path id="Trazado_7741" data-name="Trazado 7741" d="M3197.033,366.559c-.063-.031-.122-.066-.184-.1C3196.911,366.493,3196.97,366.528,3197.033,366.559Z" fill="#fff"/>
      <path id="Trazado_7742" data-name="Trazado 7742" d="M3199.743,367.469c-.118-.023-.236-.044-.352-.07C3199.508,367.425,3199.625,367.446,3199.743,367.469Z" fill="#fff"/>
      <path id="Trazado_7743" data-name="Trazado 7743" d="M3198.8,367.243q-.159-.045-.316-.1Q3198.64,367.2,3198.8,367.243Z" fill="#fff"/>
      <path id="Trazado_7744" data-name="Trazado 7744" d="M3197.9,366.939c-.092-.036-.182-.076-.273-.114C3197.713,366.863,3197.8,366.9,3197.9,366.939Z" fill="#fff"/>
      <path id="Trazado_7745" data-name="Trazado 7745" d="M3200.707,367.608c-.123-.012-.247-.019-.367-.036C3200.461,367.589,3200.584,367.6,3200.707,367.608Z" fill="#fff"/>
      <path id="Trazado_7746" data-name="Trazado 7746" d="M3191.349,359.132c.028.144.069.284.1.426-.05-.205-.093-.411-.131-.62C3191.334,359,3191.336,359.067,3191.349,359.132Z" fill="#fff"/>
      <path id="Trazado_7747" data-name="Trazado 7747" d="M3192.514,351.882c.086-.153.181-.3.274-.451C3192.694,351.581,3192.6,351.729,3192.514,351.882Z" fill="#fff"/>
      <path id="Trazado_7748" data-name="Trazado 7748" d="M3193.143,350.9c.1-.138.2-.277.3-.411C3193.342,350.626,3193.243,350.765,3193.143,350.9Z" fill="#fff"/>
      <path id="Trazado_7749" data-name="Trazado 7749" d="M3191.743,360.547c-.078-.223-.152-.448-.215-.678C3191.592,360.1,3191.665,360.324,3191.743,360.547Z" fill="#fff"/>
      <path id="Trazado_7750" data-name="Trazado 7750" d="M3191.508,354.381c.047-.177.093-.353.148-.527C3191.6,354.028,3191.555,354.2,3191.508,354.381Z" fill="#fff"/>
      <path id="Trazado_7751" data-name="Trazado 7751" d="M3191.894,353.2q.138-.351.3-.692C3192.086,352.738,3191.986,352.968,3191.894,353.2Z" fill="#fff"/>
      <path id="Trazado_7752" data-name="Trazado 7752" d="M3191.226,358.229c-.018-.168-.043-.334-.054-.5C3191.183,357.894,3191.208,358.061,3191.226,358.229Z" fill="#fff"/>
      <path id="Trazado_7753" data-name="Trazado 7753" d="M3192.667,362.53c-.141-.235-.272-.476-.4-.722C3192.4,362.054,3192.526,362.3,3192.667,362.53Z" fill="#fff"/>
      <path id="Trazado_7754" data-name="Trazado 7754" d="M3193.782,364.05c-.118-.135-.232-.273-.344-.414C3193.55,363.777,3193.664,363.915,3193.782,364.05Z" fill="#fff"/>
      <path id="Trazado_7755" data-name="Trazado 7755" d="M3194.178,349.656a2.61,2.61,0,0,1,3.656-.5c.034.025.066.05.1.077h0a12.481,12.481,0,0,1,5.213,8.875,29.689,29.689,0,0,1,.2,3.026,29.489,29.489,0,0,0-.2-3.03,12.477,12.477,0,0,0-5.213-8.874c-.035-.029-.069-.057-.1-.083a2.609,2.609,0,0,0-3.655.506c-.061.062-.111.132-.17.2C3194.065,349.785,3194.118,349.718,3194.178,349.656Z" fill="#fff"/>
      <path id="Trazado_7756" data-name="Trazado 7756" d="M3191.2,356.147c-.027.3-.038.607-.038.913,0-.154-.01-.306,0-.461S3191.189,356.3,3191.2,356.147Z" fill="#fff"/>
      <path id="Trazado_7757" data-name="Trazado 7757" d="M3193.194,363.319c-.12-.164-.232-.333-.342-.5C3192.962,362.986,3193.074,363.155,3193.194,363.319Z" fill="#fff"/>
      <path id="Trazado_7758" data-name="Trazado 7758" d="M3203.391,364.833l-.006,2.653h0l.007-2.658c0-.9.007-1.774-.014-2.65l-.013-.5.012.5C3203.4,363.057,3203.4,363.935,3203.391,364.833Z" fill="#fff"/>
      <path id="Trazado_7759" data-name="Trazado 7759" d="M3192.209,361.692q-.21-.433-.38-.889Q3192,361.259,3192.209,361.692Z" fill="#fff"/>
      <path id="Trazado_7760" data-name="Trazado 7760" d="M3182.748,388.3a7.291,7.291,0,0,0,3.223-1,1.33,1.33,0,0,1,1.63,0,6.887,6.887,0,0,0,7.285.044,6.973,6.973,0,0,0,3.664-6.221,2.768,2.768,0,0,0-3.957-2.626,2.877,2.877,0,0,0-1.659,2.617,1.668,1.668,0,0,1-3.335-.043c-.042-1.056-.009-2.11-.009-3.146.377-.083.683-.126.977-.218a2.786,2.786,0,0,0,2-2.911,2.756,2.756,0,0,0-2.571-2.532q-3.224-.1-6.448,0a2.763,2.763,0,0,0-2.562,2.543,2.8,2.8,0,0,0,2.015,2.9c.291.091.595.141.968.225,0,1.033.017,2,0,2.961a1.7,1.7,0,0,1-1.584,1.81h-.038a1.715,1.715,0,0,1-1.74-1.691V381a2.834,2.834,0,0,0-2.888-2.777l-.122,0a2.88,2.88,0,0,0-2.606,3.13c0,.049.01.1.017.146A7.282,7.282,0,0,0,3182.748,388.3Z" fill="#30ceb3"/>
    </g>
  </g>
</svg>
