<svg xmlns="http://www.w3.org/2000/svg" width="148" height="148" viewBox="0 0 148 148">
  <g id="Grupo_18271" data-name="Grupo 18271" transform="translate(-260 -2887)">
    <path id="Trazado_5924" data-name="Trazado 5924" d="M74,0A74,74,0,1,1,0,74,74,74,0,0,1,74,0Z" transform="translate(260 2887)" fill="#fff" opacity="0.05"/>
    <g id="Grupo_16728" data-name="Grupo 16728" transform="translate(289.385 2910.615)">
      <g id="Grupo_16663" data-name="Grupo 16663" transform="translate(26.89)">
        <g id="Grupo_16662" data-name="Grupo 16662">
          <path id="Trazado_6117" data-name="Trazado 6117" d="M1476.941,5539.025c-11.1,0-17.724-25.617-17.724-50.385,0-12.306,1.537-24.145,4.329-33.333a1.4,1.4,0,1,1,2.669.813c-2.714,8.934-4.209,20.482-4.209,32.521,0,28.471,7.723,47.595,14.935,47.595s14.935-19.124,14.935-47.595-7.723-47.6-14.935-47.6c-3.148,0-5.753,3.644-7.385,6.7a1.395,1.395,0,1,1-2.46-1.313c2.855-5.349,6.26-8.176,9.846-8.176,11.095,0,17.724,25.617,17.724,50.385S1488.036,5539.025,1476.941,5539.025Z" transform="translate(-1459.217 -5438.256)" fill="#33c"/>
        </g>
      </g>
      <g id="Grupo_16665" data-name="Grupo 16665" transform="translate(27.991 6.999)">
        <g id="Grupo_16664" data-name="Grupo 16664">
          <path id="Trazado_6118" data-name="Trazado 6118" d="M1466.068,5455.4a6.061,6.061,0,1,1,6.059-6.061A6.067,6.067,0,0,1,1466.068,5455.4Zm0-9.332a3.271,3.271,0,1,0,3.269,3.271A3.276,3.276,0,0,0,1466.068,5446.063Z" transform="translate(-1460.006 -5443.273)" fill="#30ceb3"/>
        </g>
      </g>
      <g id="Grupo_16667" data-name="Grupo 16667" transform="translate(0.017 20.711)">
        <g id="Grupo_16666" data-name="Grupo 16666">
          <path id="Trazado_6119" data-name="Trazado 6119" d="M1451.875,5512.429c-5.494,0-9.274-1.531-10.963-4.458-2.505-4.338-.085-11.013,6.816-18.8,6.568-7.408,16.5-15.13,27.954-21.747s23.112-11.352,32.811-13.336c10.193-2.085,17.183-.844,19.687,3.493,5.548,9.61-13.324,28.16-34.772,40.544-10.657,6.153-21.678,10.739-31.033,12.914a1.394,1.394,0,0,1-.632-2.715c9.095-2.115,19.844-6.594,30.27-12.616,24.656-14.234,37.356-30.484,33.751-36.731-1.83-3.169-7.925-3.952-16.712-2.156-9.413,1.926-20.769,6.552-31.976,13.02s-20.887,13.993-27.263,21.182c-5.951,6.713-8.317,12.381-6.487,15.55,1.575,2.729,6.032,3.151,9.494,3.048.014,0,.031,0,.047,0a1.394,1.394,0,0,1,.045,2.788C1452.561,5512.422,1452.214,5512.429,1451.875,5512.429Z" transform="translate(-1439.949 -5453.104)" fill="#33c"/>
        </g>
      </g>
      <g id="Grupo_16669" data-name="Grupo 16669" transform="translate(11.512 72.137)">
        <g id="Grupo_16668" data-name="Grupo 16668">
          <path id="Trazado_6120" data-name="Trazado 6120" d="M1454.259,5502.1a6.141,6.141,0,0,1-1.578-.208,6.061,6.061,0,0,1-1.463-11.1h0a6.061,6.061,0,1,1,3.041,11.312Zm-1.646-8.9a3.272,3.272,0,0,0,.789,5.992,3.27,3.27,0,0,0,3.679-4.8,3.27,3.27,0,0,0-4.469-1.2Z" transform="translate(-1448.191 -5489.976)" fill="#30ceb3"/>
        </g>
      </g>
      <g id="Grupo_16671" data-name="Grupo 16671" transform="translate(0 20.717)">
        <g id="Grupo_16670" data-name="Grupo 16670">
          <path id="Trazado_6121" data-name="Trazado 6121" d="M1517.182,5512.452a43.87,43.87,0,0,1-8.682-.987c-9.7-1.985-21.352-6.722-32.811-13.336-21.448-12.384-40.319-30.934-34.771-40.544s31.048-2.542,52.5,9.843c10.657,6.154,20.14,13.4,26.7,20.417a1.4,1.4,0,1,1-2.037,1.906c-6.38-6.818-15.634-13.889-26.059-19.909-24.655-14.233-45.082-17.1-48.686-10.863s9.095,22.5,33.75,36.731c11.207,6.472,22.563,11.1,31.976,13.022,8.794,1.8,14.883,1.012,16.712-2.158,1.575-2.728-.278-6.8-2.109-9.742a1.4,1.4,0,0,1,2.367-1.478c3.207,5.146,3.951,9.508,2.158,12.614C1526.475,5510.932,1522.67,5512.452,1517.182,5512.452Z" transform="translate(-1439.937 -5453.109)" fill="#33c"/>
        </g>
      </g>
      <g id="Grupo_16673" data-name="Grupo 16673" transform="translate(76.162 53.838)">
        <g id="Grupo_16672" data-name="Grupo 16672">
          <path id="Trazado_6122" data-name="Trazado 6122" d="M1500.593,5488.983a6.007,6.007,0,0,1-3.02-.815,6.011,6.011,0,1,1,3.02.815Zm.015-9.336a3.271,3.271,0,0,0-1.641,6.1h0a3.271,3.271,0,1,0,1.641-6.1Z" transform="translate(-1494.544 -5476.856)" fill="#30ceb3"/>
        </g>
      </g>
      <g id="Grupo_12963" data-name="Grupo 12963" transform="translate(35.102 41.12)">
        <g id="Grupo_12961" data-name="Grupo 12961">
          <g id="Trazado_4844" data-name="Trazado 4844">
            <g id="Grupo_16674" data-name="Grupo 16674">
              <path id="Trazado_6123" data-name="Trazado 6123" d="M1483.464,5474.38c-.035.049-.071.1-.109.146-.018.022-.035.045-.054.065a2.616,2.616,0,0,1-.212.234l-.01.009c-.062.063-.128.123-.2.18-.04.035-.082.068-.124.1l-.007,0a3.654,3.654,0,0,1-2.265.786c-.033,0-.067-.006-.1-.006a7.775,7.775,0,0,1,.1,1.259c0,3.6-2.4,6.166-5.858,6.166-3.494,0-5.891-2.6-5.891-6.166,0-3.63,2.4-6.2,5.891-6.2a6.174,6.174,0,0,1,2.283.417,3.677,3.677,0,0,1,2.275-2.587,10.112,10.112,0,0,0-4.592-1.052,9.422,9.422,0,1,0,9.523,9.421,10.248,10.248,0,0,0-.463-3.073A3.413,3.413,0,0,1,1483.464,5474.38Z" transform="translate(-1465.105 -5467.738)" fill="#fff"/>
            </g>
          </g>
        </g>
        <g id="Grupo_12962" data-name="Grupo 12962" transform="translate(13.062 2.168)">
          <g id="Elipse_79" data-name="Elipse 79">
            <g id="Grupo_16675" data-name="Grupo 16675">
              <circle id="Elipse_183" data-name="Elipse 183" cx="2.32" cy="2.32" r="2.32" fill="#fff"/>
            </g>
          </g>
        </g>
      </g>
    </g>
  </g>
</svg>
