<svg xmlns="http://www.w3.org/2000/svg" width="48.587" height="48.6" viewBox="0 0 48.587 48.6">
  <g id="Componente_106_3" data-name="Componente 106 – 3" transform="translate(0)">
    <path id="Trazado_4736" data-name="Trazado 4736" d="M-964.266,4211.744H-967.3c-.137-.028-.273-.063-.411-.083-1-.141-2.013-.221-3-.425a24.306,24.306,0,0,1-19.189-26.608,23.6,23.6,0,0,1,9.05-16.2,23.607,23.607,0,0,1,18.957-4.965,23.315,23.315,0,0,1,12.233,5.832,23.9,23.9,0,0,1,7.8,13.962c.157.884.25,1.779.373,2.669v3.038a2.653,2.653,0,0,0-.079.366,23.2,23.2,0,0,1-3.318,10.465,24.021,24.021,0,0,1-16.715,11.577C-962.482,4211.537-963.377,4211.622-964.266,4211.744Zm-5.286-23.451v14.064h5.864v-14.075h3.947l.508-4.966h-4.445c0-1.1-.038-2.157.013-3.209a1.1,1.1,0,0,1,1.225-1.062c.759-.019,1.518,0,2.277-.006h.814v-4.81c-1.712,0-3.391-.088-5.057.02a5.07,5.07,0,0,0-5.036,4.7,35.184,35.184,0,0,0-.118,3.788c0,.182,0,.364,0,.6h-2.747v4.953Z" transform="translate(990.076 -4163.144)" fill="#33c"/>
    <path id="Trazado_4737" data-name="Trazado 4737" d="M-841.027,4268.218h-2.754v-4.953h2.747c0-.24,0-.422,0-.6a35.172,35.172,0,0,1,.118-3.788,5.069,5.069,0,0,1,5.036-4.7c1.666-.108,3.344-.02,5.057-.02v4.81h-.814c-.759,0-1.518-.014-2.277.006a1.094,1.094,0,0,0-1.224,1.062c-.051,1.052-.013,2.109-.013,3.209h4.445c-.172,1.677-.338,3.3-.508,4.967h-3.947v14.075h-5.864Z" transform="translate(861.551 -4243.069)" fill="#fff"/>
  </g>
</svg>
