<svg xmlns="http://www.w3.org/2000/svg" width="148" height="148" viewBox="0 0 148 148">
  <g id="Grupo_18306" data-name="Grupo 18306" transform="translate(-260 -4917)">
    <path id="Trazado_7765" data-name="Trazado 7765" d="M74,0A74,74,0,1,1,0,74,74,74,0,0,1,74,0Z" transform="translate(260 4917)" fill="#fff" opacity="0.05"/>
    <g id="Grupo_18302" data-name="Grupo 18302" transform="translate(294.555 4944.559)">
      <g id="Grupo_18287" data-name="Grupo 18287">
        <path id="Trazado_7779" data-name="Trazado 7779" d="M1686.551,5394.344a11.718,11.718,0,0,1-4.151-4.556c-3.8-6.2-5.956-12.908-5.425-20.229.467-6.448,3.075-11.908,8.605-15.6a20.536,20.536,0,0,1,4.381-1.884,2.578,2.578,0,0,0,1.423-.991c.611-.926,1.285-1.811,1.944-2.729-1.462-.6-2.884-1.105-4.235-1.757a15.254,15.254,0,0,1-5.966-4.881,12.779,12.779,0,0,1-2.121-9.482c.794-5.921,3.963-10.568,8.1-14.618a39.586,39.586,0,0,1,20.93-10.819,33.816,33.816,0,0,1,12.352,0,1.092,1.092,0,0,0,1.16-.414c1.157-1.273,2.32-2.547,3.566-3.729a5.115,5.115,0,0,1,1.872-1.05,2.091,2.091,0,0,1,2.9,1.83,13.394,13.394,0,0,1-.319,3.3,23.639,23.639,0,0,1-.715,2.5l1.352.718a44.58,44.58,0,0,1,20.636,21.718,34.3,34.3,0,0,1,1.672,23.227,38.94,38.94,0,0,1-14.358,21.633,20.519,20.519,0,0,1-11.9,4.585,12.765,12.765,0,0,1-11.367-5.917c-2.365-3.375-3.24-7.292-4.046-11.243-.415-2.036-1-4.039-1.537-6.048a9.3,9.3,0,0,0-.561-1.269,7.463,7.463,0,0,0-.4.689c-.4.911-.751,1.848-1.2,2.737a4.278,4.278,0,0,0-.322,3.172c1.428,5.841-.357,10.825-4.381,15.13a45.368,45.368,0,0,1-8.9,6.962,14.582,14.582,0,0,0-5.192,5.343c.443,0,.752,0,1.06,0,2.568-.036,5.138-.087,7.708-.1,1.281-.007,2.028.663,1.982,1.722a1.483,1.483,0,0,1-1.194,1.508,5.945,5.945,0,0,1-1.258.137c-3.414.086-6.829.155-10.244.243a6.371,6.371,0,0,0-.945.168Zm37.061-67.672c-.138.3-.282.59-.414.89-3.391,7.8-6.75,15.618-10.2,23.393a3.305,3.305,0,0,0,.134,3.451c1.7,2.919,2.345,6.232,2.99,9.518a26.388,26.388,0,0,0,3.272,9.313,10.037,10.037,0,0,0,10.712,4.529,21.728,21.728,0,0,0,10.021-5.372,35.657,35.657,0,0,0,11.959-22.407,31.175,31.175,0,0,0-2.707-17.541,41.734,41.734,0,0,0-13.9-16.4c-1.793-1.3-3.779-2.332-5.763-3.539-1.693,3.923-3.3,7.639-4.9,11.357a9.851,9.851,0,0,1,13.421-2.382,9.582,9.582,0,0,1,2.66,12.5,9.436,9.436,0,0,1-11.617,3.956C1724.973,5336.31,1722.63,5331.606,1723.612,5326.671Zm-36.846,63.583c.222-.325.315-.437.382-.563a20.108,20.108,0,0,1,6.8-7.129,60.459,60.459,0,0,0,7.9-6.183c3.854-3.7,5.157-8.278,3.2-13.41a11.968,11.968,0,0,0-18.862-5.265c-3.793,3.176-5.5,7.5-5.784,12.372a30.233,30.233,0,0,0,3.645,15.67C1684.818,5387.261,1685.8,5388.669,1686.765,5390.254Zm33.979-80.14c-1.174-.1-2.162-.243-3.152-.266a35.282,35.282,0,0,0-26.4,10.523,22.933,22.933,0,0,0-6.556,10.669c-1.106,4.29-.238,8.018,3.3,10.906a18.585,18.585,0,0,0,6.9,3.248.892.892,0,0,0,1.168-.432c2.88-4.067,5.791-8.11,8.694-12.16q2.263-3.157,4.528-6.312c-4.339-3.388-5.362-6.866-3.059-10.484a6.97,6.97,0,0,1,4.386-3.126,7.247,7.247,0,0,1,6.917,1.975Zm-14.385,25.881-11.178,15.7c.413.073.642.116.875.154.266.044.537.065.8.127a15.24,15.24,0,0,1,8.33,5.267c.632.748.942.716,1.323-.129,1.285-2.857,2.576-5.71,3.842-8.575,1.2-2.716,2.369-5.443,3.575-8.221Zm21.648-29.33c-7.192,8.371-13.082,17.686-19.725,26.556l7.052,4.07C1719.627,5327.033,1724.473,5317.136,1728.008,5306.665Zm10.732,22.536c.232-3.249-2.88-6.131-6.216-5.928a6.051,6.051,0,0,0-5.626,6.495,5.953,5.953,0,0,0,5.964,5.6A6.015,6.015,0,0,0,1738.74,5329.2Zm-23.413-11.65a3.73,3.73,0,0,0-4.073-1.689,4.074,4.074,0,0,0-3.005,3.746,3.863,3.863,0,0,0,2.9,3.763Z" transform="translate(-1676.895 -5301.461)" fill="#33c"/>
      </g>
      <g id="Grupo_18288" data-name="Grupo 18288" transform="translate(26.043 89.408)">
        <path id="Trazado_7780" data-name="Trazado 7780" d="M1701.862,5374.776c-.907,0-1.814.016-2.72,0a1.655,1.655,0,1,1-.042-3.289q2.764-.034,5.53,0a1.649,1.649,0,0,1,1.847,1.668c-.014.98-.727,1.595-1.9,1.627-.06,0-.12,0-.181,0Q1703.132,5374.778,1701.862,5374.776Z" transform="translate(-1697.286 -5371.466)" fill="#33c"/>
      </g>
      <g id="Grupo_18289" data-name="Grupo 18289" transform="translate(37.062 89.418)">
        <path id="Trazado_7781" data-name="Trazado 7781" d="M1709.373,5371.487c.6,0,1.211-.034,1.812.009a1.627,1.627,0,0,1,0,3.251c-1.236.05-2.478.049-3.714,0a1.59,1.59,0,0,1-1.557-1.579,1.648,1.648,0,0,1,1.557-1.681,1.715,1.715,0,0,1,.18-.011h1.722Z" transform="translate(-1705.913 -5371.474)" fill="#33c"/>
      </g>
      <g id="Grupo_18290" data-name="Grupo 18290" transform="translate(35.68 11.043)">
        <path id="Trazado_7782" data-name="Trazado 7782" d="M1715.868,5324.275c-.982,4.935,1.361,9.639,5.664,11.258a9.436,9.436,0,0,0,11.617-3.956,9.582,9.582,0,0,0-2.66-12.5,9.851,9.851,0,0,0-13.421,2.382c1.6-3.718,3.21-7.434,4.9-11.357,1.984,1.208,3.969,2.239,5.763,3.539a41.734,41.734,0,0,1,13.9,16.4,31.175,31.175,0,0,1,2.707,17.541A35.657,35.657,0,0,1,1732.381,5370a21.728,21.728,0,0,1-10.021,5.372,10.037,10.037,0,0,1-10.712-4.529,26.388,26.388,0,0,1-3.272-9.313c-.645-3.285-1.286-6.6-2.99-9.518a3.305,3.305,0,0,1-.134-3.451c3.452-7.774,6.811-15.591,10.2-23.393C1715.586,5324.865,1715.73,5324.571,1715.868,5324.275Zm18.851,30.319a7.177,7.177,0,1,0-7.28-7.269A7.291,7.291,0,0,0,1734.719,5354.594Zm-3.245,9.313a6.232,6.232,0,0,0-12.464-.092,6.232,6.232,0,1,0,12.464.092Z" transform="translate(-1704.832 -5310.108)" fill="#fff"/>
      </g>
      <g id="Grupo_18291" data-name="Grupo 18291" transform="translate(3.458 53.529)">
        <path id="Trazado_7783" data-name="Trazado 7783" d="M1686.015,5378.637c-.966-1.584-1.948-2.993-2.722-4.508a30.232,30.232,0,0,1-3.645-15.67c.285-4.868,1.991-9.2,5.784-12.372a11.968,11.968,0,0,1,18.862,5.265c1.958,5.132.655,9.713-3.2,13.41a60.418,60.418,0,0,1-7.9,6.183,20.109,20.109,0,0,0-6.8,7.13C1686.33,5378.2,1686.237,5378.312,1686.015,5378.637Z" transform="translate(-1679.603 -5343.374)" fill="#30ceb3"/>
      </g>
      <g id="Grupo_18292" data-name="Grupo 18292" transform="translate(7.293 8.375)">
        <path id="Trazado_7784" data-name="Trazado 7784" d="M1719.162,5308.3l-3.268,4.541a7.247,7.247,0,0,0-6.917-1.975,6.97,6.97,0,0,0-4.386,3.126c-2.3,3.618-1.28,7.1,3.059,10.484q-2.263,3.153-4.528,6.312c-2.9,4.05-5.814,8.093-8.694,12.16a.892.892,0,0,1-1.168.432,18.585,18.585,0,0,1-6.9-3.248c-3.538-2.888-4.406-6.616-3.3-10.906a22.933,22.933,0,0,1,6.556-10.669,35.282,35.282,0,0,1,26.4-10.523C1717,5308.054,1717.988,5308.194,1719.162,5308.3Zm-18.773,18.947a6.319,6.319,0,0,0-6.271-6.2,6.256,6.256,0,0,0,.017,12.512A6.32,6.32,0,0,0,1700.388,5327.243Z" transform="translate(-1682.605 -5308.019)" fill="#fff"/>
      </g>
      <g id="Grupo_18293" data-name="Grupo 18293" transform="translate(18.287 34.533)">
        <path id="Trazado_7785" data-name="Trazado 7785" d="M1702.391,5328.5l7.565,4.325c-1.206,2.777-2.375,5.5-3.575,8.221-1.266,2.864-2.557,5.718-3.842,8.575-.381.846-.691.877-1.323.129a15.242,15.242,0,0,0-8.33-5.267c-.262-.062-.533-.083-.8-.127-.232-.039-.462-.082-.875-.154Z" transform="translate(-1691.213 -5328.5)" fill="#fff"/>
      </g>
      <g id="Grupo_18294" data-name="Grupo 18294" transform="translate(31.388 5.203)">
        <path id="Trazado_7786" data-name="Trazado 7786" d="M1721.2,5305.536c-3.535,10.471-8.381,20.368-12.672,30.626l-7.052-4.07C1708.114,5323.221,1714,5313.907,1721.2,5305.536Z" transform="translate(-1701.471 -5305.536)" fill="#fff"/>
      </g>
      <g id="Grupo_18295" data-name="Grupo 18295" transform="translate(49.99 21.801)">
        <path id="Trazado_7787" data-name="Trazado 7787" d="M1727.891,5324.469a6.015,6.015,0,0,1-5.878,6.169,5.953,5.953,0,0,1-5.964-5.6,6.052,6.052,0,0,1,5.626-6.5C1725.011,5318.338,1728.123,5321.22,1727.891,5324.469Z" transform="translate(-1716.036 -5318.531)" fill="#fff"/>
      </g>
      <g id="Grupo_18296" data-name="Grupo 18296" transform="translate(31.352 14.285)">
        <path id="Trazado_7788" data-name="Trazado 7788" d="M1708.522,5314.45l-4.181,5.82a3.863,3.863,0,0,1-2.9-3.763,4.074,4.074,0,0,1,3.005-3.746A3.73,3.73,0,0,1,1708.522,5314.45Z" transform="translate(-1701.443 -5312.646)" fill="#fff"/>
      </g>
      <g id="Grupo_18297" data-name="Grupo 18297" transform="translate(58.288 41.174)">
        <path id="Trazado_7789" data-name="Trazado 7789" d="M1729.813,5348.055a7.339,7.339,0,0,1-7.28-7.269,7.226,7.226,0,0,1,7.147-7.085,7.178,7.178,0,1,1,.133,14.354Zm3.782-7.189a3.975,3.975,0,0,0-3.969-3.877,4.062,4.062,0,0,0-3.846,3.934,3.96,3.96,0,0,0,3.947,3.9A3.919,3.919,0,0,0,1733.595,5340.865Z" transform="translate(-1722.533 -5333.7)" fill="#33c"/>
      </g>
      <g id="Grupo_18298" data-name="Grupo 18298" transform="translate(49.858 58.593)">
        <path id="Trazado_7790" data-name="Trazado 7790" d="M1728.4,5353.587a6.232,6.232,0,1,1-6.091-6.248A6.225,6.225,0,0,1,1728.4,5353.587Zm-3.357.016a2.956,2.956,0,0,0-5.912-.079,2.956,2.956,0,0,0,5.912.079Z" transform="translate(-1715.933 -5347.339)" fill="#33c"/>
      </g>
      <g id="Grupo_18299" data-name="Grupo 18299" transform="translate(12.566 21.401)">
        <path id="Trazado_7791" data-name="Trazado 7791" d="M1699.244,5324.416a6.32,6.32,0,0,1-6.254,6.313,6.256,6.256,0,0,1-.017-12.512A6.319,6.319,0,0,1,1699.244,5324.416Z" transform="translate(-1686.734 -5318.218)" fill="#30ceb3"/>
      </g>
      <g id="Grupo_18300" data-name="Grupo 18300" transform="translate(61.534 44.461)">
        <path id="Trazado_7792" data-name="Trazado 7792" d="M1732.89,5340.152a3.919,3.919,0,0,1-3.868,3.953,3.96,3.96,0,0,1-3.947-3.9,4.062,4.062,0,0,1,3.846-3.934A3.975,3.975,0,0,1,1732.89,5340.152Z" transform="translate(-1725.075 -5336.274)" fill="#fff"/>
      </g>
      <g id="Grupo_18301" data-name="Grupo 18301" transform="translate(53.054 61.874)">
        <path id="Trazado_7793" data-name="Trazado 7793" d="M1724.347,5352.891a2.956,2.956,0,1,1-2.919-2.983A3.058,3.058,0,0,1,1724.347,5352.891Z" transform="translate(-1718.435 -5349.907)" fill="#fff"/>
      </g>
    </g>
  </g>
</svg>
