<svg xmlns="http://www.w3.org/2000/svg" width="148" height="148" viewBox="0 0 148 148">
  <g id="Grupo_18272" data-name="Grupo 18272" transform="translate(-260 -3902)">
    <path id="Trazado_7672" data-name="Trazado 7672" d="M74,0A74,74,0,1,1,0,74,74,74,0,0,1,74,0Z" transform="translate(260 3902)" fill="#fff" opacity="0.05"/>
    <g id="stock_exchang_2" data-name="stock exchang_2" transform="translate(283.658 3939.612)">
      <g id="Grupo_16646" data-name="Grupo 16646" transform="translate(1.154 1.154)" opacity="0">
        <rect id="Rectángulo_2187" data-name="Rectángulo 2187" width="98.377" height="63.063" rx="4.016" fill="#fff"/>
      </g>
      <g id="Grupo_16647" data-name="Grupo 16647" transform="translate(32.789 38.109)">
        <rect id="Rectángulo_2188" data-name="Rectángulo 2188" width="10.15" height="24.954" transform="translate(1.155 1.154)" fill="#30ceb3"/>
        <path id="Trazado_6102" data-name="Trazado 6102" d="M1699.667,5493.836h-10.15a1.154,1.154,0,0,1-1.154-1.154v-24.954a1.154,1.154,0,0,1,1.154-1.154h10.15a1.153,1.153,0,0,1,1.154,1.154v24.954A1.153,1.153,0,0,1,1699.667,5493.836Zm-9-2.308h7.842v-22.645h-7.842Z" transform="translate(-1688.362 -5466.575)" fill="#30ceb3"/>
      </g>
      <g id="Grupo_16648" data-name="Grupo 16648" transform="translate(77.889 26.463)">
        <rect id="Rectángulo_2189" data-name="Rectángulo 2189" width="10.05" height="36.599" transform="translate(1.153 1.155)" fill="#30ceb3"/>
        <path id="Trazado_6103" data-name="Trazado 6103" d="M1738.641,5495.392h-10.049a1.153,1.153,0,0,1-1.154-1.153v-36.6a1.154,1.154,0,0,1,1.154-1.154h10.049a1.155,1.155,0,0,1,1.154,1.154v36.6A1.153,1.153,0,0,1,1738.641,5495.392Zm-8.9-2.308h7.741v-34.291h-7.741Z" transform="translate(-1727.438 -5456.484)" fill="#30ceb3"/>
      </g>
      <g id="Grupo_16649" data-name="Grupo 16649" transform="translate(20.54 81.079)">
        <line id="Línea_78" data-name="Línea 78" x2="57.197" transform="translate(1.154 1.154)" fill="#fff" stroke="#33c" stroke-width="2"/>
        <path id="Trazado_6104" data-name="Trazado 6104" d="M1736.1,5506.114h-57.2a1.154,1.154,0,0,1,0-2.309h57.2a1.154,1.154,0,0,1,0,2.309Z" transform="translate(-1677.749 -5503.806)" fill="#33c" stroke="#33c" stroke-width="2"/>
      </g>
      <g id="Grupo_16650" data-name="Grupo 16650" transform="translate(36.803 63.062)">
        <line id="Línea_79" data-name="Línea 79" y2="18.016" transform="translate(1.154 1.155)" fill="#fff" stroke="#33c" stroke-width="2"/>
        <path id="Trazado_6105" data-name="Trazado 6105" d="M1692.994,5508.52a1.154,1.154,0,0,1-1.154-1.154V5489.35a1.154,1.154,0,1,1,2.308,0v18.016A1.154,1.154,0,0,1,1692.994,5508.52Z" transform="translate(-1691.84 -5488.195)" fill="#33c" stroke="#33c" stroke-width="2"/>
      </g>
      <g id="Grupo_16651" data-name="Grupo 16651" transform="translate(61.473 63.062)">
        <line id="Línea_80" data-name="Línea 80" y2="18.016" transform="translate(1.155 1.155)" fill="#fff" stroke="#33c" stroke-width="2"/>
        <path id="Trazado_6106" data-name="Trazado 6106" d="M1714.369,5508.52a1.154,1.154,0,0,1-1.154-1.154V5489.35a1.154,1.154,0,1,1,2.308,0v18.016A1.154,1.154,0,0,1,1714.369,5508.52Z" transform="translate(-1713.215 -5488.195)" fill="#33c" stroke="#33c" stroke-width="2"/>
      </g>
      <g id="Grupo_16652" data-name="Grupo 16652" transform="translate(10.465 46.093)">
        <rect id="Rectángulo_2190" data-name="Rectángulo 2190" width="10.196" height="16.969" transform="translate(1.154 1.154)" fill="#fff"/>
        <path id="Trazado_6107" data-name="Trazado 6107" d="M1680.369,5492.77h-10.2a1.153,1.153,0,0,1-1.154-1.154v-16.969a1.153,1.153,0,0,1,1.154-1.154h10.2a1.154,1.154,0,0,1,1.154,1.154v16.969A1.154,1.154,0,0,1,1680.369,5492.77Zm-9.042-2.308h7.887V5475.8h-7.887Z" transform="translate(-1669.019 -5473.493)" fill="#fff"/>
      </g>
      <g id="Grupo_16653" data-name="Grupo 16653" transform="translate(55.329 34.531)">
        <rect id="Rectángulo_2191" data-name="Rectángulo 2191" width="10.243" height="28.532" transform="translate(1.154 1.154)" fill="#fff"/>
        <path id="Trazado_6108" data-name="Trazado 6108" d="M1719.288,5494.314h-10.243a1.153,1.153,0,0,1-1.154-1.154v-28.531a1.153,1.153,0,0,1,1.154-1.154h10.243a1.154,1.154,0,0,1,1.154,1.154v28.531A1.154,1.154,0,0,1,1719.288,5494.314Zm-9.089-2.309h7.935v-26.223H1710.2Z" transform="translate(-1707.891 -5463.475)" fill="#fff"/>
      </g>
      <g id="Grupo_16654" data-name="Grupo 16654" transform="translate(11.621 30.591)">
        <ellipse id="Elipse_179" data-name="Elipse 179" cx="3.941" cy="3.941" rx="3.941" ry="3.941" transform="translate(1.155 1.153)" fill="#30ceb3"/>
        <path id="Trazado_6109" data-name="Trazado 6109" d="M1675.116,5470.25a5.094,5.094,0,1,1,5.1-5.094A5.1,5.1,0,0,1,1675.116,5470.25Zm0-7.88a2.786,2.786,0,1,0,2.787,2.786A2.79,2.79,0,0,0,1675.116,5462.369Z" transform="translate(-1670.021 -5460.061)" fill="#33c"/>
      </g>
      <g id="Grupo_16655" data-name="Grupo 16655" transform="translate(32.863 22.523)">
        <ellipse id="Elipse_180" data-name="Elipse 180" cx="3.941" cy="3.941" rx="3.941" ry="3.941" transform="translate(1.154 1.154)" fill="#30ceb3"/>
        <path id="Trazado_6110" data-name="Trazado 6110" d="M1693.52,5463.259a5.094,5.094,0,1,1,5.1-5.095A5.1,5.1,0,0,1,1693.52,5463.259Zm0-7.88a2.786,2.786,0,1,0,2.787,2.786A2.789,2.789,0,0,0,1693.52,5455.379Z" transform="translate(-1688.426 -5453.07)" fill="#33c"/>
      </g>
      <g id="Grupo_16656" data-name="Grupo 16656" transform="translate(56.508 18.581)">
        <ellipse id="Elipse_181" data-name="Elipse 181" cx="3.941" cy="3.941" rx="3.941" ry="3.941" transform="translate(1.155 1.155)" fill="#30ceb3"/>
        <path id="Trazado_6111" data-name="Trazado 6111" d="M1714.009,5459.846a5.095,5.095,0,1,1,5.094-5.094A5.1,5.1,0,0,1,1714.009,5459.846Zm0-7.882a2.787,2.787,0,1,0,2.786,2.788A2.79,2.79,0,0,0,1714.009,5451.964Z" transform="translate(-1708.913 -5449.656)" fill="#33c"/>
      </g>
      <g id="Grupo_16657" data-name="Grupo 16657" transform="translate(78.972 10.7)">
        <ellipse id="Elipse_182" data-name="Elipse 182" cx="3.941" cy="3.941" rx="3.941" ry="3.941" transform="translate(1.154 1.155)" fill="#30ceb3"/>
        <path id="Trazado_6112" data-name="Trazado 6112" d="M1733.471,5453.016a5.095,5.095,0,1,1,5.1-5.094A5.1,5.1,0,0,1,1733.471,5453.016Zm0-7.881a2.786,2.786,0,1,0,2.787,2.787A2.789,2.789,0,0,0,1733.471,5445.135Z" transform="translate(-1728.377 -5442.827)" fill="#33c"/>
      </g>
      <g id="Grupo_16658" data-name="Grupo 16658" transform="translate(19.07 27.863)">
        <line id="Línea_81" data-name="Línea 81" y1="5.335" x2="14.049" transform="translate(1.154 1.154)" fill="#fff"/>
        <path id="Trazado_6113" data-name="Trazado 6113" d="M1677.629,5465.34a1.153,1.153,0,0,1-.41-2.232l14.049-5.334a1.153,1.153,0,1,1,.818,2.157l-14.05,5.334A1.129,1.129,0,0,1,1677.629,5465.34Z" transform="translate(-1676.475 -5457.697)" fill="#33c"/>
      </g>
      <g id="Grupo_16659" data-name="Grupo 16659" transform="translate(40.689 23.169)">
        <line id="Línea_82" data-name="Línea 82" x1="15.875" y2="2.646" transform="translate(1.154 1.155)" fill="#fff"/>
        <path id="Trazado_6114" data-name="Trazado 6114" d="M1696.359,5458.585a1.154,1.154,0,0,1-.188-2.292l15.875-2.646a1.154,1.154,0,1,1,.378,2.276l-15.875,2.646A1.094,1.094,0,0,1,1696.359,5458.585Z" transform="translate(-1695.206 -5453.63)" fill="#33c"/>
      </g>
      <g id="Grupo_16660" data-name="Grupo 16660" transform="translate(64.167 15.944)">
        <line id="Línea_83" data-name="Línea 83" x1="15.028" y2="5.273" transform="translate(1.155 1.155)" fill="#fff"/>
        <path id="Trazado_6115" data-name="Trazado 6115" d="M1716.7,5454.953a1.154,1.154,0,0,1-.382-2.243l15.028-5.272a1.153,1.153,0,1,1,.764,2.177l-15.028,5.273A1.138,1.138,0,0,1,1716.7,5454.953Z" transform="translate(-1715.548 -5447.371)" fill="#33c"/>
      </g>
      <g id="Grupo_16661" data-name="Grupo 16661" transform="translate(0 0)">
        <path id="Trazado_6116" data-name="Trazado 6116" d="M1754.848,5498.927h-89.107a5.8,5.8,0,0,1-5.789-5.788v-53.795a5.8,5.8,0,0,1,5.789-5.788h89.107a5.8,5.8,0,0,1,5.788,5.788v53.795A5.8,5.8,0,0,1,1754.848,5498.927Zm-89.107-63.062a3.484,3.484,0,0,0-3.481,3.479v53.795a3.483,3.483,0,0,0,3.481,3.479h89.107a3.482,3.482,0,0,0,3.48-3.479v-53.795a3.483,3.483,0,0,0-3.48-3.479Z" transform="translate(-1659.952 -5433.556)" fill="#33c" stroke="#33c" stroke-width="2"/>
      </g>
    </g>
  </g>
</svg>
